<svg id="Layer_1" data-name="Layer 1" xmlns="http://www.w3.org/2000/svg" viewBox="0 0 58 58"><path id="btc" d="M27.4,20.6,27.2,27c1.9,0,7.6.6,7.6-3.1h0C34.9,20.1,29.2,20.6,27.4,20.6Zm-.2,9.6v7.2c2.1,0,9,.6,9.1-3.4S29.4,30.3,27.2,30.2Zm.2-9.6L27.2,27c1.9,0,7.6.6,7.6-3.1h0C34.9,20.1,29.2,20.6,27.4,20.6Zm-.2,9.6v7.2c2.1,0,9,.6,9.1-3.4S29.4,30.3,27.2,30.2ZM22.5.7A29,29,0,1,0,57.3,22.5,29.1,29.1,0,0,0,22.5.7ZM40.9,22.6A5,5,0,0,1,38,28c3.1.7,5,2.6,4.5,6.7s-4.3,6.4-9.8,6.6v5.4H29.4V41.3H26.9v5.3H23.6V41.1H17.2l.7-3.8h2.3a1.1,1.1,0,0,0,1.3-1V27.7h0V21.6a1.6,1.6,0,0,0-1.8-1.4H17.5V16.7h6.5V11.5h3.2v5.2a22.5,22.5,0,0,1,2.6,0V11.6h3.2V17C37.3,17.4,40.6,18.7,40.9,22.6Zm-13.5-2L27.2,27c1.9,0,7.6.6,7.6-3.1h0C34.9,20.1,29.2,20.6,27.4,20.6Zm-.2,9.6v7.2c2.1,0,9,.6,9.1-3.4S29.4,30.3,27.2,30.2Z" transform="translate(0 0)" style="fill:#28abb9;fill-rule:evenodd"/><path d="M40.9,22.6c-.3-3.9-3.6-5.2-7.7-5.6V11.7H30v5.2a22.5,22.5,0,0,0-2.6,0V11.6H24.2v5.3H17.6v3.4h2.4a1.6,1.6,0,0,1,1.8,1.4v6.1h0v8.5a1.1,1.1,0,0,1-1.3,1H17.9L17.2,41h6.5v5.4h3.2V41.3h2.6v5.3h3.2V41.3c5.5-.2,9.3-1.5,9.8-6.6s-1.4-6-4.5-6.7A5,5,0,0,0,40.9,22.6ZM36.2,34c-.1,4-7,3.4-9.1,3.4V30.2C29.4,30.3,36.2,29.8,36.2,34ZM34.8,23.9h0c0,3.7-5.7,3.1-7.6,3.1l.2-6.4C29.2,20.6,34.9,20.1,34.8,23.9Z" transform="translate(0 0)" style="fill:#fff;fill-rule:evenodd"/></svg>