<svg id="Layer_1" data-name="Layer 1" xmlns="http://www.w3.org/2000/svg" viewBox="0 0 32 32"><g id="Group_728" data-name="Group 728"><circle id="Ellipse_27" data-name="Ellipse 27" cx="16" cy="16" r="16" style="fill:#28abb9"/><path id="Path_1920" data-name="Path 1920" d="M16.3,22.1,10,21.8V9h6.4l1.9.2,1.5.6a3.2,3.2,0,0,1,1,1,2.2,2.2,0,0,1,.4,1.3,4.1,4.1,0,0,1-.5,1.9,2.4,2.4,0,0,1-1.6.9,2.5,2.5,0,0,1,2,.9,3.3,3.3,0,0,1,.7,2.1,4.7,4.7,0,0,1-.4,1.7,4.9,4.9,0,0,1-1.2,1.3,5.6,5.6,0,0,1-1.7.9A7.8,7.8,0,0,1,16.3,22.1Zm1.4-4.4a1.4,1.4,0,0,0-.2-.7,1,1,0,0,0-.4-.5l-.6-.3H14.1v3h2.5a.9.9,0,0,0,.6-.3c.1-.1.3-.2.3-.4a1.4,1.4,0,0,0,.2-.6Zm-.4-4.9c0-.9-.5-1.3-1.6-1.3H14.2v2.6h2.1l.5-.3a.8.8,0,0,0,.4-.4A.7.7,0,0,0,17.3,12.8Z" style="fill:#fff"/></g></svg>