<svg id="Layer_1" data-name="Layer 1" xmlns="http://www.w3.org/2000/svg" viewBox="0 0 60 60"><path id="eur" d="M30,0A30,30,0,1,0,60,30,30,30,0,0,0,30,0ZM41.2,18.8a17.7,17.7,0,0,0-6.9-1.4c-4.6,0-7.6,2.1-9,6.4H39.2l-1.5,3.8H24.4a11.5,11.5,0,0,0-.1,1.9,17.7,17.7,0,0,0,.1,2.4H36l-1.5,3.7H25.2a11,11,0,0,0,3.7,5.5A10.7,10.7,0,0,0,35,42.6a16.1,16.1,0,0,0,6.2-1.4v4.5a24.2,24.2,0,0,1-7.6,1.2c-7.8,0-12.8-3.8-14.9-11.3H15l1.5-3.7h1.6v-2a18.5,18.5,0,0,1,.1-2.3H15l1.5-3.8h2.4c2.2-7.1,7.2-10.7,15-10.7a29.2,29.2,0,0,1,7.3,1Z" style="fill:#28abb9;fill-rule:evenodd"/><path d="M25.3,23.8H39.2l-1.5,3.8H24.4a11.5,11.5,0,0,0-.1,1.9,17.7,17.7,0,0,0,.1,2.4H36l-1.5,3.7H25.2a11,11,0,0,0,3.7,5.5A10.7,10.7,0,0,0,35,42.6a16.1,16.1,0,0,0,6.2-1.4v4.5a24.2,24.2,0,0,1-7.6,1.2c-7.8,0-12.8-3.8-14.9-11.3H15l1.5-3.7h1.6v-2a18.5,18.5,0,0,1,.1-2.3H15l1.5-3.8h2.4c2.2-7.1,7.2-10.7,15-10.7a29.2,29.2,0,0,1,7.3,1v4.7a17.7,17.7,0,0,0-6.9-1.4C29.7,17.4,26.7,19.5,25.3,23.8Z" style="fill:#fcfcfc;fill-rule:evenodd"/></svg>