<svg id="Layer_1" data-name="Layer 1" xmlns="http://www.w3.org/2000/svg" viewBox="0 0 60 60"><path id="gbp" d="M30,0A30,30,0,1,0,60,30,30,30,0,0,0,30,0Zm9.3,27.8v4.9H26.9v8.1H43v5.1H16.9V42.2l3.9-1.1V32.7H16.9V27.8h3.9V23.4c0-6.9,4.2-11.2,11.4-11.2a12.7,12.7,0,0,1,10.9,5.3l-4.6,3.6c-1.8-2.2-3.5-3.5-6.3-3.5s-5.3,2.3-5.3,5.9v4.3Z" style="fill:#28abb9;fill-rule:evenodd"/><path d="M26.9,40.8H43v5.1H16.9V42.2l3.9-1.1V32.7H16.9V27.8h3.9V23.4c0-6.9,4.2-11.2,11.4-11.2a12.7,12.7,0,0,1,10.9,5.3l-4.6,3.6c-1.8-2.2-3.5-3.5-6.3-3.5s-5.3,2.3-5.3,5.9v4.3H39.3v4.9H26.9Z" style="fill:#fff;fill-rule:evenodd"/></svg>