<svg id="Layer_1" data-name="Layer 1" xmlns="http://www.w3.org/2000/svg" viewBox="0 0 735.5 768.4"><path d="M572.7,492.3c113.9,0,206.3,92.3,206.3,206.2S686.6,904.8,572.7,904.8,366.4,812.5,366.4,698.5s92.4-206.2,206.3-206.2Zm-70-112.5,36.7-3.6c4.2,23.1,16.4,35.6,40.5,35.6,15.8,0,36.4-6.4,36.4-25.6s-32.2-23.6-47.3-27.4c-29.6-7.4-59.2-20.5-59.2-56.1,0-31.7,25-47.1,52.7-51V230.9h31.7v20.9c30,4.1,53.1,20.5,54.3,55.8l-37.7,1.3c-3.3-20.1-14-27-33.8-27-11.5,0-31.4,3.4-31.4,18.3s28.4,21.1,40,23.8c36.2,8.5,68.4,19.3,68.4,62,0,36.8-28.4,53-59.8,56.6v19.7H562.5V442.4c-33.7-4.6-55.2-24-59.8-62.6ZM194.3,553.3l36.7-3.6c4.1,23.1,16.4,35.6,40.5,35.6,15.8,0,36.4-6.4,36.4-25.6s-32.2-23.6-47.3-27.4c-29.6-7.4-59.3-20.5-59.3-56,0-31.8,25.1-47.1,52.8-51.1V404.4h31.7v20.9c30,4.2,53.1,20.5,54.3,55.8l-37.7,1.3c-3.3-20.1-14-27-33.8-27-11.5,0-31.4,3.4-31.4,18.3s28.4,21.1,40,23.9c36.2,8.5,68.4,19.2,68.4,61.9,0,36.9-28.4,53-59.8,56.7v19.6H254.1V615.9c-33.8-4.6-55.2-24-59.8-62.6ZM367,273.3A219.7,219.7,0,0,1,570.3,136.4c121.2,0,219.5,98.2,219.5,219.4a218.3,218.3,0,0,1-58.3,148.8,252,252,0,0,0-45.6-29.8A165.9,165.9,0,1,0,416.6,293.4L367,273.3ZM324.4,733.6a216.2,216.2,0,0,1-50.7,5.9c-121.2,0-219.4-98.2-219.4-219.4s98.2-219.4,219.4-219.4A219.4,219.4,0,0,1,485.6,463.4,250.5,250.5,0,0,0,436.5,488c-15.2-77.7-83.7-133.7-162.8-133.7a165.8,165.8,0,1,0,49.1,324.3,253,253,0,0,0,1.6,55ZM572.7,547.2A151.4,151.4,0,1,1,421.4,698.5,151.3,151.3,0,0,1,572.7,547.2ZM502.6,729.4l34-3.4c3.8,21.4,15.2,33,37.5,33,14.7,0,33.8-5.9,33.8-23.7s-29.9-21.9-43.8-25.4c-27.6-6.9-55-19-55-52,0-29.4,23.2-43.7,48.9-47.3V591.3h29.4v19.4c27.8,3.8,49.2,19,50.3,51.7l-34.9,1.2c-3.1-18.6-13-25.1-31.4-25.1-10.6,0-29.1,3.2-29.1,17.1s26.4,19.5,37.1,22.1c33.5,7.8,63.4,17.8,63.4,57.4,0,34.1-26.3,49.1-55.4,52.5v18.2H558V787.4C526.7,783.2,506.8,765.2,502.6,729.4Z" transform="translate(-54.3 -136.4)" style="fill:#28abb9;fill-rule:evenodd"/></svg>