<svg id="Layer_1" data-name="Layer 1" xmlns="http://www.w3.org/2000/svg" viewBox="0 0 59.9 60"><path id="oil" d="M37.6,33.6a.7.7,0,0,0-.5.4A9.1,9.1,0,0,1,31,39.7a.7.7,0,0,0-.4.5c0,.4.2.7.6.7h0a6.7,6.7,0,0,0,7-6.6h0A.5.5,0,0,0,37.6,33.6Zm0,0a.7.7,0,0,0-.5.4A9.1,9.1,0,0,1,31,39.7a.7.7,0,0,0-.4.5c0,.4.2.7.6.7h0a6.7,6.7,0,0,0,7-6.6h0A.5.5,0,0,0,37.6,33.6Zm20-15.1A30,30,0,1,0,30,60a29.5,29.5,0,0,0,11.7-2.4A30,30,0,0,0,57.6,18.5ZM30.5,44.6a11.4,11.4,0,0,1-9.4-4.5A11.8,11.8,0,0,1,20,38.2a8.9,8.9,0,0,1-.7-3.6v-.3c0-4,1.5-7.9,4.5-12a29.1,29.1,0,0,1,6.3-6.8h.8a31.9,31.9,0,0,1,6.4,6.8c3,4.3,4.5,8.3,4.5,12.3C41.8,40.1,36.7,44.6,30.5,44.6ZM37.1,34A9.1,9.1,0,0,1,31,39.7a.7.7,0,0,0-.4.5c0,.4.2.7.6.7h0a6.7,6.7,0,0,0,7-6.6h0a.5.5,0,0,0-.6-.6A.7.7,0,0,0,37.1,34Z" transform="translate(0 0)" style="fill:#5183bf"/><path d="M37.3,22.3a31.9,31.9,0,0,0-6.4-6.8h-.8a29.1,29.1,0,0,0-6.3,6.8c-3,4.1-4.5,8-4.5,12v.3a8.9,8.9,0,0,0,.7,3.6,11.8,11.8,0,0,0,1.1,1.9,11.4,11.4,0,0,0,9.4,4.5c6.2,0,11.3-4.5,11.3-10C41.8,30.6,40.3,26.6,37.3,22.3Zm.9,11.9h0a6.7,6.7,0,0,1-7,6.6h0c-.4,0-.6-.3-.6-.7a.7.7,0,0,1,.4-.5A9.1,9.1,0,0,0,37.1,34a.7.7,0,0,1,.5-.4.5.5,0,0,1,.6.6Z" transform="translate(0 0)" style="fill:#fff"/></svg>