<svg id="Layer_1" data-name="Layer 1" xmlns="http://www.w3.org/2000/svg" viewBox="0 0 87.7 95"><path d="M68.3,37.2H31.7S6.2,59.1,6.2,84.7c0,14.6,11,21.9,18.2,21.9H75.6c7.3,0,18.3-7.3,18.3-21.9C93.9,59.1,68.3,37.2,68.3,37.2ZM53.7,88v5.8H46.4V88c-5.4-1-8.8-4.3-9-9.1h6.3c.3,2.5,2.8,4.1,6.5,4.1S56,81.4,56,79s-1.5-3.1-5.4-4l-4-.8c-5.7-1.2-8.5-4.2-8.5-9s3.2-8.2,8.2-9.3V50h7.3v5.9c5,1.1,8.2,4.5,8.4,9H55.9c-.3-2.5-2.6-4.1-5.8-4.1s-5.4,1.5-5.4,3.9,1.5,3,5.1,3.8l3.8.8c6.3,1.3,9,4,9,8.9S59.3,86.9,53.7,88Z" transform="translate(-6.2 -11.6)" style="fill:#28abb9"/><path d="M68.3,15.3H58.2a11.1,11.1,0,0,0-15.6-.8l-.8.8H31.7a3.6,3.6,0,0,0-3.6,3.6,5.9,5.9,0,0,0,.2,1.4l3.4,9.6H68.3l3.4-9.6a3.8,3.8,0,0,0-2.1-4.8Z" transform="translate(-6.2 -11.6)" style="fill:#28abb9"/></svg>