<svg id="Layer_1" data-name="Layer 1" xmlns="http://www.w3.org/2000/svg" viewBox="0 0 92.1 95.1"><path d="M77,17.6H22.4v8.7H3.7V40.6A18.7,18.7,0,0,0,22.4,59.3h2.4A27.5,27.5,0,0,0,43.9,74.8V86.5H37.2a3.7,3.7,0,0,0-3.7,3.7v5H27.8v17.5H71.7V95.2H66V90.3a3.7,3.7,0,0,0-3.7-3.7H55.6V74.9A27.1,27.1,0,0,0,74.7,59.4h2.4A18.7,18.7,0,0,0,95.8,40.7V26.4H77ZM22.4,49.9a9.2,9.2,0,0,1-9.2-9.2V35.8h9.2V49.9ZM57.3,96.1v9.4H42.1V96.1Zm-.6-41.5a7.6,7.6,0,0,1-4.3,2.7,1.2,1.2,0,0,0-1,1.4V61c0,.7-.3,1-1,1.1H48c-.7,0-1-.4-1.1-1.1V59.3c0-1.2-.1-1.3-1.2-1.5a15.2,15.2,0,0,1-4.3-1.2c-1.1-.5-1.2-.8-.9-1.9l.7-2.5c.3-1,.6-1.1,1.5-.6A13.3,13.3,0,0,0,47.5,53a6.9,6.9,0,0,0,3.2-.4,2.4,2.4,0,0,0,.6-4.3l-1.8-1.1A43.1,43.1,0,0,1,44.6,45c-2.5-1.5-4.1-3.6-3.9-6.7s2.2-5.6,5.4-6.8c1.3-.5,1.3-.5,1.3-1.8V28.3c0-1,.2-1.2,1.2-1.2h1c2.2,0,2.2,0,2.2,2.2s0,1.6,1.6,1.8a13.3,13.3,0,0,1,3.4,1,1,1,0,0,1,.6,1.3c-.3.9-.5,1.9-.8,2.8s-.6,1-1.4.6a11.2,11.2,0,0,0-5.4-1.1,3.2,3.2,0,0,0-1.4.3,2,2,0,0,0-.5,3.6,7.6,7.6,0,0,0,2.3,1.3l4.3,1.9C58.6,45.4,59.8,50.9,56.7,54.6ZM86.3,35.8v4.9a9.2,9.2,0,0,1-9.2,9.2H77c0-.6.1-1.2.1-1.8V35.8Z" transform="translate(-3.7 -17.6)" style="fill:#28abb9"/></svg>