<svg id="Layer_1" data-name="Layer 1" xmlns="http://www.w3.org/2000/svg" viewBox="0 0 83.7 83.3"><path d="M32.3,44.6H72.9L62.6,54.9a3.5,3.5,0,0,0,0,5.1,3.2,3.2,0,0,0,2.5,1.1A3.3,3.3,0,0,0,67.7,60L84.2,43.6a2.1,2.1,0,0,0,.4-.6c.1,0,.1-.1.1-.2l.3-.4a.4.4,0,0,1,.1-.3c0-.1.1-.2.1-.4s.1-.5.1-.7-.1-.5-.1-.7-.1-.3-.1-.5-.1-.1-.1-.2l-.3-.5a.1.1,0,0,0-.1-.1,2.1,2.1,0,0,0-.4-.6L67.7,21.9a3.6,3.6,0,0,0-5.1,0,3.7,3.7,0,0,0,0,5.2L72.9,37.4H32.3A24.2,24.2,0,0,0,8.1,61.6a3.7,3.7,0,0,0,3.7,3.6,3.6,3.6,0,0,0,3.6-3.6A17,17,0,0,1,32.3,44.6ZM88.2,59.8a3.6,3.6,0,0,0-3.6,3.6,17,17,0,0,1-16.9,17H27.1L37.4,70.1A3.6,3.6,0,0,0,32.3,65L15.8,81.4a2.1,2.1,0,0,0-.4.6h-.1l-.3.5v.2c-.1.2-.2.3-.2.5s-.1.5-.1.7.1.5.1.7.1.3.2.5v.2l.3.5h.1a2.1,2.1,0,0,0,.4.6l16.5,16.5a3.5,3.5,0,0,0,2.6,1,3.5,3.5,0,0,0,2.5-1,3.7,3.7,0,0,0,0-5.2L27.1,87.6H67.7A24.2,24.2,0,0,0,91.9,63.4,3.7,3.7,0,0,0,88.2,59.8Z" transform="translate(-8.1 -20.9)" style="fill:#28abb9"/></svg>