<svg id="Layer_1" data-name="Layer 1" xmlns="http://www.w3.org/2000/svg" viewBox="0 0 60 60"><path id="usd" d="M32.3,32.1V40c2.9-.2,4.5-1.7,4.5-3.8S35.9,33.1,32.3,32.1ZM24.4,21.9c0,1.8.8,3,4.3,4V18.2C25.9,18.4,24.4,20,24.4,21.9Zm7.9,10.2V40c2.9-.2,4.5-1.7,4.5-3.8S35.9,33.1,32.3,32.1ZM24.4,21.9c0,1.8.8,3,4.3,4V18.2C25.9,18.4,24.4,20,24.4,21.9ZM30,0A30,30,0,1,0,60,30,30,30,0,0,0,30,0Zm2.5,44.4v4.4h-4V44.4A22,22,0,0,1,17.8,40l2.9-4a16.5,16.5,0,0,0,8,3.8V31.2c-6.6-1.6-9.7-4-9.7-9s3.9-8,9.5-8.4V11.2h4v2.7A17.5,17.5,0,0,1,41,17.2l-2.5,4.1a16.7,16.7,0,0,0-6.2-2.8v8.3c6.9,1.7,9.9,4.4,9.9,9.1S38.3,43.9,32.5,44.4Zm-.2-12.3V40c2.9-.2,4.5-1.7,4.5-3.8S35.9,33.1,32.3,32.1ZM24.4,21.9c0,1.8.8,3,4.3,4V18.2C25.9,18.4,24.4,20,24.4,21.9Z" style="fill:#28abb9;fill-rule:evenodd"/><path d="M32.3,26.8V18.5a16.7,16.7,0,0,1,6.2,2.8L41,17.2a17.5,17.5,0,0,0-8.5-3.3V11.2h-4v2.6c-5.6.4-9.5,3.7-9.5,8.4s3.1,7.4,9.7,9v8.6a16.5,16.5,0,0,1-8-3.8l-2.9,4a22,22,0,0,0,10.7,4.4v4.4h4V44.4c5.8-.5,9.7-3.7,9.7-8.5S39.2,28.5,32.3,26.8Zm-3.6-.9c-3.5-1-4.3-2.2-4.3-4s1.5-3.5,4.3-3.7ZM32.3,40V32.1c3.6,1,4.5,2.1,4.5,4.1S35.2,39.8,32.3,40Z" style="fill:#fff;fill-rule:evenodd"/></svg>