<svg id="OBJECTS" xmlns="http://www.w3.org/2000/svg" viewBox="0 0 283.1 234.1"><path d="M628.2,284.2h0a93.6,93.6,0,0,1-13.1,33,96.4,96.4,0,0,1-81.5,44.9H468.5a96.3,96.3,0,0,1-69.7-29.8c-.8-.9-1.6-1.7-2.3-2.6a96.9,96.9,0,0,1-21.3-39.5,104.5,104.5,0,0,1-2.8-14.8v-.4a167.9,167.9,0,0,1-.7-26.3c1-18.6,5.7-34.7,14.8-46.7,10.5-13.9,26.9-22.4,50.4-22.6h3c64.8,1,62.6,30.5,115.7,43.5,12.2,2.9,27.2,5,46.5,5.7h1.3C630.6,230.5,633.5,256,628.2,284.2Z" transform="translate(-353.8 -156)" style="fill:#e3f4ff;opacity:0.6000000000000001"/><ellipse cx="138.4" cy="224.6" rx="138.4" ry="9.4" style="fill:#d1e3f1;opacity:0.6000000000000001"/><path d="M551.7,266c2,9.6-6.4,13.8-2.6,20.4s2.3,13.9-4.2,15.8-11.3,2.9-10.3,11-5.7,16-11.9,12.5l-4.8-2.7-1.3-.8h-.3a14.8,14.8,0,0,1-6.4-18.7c1.2-2.8,3.2-5.1,6.5-5.8,10.4-2.1,2.3-9.4,5.6-16.1s11.7-5.6,13.9-11.6C539,261.6,549.7,256.4,551.7,266Z" transform="translate(-353.8 -156)" style="fill:#28abb9"/><path d="M542.9,275.3l-25,47.7-1.3-.8,25-47.6a.7.7,0,0,1,1.3.7Z" transform="translate(-353.8 -156)" style="fill:#0c375a"/><path d="M571.5,302.1c-2.1,10.2-12.1,10.8-11.2,18.9s-3.7,14.7-10.8,13.8-12.4-2-14.9,6.4-12.4,13.2-16.9,7.2l-3.6-4.7-1-1.3-.2-.3a15.9,15.9,0,0,1,1.6-21.1c2.4-2.2,5.4-3.6,8.9-2.9,11.2,2.3,6.3-8.3,12.4-13.4s13.9-.5,18.6-5.5C560.9,292.3,573.7,291.8,571.5,302.1Z" transform="translate(-353.8 -156)" style="fill:#4dd9e1"/><path d="M559,307.5l-44.9,36.2-1-1.3L558,306.2a.8.8,0,0,1,1.1.2A.8.8,0,0,1,559,307.5Z" transform="translate(-353.8 -156)" style="fill:#0c375a"/><path d="M422.3,295.8c-1.2,9.7,7.5,13.2,4.3,20.1s-1.1,14.1,5.4,15.4,11.6,2,11.3,10.1,7,15.4,12.8,11.5l4.6-3.2,1.3-.8.3-.2a14.7,14.7,0,0,0,4.7-19.1,8.9,8.9,0,0,0-7-5.2c-10.5-1.3-3-9.2-6.9-15.6s-12.1-4.6-14.8-10.4C434.6,290.4,423.5,286.1,422.3,295.8Z" transform="translate(-353.8 -156)" style="fill:#28abb9"/><path d="M431.8,304.4l28.9,45.3,1.3-.8-28.9-45.4a.9.9,0,0,0-1.1-.2A.9.9,0,0,0,431.8,304.4Z" transform="translate(-353.8 -156)" style="fill:#0c375a"/><path d="M405.5,333.4c3,10.1,13,9.8,12.8,17.9s4.9,14.4,12,12.9,12.1-3,15.3,5.1,13.5,12.2,17.5,5.8l3.2-5.1.9-1.3.2-.4a15.8,15.8,0,0,0-3.5-20.8c-2.6-2-5.6-3.1-9.1-2.1-10.9,3.2-7-7.8-13.4-12.4s-13.9.7-19-3.8C415.3,322.9,402.5,323.4,405.5,333.4Z" transform="translate(-353.8 -156)" style="fill:#4dd9e1"/><path d="M418.5,337.8,466.3,370l.9-1.3-47.8-32.3a.8.8,0,0,0-1.1.3A.7.7,0,0,0,418.5,337.8Z" transform="translate(-353.8 -156)" style="fill:#0c375a"/><path d="M467.8,192.8c3.1-12.4,3.8-24.8-2.9-22.7s-7.5,23.4-.9,38.4l1,5.7c-4.6-11-15.5-21.4-20.9-18.9s2.5,8.8,10.6,13.3a33.2,33.2,0,0,1,10.9,9l4.8,26.7c-7.3-17.4-24.5-33.7-33-29.7s3.9,13.8,16.8,20.9c9.7,5.4,14.9,11.2,17.2,14.4l1,5.3h2.8l-5.7-31.7a36.8,36.8,0,0,1,6.1-9.7c6.1-7,11.2-15.6,5.3-16.1s-10.7,9.6-12.4,20l-2-11A51.9,51.9,0,0,1,467.8,192.8Z" transform="translate(-353.8 -156)" style="fill:#4dd9e1"/><path d="M621.2,352.8l5.2,6.9a11,11,0,0,1-4.8,5.4l-6.1-7.9Z" transform="translate(-353.8 -156)" style="fill:#fda893"/><path d="M622.5,363s-2.4-.5-3.2.3-2.9,12.1-4.9,14.6.1,3.8,1.2,4.3,18.2-16.5,18.2-16.5-4.2-5.8-6.2-6.9S624.6,361.8,622.5,363Z" transform="translate(-353.8 -156)" style="fill:#4dd9e1"/><path d="M589.7,364.6l-.7,8.6a11.3,11.3,0,0,1-7.2.8l.7-9.9Z" transform="translate(-353.8 -156)" style="fill:#fda893"/><path d="M583.4,372.8s-1.5-2-2.8-2-10.7,7.4-13.9,8-2.6,2.9-2.1,4.2,25.6.5,25.6.5.9-8.1.1-10.4S585.9,373.4,583.4,372.8Z" transform="translate(-353.8 -156)" style="fill:#4dd9e1"/><path d="M594.5,271.9l5.2,43a137.7,137.7,0,0,1,9.1,14.3c3.7,6.8,13.6,24.4,13.6,24.4l-6,4.6-32.8-34.1-6.9-55.5Z" transform="translate(-353.8 -156)" style="fill:#001f37"/><path d="M615,358.1a6.1,6.1,0,0,0,2.7,3l7-5.9a10.8,10.8,0,0,0-2.4-3.2Z" transform="translate(-353.8 -156)" style="fill:#0c375a"/><path d="M615.6,271.9s-3.8,24.6-15.8,42.3c0,0-1.8,17.3-4.9,26.5-1.3,4-3.9,23-3.9,23l-9.2-.4,3.4-51.3,8.6-40.1Z" transform="translate(-353.8 -156)" style="fill:#0c375a"/><path d="M581,363a7.5,7.5,0,0,0,0,4.7l10.6.3a14.1,14.1,0,0,0,.4-4.6Z" transform="translate(-353.8 -156)" style="fill:#005986"/><path d="M584.9,195.6s-8.2,18.5-12.3,25.2l-13.9,7.5-5.6,3.1-.4,6.8s23.8-4.4,29.9-8.7a97.7,97.7,0,0,0,5.4-22.1Z" transform="translate(-353.8 -156)" style="fill:#28abb9"/><polygon points="263.2 118.9 263.8 88.2 268.2 42 257.6 38.4 257 38.2 254.6 37.4 245.9 38.6 241.6 38.2 239.8 38.5 239.1 38.5 231.1 39.6 221.6 116.3 263.2 118.9" style="fill:#4dd9e1"/><polygon points="247 46.8 246.6 92.9 240 104.1 236.2 91.6 245.1 46.8 247 46.8" style="fill:#ededed"/><polygon points="249 44.2 245.8 48.3 242.9 42.5 245.9 38.6 249 44.2" style="fill:#fff"/><path d="M613.9,169.3c0,7.3-4.5,12.4-11.9,12.4s-12.4-5.5-12.4-12.8,4.3-12.9,11.6-12.9C610.1,156,613.9,161.9,613.9,169.3Z" transform="translate(-353.8 -156)" style="fill:#0c375a"/><path d="M612.2,172.4s2.1-2.7,3.6-.5-.6,8.9-4.4,7.3Z" transform="translate(-353.8 -156)" style="fill:#fd896b"/><path d="M612.3,177.2l.3-.3c.5-2,2.7-2.8,2.7-2.9s.2-.2.2-.4-.3-.2-.4-.1a5,5,0,0,0-3.1,3.3c-.1.1,0,.3.2.4Z" transform="translate(-353.8 -156)" style="fill:#d65c48"/><path d="M614.4,176.1h.2a.4.4,0,0,0,.1-.5,3.8,3.8,0,0,0-1.2-.9c-.2-.1-.4,0-.4.2s0,.3.1.4a1.8,1.8,0,0,1,.9.7Z" transform="translate(-353.8 -156)" style="fill:#d65c48"/><path d="M591.2,172.4s-2-2.7-3.6-.5.7,8.9,4.4,7.3Z" transform="translate(-353.8 -156)" style="fill:#fd896b"/><path d="M591.2,177.2a.3.3,0,0,1-.3-.3c-.6-2-2.7-2.8-2.7-2.9s-.3-.2-.2-.4.2-.2.4-.1a5.2,5.2,0,0,1,3.1,3.3l-.2.4Z" transform="translate(-353.8 -156)" style="fill:#d65c48"/><path d="M589,176.1h-.1c-.2-.1-.2-.3-.1-.5a4.2,4.2,0,0,1,1.1-.9.4.4,0,0,1,.5.2.4.4,0,0,1-.2.4,1.8,1.8,0,0,0-.9.7Z" transform="translate(-353.8 -156)" style="fill:#d65c48"/><path d="M596.7,184.9v6.9s1.4,2.9,4,3.2,5.7-2.8,5.7-2.8v-6.9Z" transform="translate(-353.8 -156)" style="fill:#fda893"/><path d="M596.7,184.9v2.9c1.8,2,5,2.5,9.7,1.8v-4.3Z" transform="translate(-353.8 -156)" style="fill:#fd896b"/><path d="M613.3,172.3a4.9,4.9,0,0,1-.1,1.2c-.1.9-.2,2-.4,3h0c-.9,4.8-2.9,9.6-7.2,11.2-9.7,3.4-13.2-4.9-14.6-9.8a8,8,0,0,1-.4-1.8h0a18.5,18.5,0,0,1-.4-2.3c-.1-.6-.1-1.2-.2-1.8l-.3-4.2a7.1,7.1,0,0,1,4.4-6.8c4-1.5,10.1-2.7,15.8.5a6.7,6.7,0,0,1,3.5,5.9A40,40,0,0,1,613.3,172.3Z" transform="translate(-353.8 -156)" style="fill:#fda893"/><path d="M612.1,172.5a62.9,62.9,0,0,1-1.9,6.3c-2.2-2.2-8.5,0-8.5,0s-7.1-2.5-8.4.6c-.8-1.5-1.4-4.7-1.8-6.9l-1.5-.4c.1.6.1,1.2.2,1.8a18.5,18.5,0,0,0,.4,2.3h0a8,8,0,0,0,.4,1.8c1.4,4.9,4.9,13.2,14.6,9.8,4.3-1.6,6.3-6.4,7.2-11.2h0c.2-1,.3-2.1.4-3a4.9,4.9,0,0,0,.1-1.2Zm-4.5,10.6a10.2,10.2,0,0,1-7.9,1.6,8.2,8.2,0,0,1-4.4-2.6c.2-1.5,1.5-2.8,6.6-2.1C608.1,178.4,607.8,181.9,607.6,183.1Z" transform="translate(-353.8 -156)" style="fill:#0c375a"/><path d="M605,172.8c0,.7.4,1.3.8,1.3s.9-.6.9-1.3-.4-1.3-.9-1.3S605,172.1,605,172.8Z" transform="translate(-353.8 -156)" style="fill:#0c375a"/><path d="M595.6,172.8c0,.7.4,1.3.8,1.3s.8-.6.8-1.3-.3-1.3-.8-1.3S595.6,172.1,595.6,172.8Z" transform="translate(-353.8 -156)" style="fill:#0c375a"/><path d="M594.1,168.4a6.9,6.9,0,0,1,4.6-.1l-.2,1.1a12.3,12.3,0,0,0-4.4.3A2.8,2.8,0,0,1,594.1,168.4Z" transform="translate(-353.8 -156)" style="fill:#0c375a"/><path d="M609,168.4a6.6,6.6,0,0,0-4.5-.1l.2,1.1a12.3,12.3,0,0,1,4.4.3A2,2,0,0,0,609,168.4Z" transform="translate(-353.8 -156)" style="fill:#0c375a"/><path d="M601.4,178.3a2,2,0,0,0,1.2-.1c.1,0,.2-.2.2-.3s-.2-.3-.4-.3a1.9,1.9,0,0,1-1.3,0,.4.4,0,0,1-.1-.3,46.9,46.9,0,0,1,.8-4.8.3.3,0,0,0-.3-.3c-.1-.1-.3,0-.3.2a31,31,0,0,0-.8,4.9,1.2,1.2,0,0,0,.3.8Z" transform="translate(-353.8 -156)" style="fill:#fd896b"/><path d="M605.7,180.2c-.3,1.3-1.1,3.7-4,3.7s-3.7-2.2-4-3.7Z" transform="translate(-353.8 -156)" style="fill:#fff"/><path d="M590.1,172.5h1.4a8.5,8.5,0,0,1,.8-4.3c.9-2.6-1.1-3.8.5-5.1s5.9-.7,8.8-.8a55.9,55.9,0,0,1,8.7.2c1.2.2.5,2.1.1,3.6s1.4,3.1,1.7,4.6a5.4,5.4,0,0,1,0,1.8h1.2a43.7,43.7,0,0,0,.1-5,6.7,6.7,0,0,0-3.5-5.9c-5.7-3.2-11.8-2-15.8-.5a7.1,7.1,0,0,0-4.4,6.8C589.8,169.3,589.9,170.9,590.1,172.5Z" transform="translate(-353.8 -156)" style="fill:#0c375a"/><path d="M596.4,177.2a3.8,3.8,0,1,1,3.8-3.8A3.8,3.8,0,0,1,596.4,177.2Zm0-6.9a3.2,3.2,0,0,0,0,6.3,3.2,3.2,0,1,0,0-6.3Z" transform="translate(-353.8 -156)" style="fill:#fff"/><path d="M606.7,177.2a3.8,3.8,0,1,1,0-7.5,3.8,3.8,0,0,1,0,7.5Zm0-6.9a3.2,3.2,0,1,0,3.1,3.1A3.1,3.1,0,0,0,606.7,170.3Z" transform="translate(-353.8 -156)" style="fill:#fff"/><path d="M593.3,172.2h-.2a4.7,4.7,0,0,0-3.9-1.1l-.4-.2a.5.5,0,0,1,.2-.4,5.3,5.3,0,0,1,4.5,1.3.3.3,0,0,1,0,.4Z" transform="translate(-353.8 -156)" style="fill:#fff"/><path d="M609.8,172.2h-.2a.2.2,0,0,1,.1-.4c.1-.1,2.7-1.8,5-1.4.1,0,.2.2.2.3a.3.3,0,0,1-.3.3c-2-.4-4.6,1.3-4.6,1.3Z" transform="translate(-353.8 -156)" style="fill:#fff"/><path d="M603.1,172.6a2.4,2.4,0,0,0-1.6-.9,2.1,2.1,0,0,0-1.5.9l-.5-.3a2.5,2.5,0,0,1,2-1.2,2.7,2.7,0,0,1,2.1,1.2Z" transform="translate(-353.8 -156)" style="fill:#fff"/><path d="M606.4,188.3l1.1,1.1a4.5,4.5,0,0,1,1,4.2l-.2.5h0l-3.5,9.7-5.1-9.2S604.7,192.7,606.4,188.3Z" transform="translate(-353.8 -156)" style="fill:#28abb9"/><path d="M596.7,188.8a6.8,6.8,0,0,0-1.8,5.4l.6,5.8,4.2-5.4S597.1,193.3,596.7,188.8Z" transform="translate(-353.8 -156)" style="fill:#28abb9"/><path d="M622.8,227.7a35.9,35.9,0,0,1-20.3,46.6,35.2,35.2,0,0,1-7.7,2.1,38.7,38.7,0,0,1-9.6.2,40.2,40.2,0,0,1-8.3-2l-2.4-1a34.1,34.1,0,0,1-9.4-6.2,12.1,12.1,0,0,1-1.6-1.6,35.3,35.3,0,0,1-7.6-11.8l-.5-1.2a36,36,0,0,1,20.8-45.4,37.5,37.5,0,0,1,13.5-2.5l2.6.2a36.9,36.9,0,0,1,10.9,2.6l2.2,1.1a35.4,35.4,0,0,1,7.3,4.8,36.3,36.3,0,0,1,6.2,6.8,39.9,39.9,0,0,1,3.4,6.1Z" transform="translate(-353.8 -156)" style="fill:#ffce4f"/><path d="M616.1,230.4l.4,1.2a28.7,28.7,0,0,1-53.4,21l-.5-1.2a28.7,28.7,0,0,1,53.5-21Z" transform="translate(-353.8 -156)" style="fill:#fa8a00"/><path d="M616.5,231.6a28.6,28.6,0,0,1-16.7,36l-.9.4a30.9,30.9,0,0,1-9.8,1.6,28.5,28.5,0,0,1-9.6-1.7l-2.2-1a29.2,29.2,0,0,1-9.1-6.5l-1.7-2.1a33,33,0,0,1-3.4-5.7,28.8,28.8,0,0,1,16.7-36,28.1,28.1,0,0,1,5.5-1.5l2.8-.4a28.6,28.6,0,0,1,11.3,1.4l2.3.9a28.3,28.3,0,0,1,8,5.2,29.2,29.2,0,0,1,5.9,7.5Z" transform="translate(-353.8 -156)" style="fill:#ffac00"/><path d="M599,254.6l1.8,4.4-5.7,2.2-1.6-4.2c-4.1,1.3-8.4,1.8-11.4,1.2l.3-8a21.2,21.2,0,0,0,10.3-1.1c2.6-1.1,3.4-2,3-3-1.4-3.5-15.7,5.4-19.9-5-1.7-4.5.1-9.6,6.3-13.1l-1.8-4.4,5.7-2.2,1.7,4.3a21.6,21.6,0,0,1,9-.9v8a18.5,18.5,0,0,0-8.7,1c-2.7,1.1-3.3,2.2-2.9,3.2,1.3,3.3,15.7-5.6,19.7,4.8C606.4,246.1,604.8,251.1,599,254.6Z" transform="translate(-353.8 -156)" style="fill:#fa8a00"/><path d="M598.3,253.2l1.7,4.4-5.6,2.2-1.7-4.2c-4.1,1.3-8.4,1.8-11.4,1.2l.4-8a20.9,20.9,0,0,0,10.2-1.1c2.7-1.1,3.4-2,3.1-3-1.4-3.5-15.8,5.4-19.9-5-1.8-4.5,0-9.6,6.2-13.1l-1.7-4.4,5.6-2.2,1.7,4.3a22.3,22.3,0,0,1,9.1-.9l-.2,8a18.1,18.1,0,0,0-8.6,1c-2.8,1-3.3,2.2-3,3.2,1.4,3.3,15.7-5.6,19.8,4.7C605.7,244.7,604.1,249.7,598.3,253.2Z" transform="translate(-353.8 -156)" style="fill:#ffce4f"/><path d="M603.2,270.3c-.2-.5.9-2,2-3.4h-.1c-1.8,1.7-4.8,4.5-5.1,3.4s2.3-3.2,3.9-4.7l-.3-.2c-1.9,1.7-5.6,4.9-5.9,3.6s3.1-3.7,4.8-5.1l-.2-.3c-1.6,1.4-4.9,3.9-5.2,2.6s5-4.7,5-4.7h0l1.8-1.6s-.5-.7-2.2-.2-3.1-.1-1.2-1.2,4.4-1.7,5.9-2.6,3.6-.1,3.6-.1l3.8,2.7s-3.5,7-7,9.2h0C605.4,269.3,603.5,271.2,603.2,270.3Z" transform="translate(-353.8 -156)" style="fill:#fda893"/><path d="M621.9,198s12.4,17.5,14.9,33.4c0,0-.9,10.6-23.5,28a8.7,8.7,0,0,1-4.8-4s13.7-15.6,18.3-25.1l-10.5-19.8S616.6,202.2,621.9,198Z" transform="translate(-353.8 -156)" style="fill:#4dd9e1"/><path d="M554.4,232.3l-1.1-1s.1-3.3,1.4-3.9a1,1,0,0,1,1.2.3Z" transform="translate(-353.8 -156)" style="fill:#fd896b"/><path d="M548,234.8a3.9,3.9,0,0,1,1.1-4.2,3.7,3.7,0,0,1,2.9-.8c3.7.3,6.6,1.7,6.2,3.2s-2.3,1-3.9.6a16.1,16.1,0,0,0,3.8.7c2,.1,1.6,2.6-.9,2.6a10.6,10.6,0,0,1-2.9-.3,10.3,10.3,0,0,0,3.2.6c1.3-.1,1.3,1.8-1.1,1.9h-2.3l2.4.3c.9.1,1.6,1.1-.1,1.6s-5,1.3-6-.4A51,51,0,0,1,548,234.8Z" transform="translate(-353.8 -156)" style="fill:#fda893"/><path d="M523.7,375.2h0a5.1,5.1,0,0,1-2,3.7l-1,.8a17.5,17.5,0,0,1-3.9,2.1l-1,.4-3.8,1.3-1.1.3-3.8.9-1,.2-3.9.7h-1l-3.9.4h-1l-3.9.3H481.7l-2.9-.2h-2l-3.9-.4h-1l-2.4-.4-1.5-.2-1-.2-3.8-.9-.8-.2h-.3l-1.6-.5-2.2-.7-1-.4-3.5-1.8-.4-.3-.5-.3-.5-.4c-1.5-1.3-2.3-2.6-2.3-4v-8.1h73.5v8.1Z" transform="translate(-353.8 -156)" style="fill:#ffac00"/><path d="M453.4,367.2V380l-.5-.3-.5-.4V367.2Z" transform="translate(-353.8 -156)" style="fill:#fa8a00"/><path d="M458.3,367.2v15.3l-1-.4V367.2Z" transform="translate(-353.8 -156)" style="fill:#fa8a00"/><path d="M463.2,367.2V384l-.8-.2h-.3V367.2Z" transform="translate(-353.8 -156)" style="fill:#fa8a00"/><path d="M468,367.2v17.9l-1-.2V367.2Z" transform="translate(-353.8 -156)" style="fill:#fa8a00"/><path d="M472.9,367.1v18.7h-1V367.1Z" transform="translate(-353.8 -156)" style="fill:#fa8a00"/><path d="M477.8,367.1v19.2h-1V367.1Z" transform="translate(-353.8 -156)" style="fill:#fa8a00"/><path d="M482.7,367.1v19.5h-1V367.1Z" transform="translate(-353.8 -156)" style="fill:#fa8a00"/><path d="M487.6,367.1v19.6h-1.1V367.1Z" transform="translate(-353.8 -156)" style="fill:#fa8a00"/><path d="M492.4,367.1v19.5h-1V367.1Z" transform="translate(-353.8 -156)" style="fill:#fa8a00"/><path d="M497.3,367.1v19.1h-1V367.1Z" transform="translate(-353.8 -156)" style="fill:#fa8a00"/><path d="M502.2,367.1v18.6h-1V367.1Z" transform="translate(-353.8 -156)" style="fill:#fa8a00"/><path d="M507.1,367.1v17.7l-1,.2V367.1Z" transform="translate(-353.8 -156)" style="fill:#fa8a00"/><path d="M512,367.1v16.5l-1.1.3V367.1Z" transform="translate(-353.8 -156)" style="fill:#fa8a00"/><path d="M516.8,367.1v14.8l-1,.4V367.1Z" transform="translate(-353.8 -156)" style="fill:#fa8a00"/><path d="M521.7,367.1V379l-1,.8V367.1Z" transform="translate(-353.8 -156)" style="fill:#fa8a00"/><path d="M523.6,367.2c0,5.7-16.4,10.4-36.7,10.4l-8.1-.2c-3.3-.2-6.4-.6-9.2-1s-5-.9-7.2-1.4l-1.9-.5a33.2,33.2,0,0,1-6.7-2.7l-.9-.6c-1.8-1.3-2.8-2.6-2.8-4v-.4c.8-5.6,16.9-10.1,36.8-10.1a119.3,119.3,0,0,1,13.8.8l2.4.3a70.8,70.8,0,0,1,9.4,1.9l1.7.5a25.5,25.5,0,0,1,5.2,2.1,11.4,11.4,0,0,1,3.3,2.5,4,4,0,0,1,.9,2Z" transform="translate(-353.8 -156)" style="fill:#ffce4f"/><path d="M516.3,367.2a.8.8,0,0,1-.1.4c-.7,4.4-13.6,7.9-29.3,7.9s-28.7-3.5-29.4-7.9v-.4c0-4.6,13.2-8.4,29.4-8.4S516.3,362.6,516.3,367.2Z" transform="translate(-353.8 -156)" style="fill:#fa8a00"/><path d="M516.2,367.6c-.7,4.4-13.6,7.9-29.3,7.9h-1.1a77.4,77.4,0,0,1-9.9-.6,75.7,75.7,0,0,1-8.4-1.5l-1.9-.5a22,22,0,0,1-6.1-2.7l-.9-.8a3.5,3.5,0,0,1-1.1-1.8c.7-4.5,13.6-8,29.4-8a55.2,55.2,0,0,1,5.8.2l2.8.2a67.1,67.1,0,0,1,10.2,1.5l1.9.5a25.9,25.9,0,0,1,5.7,2.3,6.5,6.5,0,0,1,2.8,2.6C516.1,367.1,516.2,367.3,516.2,367.6Z" transform="translate(-353.8 -156)" style="fill:#ffac00"/><path d="M516.1,366.9l-30.3,8.6a77.4,77.4,0,0,1-9.9-.6l37.4-10.6A6.5,6.5,0,0,1,516.1,366.9Z" transform="translate(-353.8 -156)" style="fill:#fff;opacity:0.2"/><path d="M495.5,360l-36,10.2-.9-.8,34.1-9.6Z" transform="translate(-353.8 -156)" style="fill:#fff;opacity:0.2"/><path d="M507.6,362l-40.1,11.4-1.9-.5,40.1-11.4Z" transform="translate(-353.8 -156)" style="fill:#fff;opacity:0.2"/><path d="M491,371.9v1.4h-6.2V372a78.1,78.1,0,0,1-11.3-.9l3.3-2.2a64.9,64.9,0,0,0,10.2.8c2.9,0,4-.1,4-.4s-17.1-.2-17.1-3.5c0-1.4,3.7-2.6,10.9-2.9v-1.4H491v1.4a74.9,74.9,0,0,1,8.9.7l-3.1,2.1a66.7,66.7,0,0,0-8.6-.6c-3,0-4,.2-4,.5s17,.2,17,3.4C501.2,370.4,497.8,371.6,491,371.9Z" transform="translate(-353.8 -156)" style="fill:#fa8a00"/><path d="M490.8,371.4v1.4h-6.2v-1.3a78.1,78.1,0,0,1-11.3-.9l3.3-2.1a64.9,64.9,0,0,0,10.2.8c2.9,0,4-.2,4-.5s-17-.2-17-3.5c0-1.4,3.6-2.6,10.8-2.8v-1.4h6.2v1.3c3.2.1,6.4.4,8.9.7l-3.1,2.2a52.4,52.4,0,0,0-8.6-.7c-3,0-4,.3-4,.6s17,.2,17,3.4C501,369.9,497.6,371.1,490.8,371.4Z" transform="translate(-353.8 -156)" style="fill:#ffce4f"/><path d="M526,362.3h0a5.1,5.1,0,0,1-2,3.7l-1,.8a15.1,15.1,0,0,1-3.8,2.1l-1.1.5-3.8,1.2-1,.3a27.4,27.4,0,0,1-3.9.9l-1,.2-3.9.7h-1l-3.9.4h-1l-3.9.3H484l-2.9-.2h-2l-3.9-.4-1-.2-2.3-.3-1.6-.3-1-.2-3.8-.9-.7-.2h-.4l-1.6-.4-2.2-.8-1-.4-3.5-1.8-.4-.3-.5-.3-.5-.4a5.3,5.3,0,0,1-2.3-4v-8.1H526v8.1Z" transform="translate(-353.8 -156)" style="fill:#ffac00"/><path d="M455.7,354.3v12.8l-.5-.3-.5-.4V354.3Z" transform="translate(-353.8 -156)" style="fill:#fa8a00"/><path d="M460.6,354.3v15.3l-1-.4V354.3Z" transform="translate(-353.8 -156)" style="fill:#fa8a00"/><path d="M465.5,354.3v16.8l-.7-.2h-.4V354.3Z" transform="translate(-353.8 -156)" style="fill:#fa8a00"/><path d="M470.3,354.3v17.9l-1-.2V354.3Z" transform="translate(-353.8 -156)" style="fill:#fa8a00"/><path d="M475.2,354.3V373l-1-.2V354.3Z" transform="translate(-353.8 -156)" style="fill:#fa8a00"/><path d="M480.1,354.3v19.2h-1V354.3Z" transform="translate(-353.8 -156)" style="fill:#fa8a00"/><path d="M485,354.3v19.4h-1V354.3Z" transform="translate(-353.8 -156)" style="fill:#fa8a00"/><path d="M489.9,354.2v19.6h-1V354.2Z" transform="translate(-353.8 -156)" style="fill:#fa8a00"/><path d="M494.7,354.2v19.5h-1V354.2Z" transform="translate(-353.8 -156)" style="fill:#fa8a00"/><path d="M499.6,354.2v19.1h-1V354.2Z" transform="translate(-353.8 -156)" style="fill:#fa8a00"/><path d="M504.5,354.2v18.6h-1V354.2Z" transform="translate(-353.8 -156)" style="fill:#fa8a00"/><path d="M509.4,354.2v17.7l-1,.2V354.2Z" transform="translate(-353.8 -156)" style="fill:#fa8a00"/><path d="M514.3,354.2v16.5l-1,.3V354.2Z" transform="translate(-353.8 -156)" style="fill:#fa8a00"/><path d="M519.2,354.2V369l-1.1.5V354.2Z" transform="translate(-353.8 -156)" style="fill:#fa8a00"/><path d="M524,354.2v11.9l-1,.8V354.2Z" transform="translate(-353.8 -156)" style="fill:#fa8a00"/><path d="M526,354.3c0,5.8-16.5,10.4-36.8,10.4l-8.1-.2c-3.3-.2-6.4-.6-9.2-1s-5-.9-7.1-1.4l-2-.5a29.9,29.9,0,0,1-6.6-2.7l-1-.6c-1.8-1.2-2.8-2.6-2.8-4a.6.6,0,0,1,.1-.4c.7-5.6,16.8-10.1,36.7-10.1a119.3,119.3,0,0,1,13.8.8l2.4.3a70.8,70.8,0,0,1,9.4,1.9l1.7.5a25.5,25.5,0,0,1,5.2,2.1,11.4,11.4,0,0,1,3.3,2.5,4,4,0,0,1,.9,2C525.9,354,526,354.2,526,354.3Z" transform="translate(-353.8 -156)" style="fill:#ffce4f"/><path d="M518.6,354.3a.8.8,0,0,1-.1.4c-.7,4.4-13.6,7.9-29.3,7.9s-28.7-3.5-29.4-7.9v-.4c0-4.6,13.2-8.4,29.4-8.4S518.6,349.7,518.6,354.3Z" transform="translate(-353.8 -156)" style="fill:#fa8a00"/><path d="M518.5,354.7c-.7,4.4-13.6,7.9-29.3,7.9h-1.1a77.4,77.4,0,0,1-9.9-.6,46.9,46.9,0,0,1-8.4-1.5l-1.8-.4a21.3,21.3,0,0,1-6.2-2.8l-.9-.7a3.8,3.8,0,0,1-1.1-1.9c.7-4.5,13.6-8,29.4-8l5.8.2,2.8.2a69.8,69.8,0,0,1,10.3,1.6l1.8.4a29.1,29.1,0,0,1,5.7,2.3,6.5,6.5,0,0,1,2.8,2.6A2,2,0,0,1,518.5,354.7Z" transform="translate(-353.8 -156)" style="fill:#ffac00"/><path d="M518.4,354l-30.3,8.6a77.4,77.4,0,0,1-9.9-.6l37.4-10.6A6.5,6.5,0,0,1,518.4,354Z" transform="translate(-353.8 -156)" style="fill:#fff;opacity:0.2"/><path d="M497.8,347.1l-36,10.2-.9-.7,34.1-9.7Z" transform="translate(-353.8 -156)" style="fill:#fff;opacity:0.2"/><path d="M509.9,349.1l-40.1,11.4-1.8-.4,40.1-11.4Z" transform="translate(-353.8 -156)" style="fill:#fff;opacity:0.2"/><path d="M493.3,359v1.4h-6.2v-1.3a78.1,78.1,0,0,1-11.3-.9l3.3-2.1a64.9,64.9,0,0,0,10.2.8c2.9,0,4-.2,4-.5s-17-.2-17-3.5c0-1.4,3.6-2.6,10.8-2.9v-1.3h6.2V350a74.9,74.9,0,0,1,8.9.7l-3.1,2.2a53.3,53.3,0,0,0-8.6-.7c-3,0-4,.3-4,.6s17,.1,17,3.4C503.5,357.5,500.1,358.7,493.3,359Z" transform="translate(-353.8 -156)" style="fill:#fa8a00"/><path d="M493.1,358.6V360h-6.2v-1.4a80.3,80.3,0,0,1-11.3-.8l3.3-2.2a64.9,64.9,0,0,0,10.2.8c2.9,0,4-.2,4-.5s-17-.2-17-3.4c0-1.5,3.6-2.6,10.8-2.9v-1.4h6.2v1.3a71.6,71.6,0,0,1,8.9.8l-3.1,2.1a65.5,65.5,0,0,0-8.6-.6c-3,0-4,.2-4,.5s17,.2,17,3.4C503.3,357.1,499.9,358.2,493.1,358.6Z" transform="translate(-353.8 -156)" style="fill:#ffce4f"/><path d="M525.6,349.5h0a5.2,5.2,0,0,1-1.9,3.6l-1,.8a17.9,17.9,0,0,1-3.9,2.1l-1,.5-3.9,1.3-1,.3-3.8.9-1.1.2-3.8.6h-1l-3.9.5h-1l-3.9.3H483.6l-2.8-.2h-2l-3.9-.4-1-.2-2.4-.3-1.5-.3-1-.2a24.6,24.6,0,0,1-3.9-.9h-1l-1.6-.5-2.3-.8-1-.4a21.5,21.5,0,0,1-3.4-1.7l-.4-.3-.5-.4-.6-.4a5.5,5.5,0,0,1-2.2-3.9v-8.2h73.5v8.2Z" transform="translate(-353.8 -156)" style="fill:#ffac00"/><path d="M455.4,341.4v12.9l-.5-.4-.6-.4V341.4Z" transform="translate(-353.8 -156)" style="fill:#fa8a00"/><path d="M460.2,341.4v15.3l-1-.4V341.4Z" transform="translate(-353.8 -156)" style="fill:#fa8a00"/><path d="M465.1,341.4v16.8h-1V341.4Z" transform="translate(-353.8 -156)" style="fill:#fa8a00"/><path d="M470,341.4v17.9l-1-.2V341.4Z" transform="translate(-353.8 -156)" style="fill:#fa8a00"/><path d="M474.9,341.4v18.7l-1-.2V341.4Z" transform="translate(-353.8 -156)" style="fill:#fa8a00"/><path d="M479.8,341.4v19.2h-1V341.4Z" transform="translate(-353.8 -156)" style="fill:#fa8a00"/><path d="M484.7,341.4v19.4h-1.1V341.4Z" transform="translate(-353.8 -156)" style="fill:#fa8a00"/><path d="M489.5,341.4v19.5h-1V341.4Z" transform="translate(-353.8 -156)" style="fill:#fa8a00"/><path d="M494.4,341.4v19.4h-1V341.4Z" transform="translate(-353.8 -156)" style="fill:#fa8a00"/><path d="M499.3,341.3v19.2h-1V341.4Z" transform="translate(-353.8 -156)" style="fill:#fa8a00"/><path d="M504.2,341.3v18.6h-1V341.3Z" transform="translate(-353.8 -156)" style="fill:#fa8a00"/><path d="M509.1,341.3v17.8l-1.1.2v-18Z" transform="translate(-353.8 -156)" style="fill:#fa8a00"/><path d="M513.9,341.3v16.6l-1,.3V341.3Z" transform="translate(-353.8 -156)" style="fill:#fa8a00"/><path d="M518.8,341.3v14.8l-1,.5V341.3Z" transform="translate(-353.8 -156)" style="fill:#fa8a00"/><path d="M523.7,341.3v11.9l-1,.8V341.3Z" transform="translate(-353.8 -156)" style="fill:#fa8a00"/><path d="M525.6,341.4c0,5.8-16.4,10.5-36.7,10.5q-4.2,0-8.1-.3a85.5,85.5,0,0,1-9.3-1,68.7,68.7,0,0,1-7.1-1.4l-1.9-.5a31,31,0,0,1-6.7-2.7l-.9-.6c-1.8-1.2-2.8-2.6-2.8-4V341c.7-5.6,16.9-10,36.8-10a121.3,121.3,0,0,1,13.8.7l2.4.3a84.1,84.1,0,0,1,9.3,1.9l1.8.5a44.2,44.2,0,0,1,5.1,2.1,12,12,0,0,1,3.4,2.5,4.5,4.5,0,0,1,.9,2Z" transform="translate(-353.8 -156)" style="fill:#ffce4f"/><path d="M518.2,341.4v.4c-.7,4.4-13.6,8-29.3,8s-28.7-3.6-29.4-8v-.4c0-4.6,13.1-8.3,29.4-8.3S518.2,336.8,518.2,341.4Z" transform="translate(-353.8 -156)" style="fill:#fa8a00"/><path d="M518.2,341.8c-.7,4.4-13.6,8-29.3,8h-1.1a79.1,79.1,0,0,1-10-.6,61.2,61.2,0,0,1-8.4-1.4l-1.8-.5a19.3,19.3,0,0,1-6.1-2.8,3.5,3.5,0,0,1-.9-.7,3.8,3.8,0,0,1-1.1-1.9c.7-4.4,13.6-8,29.4-8l5.8.2,2.8.2a66.3,66.3,0,0,1,10.2,1.6l1.9.5a26.1,26.1,0,0,1,5.7,2.2,5.8,5.8,0,0,1,2.7,2.7A1.4,1.4,0,0,1,518.2,341.8Z" transform="translate(-353.8 -156)" style="fill:#ffac00"/><path d="M518,341.2l-30.2,8.5a79.1,79.1,0,0,1-10-.6l37.5-10.6A5.8,5.8,0,0,1,518,341.2Z" transform="translate(-353.8 -156)" style="fill:#fff;opacity:0.2"/><path d="M497.5,334.2l-36,10.2a3.5,3.5,0,0,1-.9-.7l34.1-9.7Z" transform="translate(-353.8 -156)" style="fill:#fff;opacity:0.2"/><path d="M509.6,336.3l-40.2,11.4-1.8-.5,40.1-11.4Z" transform="translate(-353.8 -156)" style="fill:#fff;opacity:0.2"/><path d="M492.9,346.1v1.4h-6.2v-1.3a79.4,79.4,0,0,1-11.3-.9l3.4-2.1a63.6,63.6,0,0,0,10.1.8c3,0,4-.2,4-.5s-17-.2-17-3.5c0-1.4,3.6-2.6,10.8-2.8v-1.4h6.2v1.3a73.4,73.4,0,0,1,9,.8l-3.2,2.1a51.2,51.2,0,0,0-8.5-.7c-3.1,0-4,.3-4,.6s17,.2,17,3.4C503.2,344.6,499.8,345.8,492.9,346.1Z" transform="translate(-353.8 -156)" style="fill:#fa8a00"/><path d="M492.8,345.7v1.4h-6.2v-1.4a80.3,80.3,0,0,1-11.3-.8l3.3-2.2a64.9,64.9,0,0,0,10.2.8c2.9,0,4-.2,4-.5s-17.1-.2-17.1-3.4c0-1.4,3.6-2.6,10.9-2.9v-1.4h6.2v1.4a74.9,74.9,0,0,1,8.9.7l-3.1,2.1a66.7,66.7,0,0,0-8.6-.6c-3,0-4,.2-4,.5s17,.2,17,3.4C503,344.2,499.6,345.3,492.8,345.7Z" transform="translate(-353.8 -156)" style="fill:#ffce4f"/><path d="M523.8,337.9h0a5.4,5.4,0,0,1-1.9,3.7l-1.1.8a15.1,15.1,0,0,1-3.8,2.1l-1,.4-3.9,1.3-1,.3a22.3,22.3,0,0,1-3.9.9l-1,.2-3.9.7h-1l-3.8.4h-1.1l-3.8.3H481.8l-2.9-.2h-2l-3.8-.4-1.1-.2-2.3-.3-1.5-.3-1-.2-3.9-.9-.7-.2h-.3l-1.6-.4-2.3-.8-1-.4A26.3,26.3,0,0,1,454,343l-.5-.3-.5-.3-.5-.4a5.3,5.3,0,0,1-2.3-4,.4.4,0,0,1,.1-.3v-7.8h73.5v8.1Z" transform="translate(-353.8 -156)" style="fill:#ffac00"/><path d="M453.5,329.9v12.8l-.5-.3-.5-.4V329.9Z" transform="translate(-353.8 -156)" style="fill:#fa8a00"/><path d="M458.4,329.9v15.3l-1-.4V329.9Z" transform="translate(-353.8 -156)" style="fill:#fa8a00"/><path d="M463.3,329.9v16.8l-.7-.2h-.3V329.9Z" transform="translate(-353.8 -156)" style="fill:#fa8a00"/><path d="M468.2,329.9v17.9l-1-.2V329.9Z" transform="translate(-353.8 -156)" style="fill:#fa8a00"/><path d="M473.1,329.9v18.7l-1.1-.2V329.9Z" transform="translate(-353.8 -156)" style="fill:#fa8a00"/><path d="M477.9,329.9v19.2h-1V329.9Z" transform="translate(-353.8 -156)" style="fill:#fa8a00"/><path d="M482.8,329.9v19.4h-1V329.9Z" transform="translate(-353.8 -156)" style="fill:#fa8a00"/><path d="M487.7,329.8v19.6h-1V329.8Z" transform="translate(-353.8 -156)" style="fill:#fa8a00"/><path d="M492.6,329.8v19.5h-1V329.8Z" transform="translate(-353.8 -156)" style="fill:#fa8a00"/><path d="M497.5,329.8v19.1h-1.1V329.8Z" transform="translate(-353.8 -156)" style="fill:#fa8a00"/><path d="M502.3,329.8v18.6h-1V329.8Z" transform="translate(-353.8 -156)" style="fill:#fa8a00"/><path d="M507.2,329.8v17.7l-1,.2V329.8Z" transform="translate(-353.8 -156)" style="fill:#fa8a00"/><path d="M512.1,329.8v16.5l-1,.3V329.8Z" transform="translate(-353.8 -156)" style="fill:#fa8a00"/><path d="M517,329.8v14.8l-1,.4V329.8Z" transform="translate(-353.8 -156)" style="fill:#fa8a00"/><path d="M521.9,329.8v11.9l-1.1.8V329.8Z" transform="translate(-353.8 -156)" style="fill:#fa8a00"/><path d="M523.8,329.9c0,5.8-16.5,10.4-36.8,10.4l-8.1-.2c-3.2-.2-6.3-.6-9.2-1s-5-.9-7.1-1.4l-1.9-.5a31,31,0,0,1-6.7-2.7l-1-.6c-1.8-1.2-2.7-2.6-2.7-4v-.4c.7-5.6,16.9-10.1,36.7-10.1a118,118,0,0,1,13.8.8l2.5.3a69.1,69.1,0,0,1,9.3,1.9l1.8.5a24.5,24.5,0,0,1,5.1,2.1,10.1,10.1,0,0,1,3.3,2.5,3.5,3.5,0,0,1,1,2Z" transform="translate(-353.8 -156)" style="fill:#ffce4f"/><path d="M516.4,329.9v.4c-.7,4.4-13.6,7.9-29.4,7.9s-28.6-3.5-29.3-7.9a.8.8,0,0,1-.1-.4c0-4.6,13.2-8.4,29.4-8.4S516.4,325.3,516.4,329.9Z" transform="translate(-353.8 -156)" style="fill:#fa8a00"/><path d="M516.4,330.3c-.7,4.4-13.6,7.9-29.4,7.9h-1a79.1,79.1,0,0,1-10-.6,48.6,48.6,0,0,1-8.4-1.5l-1.8-.4a22.7,22.7,0,0,1-6.2-2.8l-.9-.7a3.5,3.5,0,0,1-1-1.9c.7-4.5,13.6-8,29.3-8l5.8.2,2.9.2a68.4,68.4,0,0,1,10.2,1.6l1.8.4a26.7,26.7,0,0,1,5.7,2.3,6.5,6.5,0,0,1,2.8,2.6A6.4,6.4,0,0,0,516.4,330.3Z" transform="translate(-353.8 -156)" style="fill:#ffac00"/><path d="M516.2,329.6,486,338.2a79.1,79.1,0,0,1-10-.6L513.4,327A6.5,6.5,0,0,1,516.2,329.6Z" transform="translate(-353.8 -156)" style="fill:#fff;opacity:0.2"/><path d="M495.7,322.7l-36.1,10.2-.9-.7,34.1-9.7Z" transform="translate(-353.8 -156)" style="fill:#fff;opacity:0.2"/><path d="M507.7,324.7l-40.1,11.4-1.8-.4,40.1-11.4Z" transform="translate(-353.8 -156)" style="fill:#fff;opacity:0.2"/><path d="M491.1,334.6V336h-6.2v-1.3a78.1,78.1,0,0,1-11.3-.9l3.3-2.1a64.9,64.9,0,0,0,10.2.8c3,0,4-.2,4-.5s-17-.2-17-3.5c0-1.4,3.6-2.6,10.8-2.9v-1.3h6.2v1.3a73.2,73.2,0,0,1,8.9.7l-3.1,2.2a52.4,52.4,0,0,0-8.6-.7c-3,0-4,.3-4,.6s17.1.1,17.1,3.4C501.4,333.1,497.9,334.3,491.1,334.6Z" transform="translate(-353.8 -156)" style="fill:#fa8a00"/><path d="M490.9,334.2v1.3h-6.2v-1.3a81.5,81.5,0,0,1-11.3-.8l3.4-2.2a63.6,63.6,0,0,0,10.1.8c3,0,4-.2,4-.5s-17-.2-17-3.4c0-1.5,3.6-2.6,10.8-2.9v-1.4h6.2v1.3a73.4,73.4,0,0,1,9,.8l-3.2,2.1a65.2,65.2,0,0,0-8.5-.6c-3.1,0-4,.2-4,.5s17,.2,17,3.4C501.2,332.7,497.7,333.8,490.9,334.2Z" transform="translate(-353.8 -156)" style="fill:#ffce4f"/><path d="M523.5,324.3v.2a5.2,5.2,0,0,1-1.9,3.6l-1,.8a17.9,17.9,0,0,1-3.9,2.1l-1,.5-3.9,1.3-1,.2a22.3,22.3,0,0,1-3.9.9l-1,.2-3.8.7H501l-3.8.4h-1l-3.9.3H481.5l-2.8-.2h-2.1l-3.8-.4-1-.2-2.4-.3-1.5-.3-1-.2a37.5,37.5,0,0,1-3.9-.9l-.7-.2H462l-1.6-.5-2.3-.8-1-.4a21.6,21.6,0,0,1-3.4-1.8l-.4-.2-.6-.4-.5-.4a5.5,5.5,0,0,1-2.2-3.9v-8.2h73.5v8.1Z" transform="translate(-353.8 -156)" style="fill:#ffac00"/><path d="M453.3,316.3v12.9l-.6-.4-.5-.4V316.3Z" transform="translate(-353.8 -156)" style="fill:#fa8a00"/><path d="M458.1,316.3v15.3l-1-.4V316.3Z" transform="translate(-353.8 -156)" style="fill:#fa8a00"/><path d="M463,316.3v16.8l-.7-.2H462V316.3Z" transform="translate(-353.8 -156)" style="fill:#fa8a00"/><path d="M467.9,316.3v17.9l-1-.2V316.3Z" transform="translate(-353.8 -156)" style="fill:#fa8a00"/><path d="M472.8,316.3V335l-1-.2V316.3Z" transform="translate(-353.8 -156)" style="fill:#fa8a00"/><path d="M477.7,316.3v19.2h-1.1V316.3Z" transform="translate(-353.8 -156)" style="fill:#fa8a00"/><path d="M482.5,316.3v19.4h-1V316.3Z" transform="translate(-353.8 -156)" style="fill:#fa8a00"/><path d="M487.4,316.3v19.5h-1V316.3Z" transform="translate(-353.8 -156)" style="fill:#fa8a00"/><path d="M492.3,316.2v19.5h-1V316.2Z" transform="translate(-353.8 -156)" style="fill:#fa8a00"/><path d="M497.2,316.2v19.1h-1V316.2Z" transform="translate(-353.8 -156)" style="fill:#fa8a00"/><path d="M502.1,316.2v18.6H501V316.2Z" transform="translate(-353.8 -156)" style="fill:#fa8a00"/><path d="M506.9,316.2v17.7l-1,.2V316.2Z" transform="translate(-353.8 -156)" style="fill:#fa8a00"/><path d="M511.8,316.2v16.6l-1,.2V316.2Z" transform="translate(-353.8 -156)" style="fill:#fa8a00"/><path d="M516.7,316.2V331l-1,.5V316.2Z" transform="translate(-353.8 -156)" style="fill:#fa8a00"/><path d="M521.6,316.2v11.9l-1,.8V316.2Z" transform="translate(-353.8 -156)" style="fill:#fa8a00"/><path d="M523.5,316.3c0,5.8-16.4,10.4-36.8,10.4-2.7,0-5.4,0-8-.2s-6.4-.6-9.3-1l-7.1-1.4-1.9-.5a31,31,0,0,1-6.7-2.7l-.9-.6c-1.8-1.2-2.8-2.6-2.8-4v-.4c.7-5.6,16.9-10,36.7-10a121.9,121.9,0,0,1,13.9.7l2.4.3a69.1,69.1,0,0,1,9.3,1.9l1.8.5a44.2,44.2,0,0,1,5.1,2.1,10.1,10.1,0,0,1,3.3,2.5,3.8,3.8,0,0,1,1,2Z" transform="translate(-353.8 -156)" style="fill:#ffce4f"/><path d="M516.1,316.3v.4c-.7,4.4-13.6,7.9-29.4,7.9s-28.6-3.5-29.3-7.9v-.4c0-4.6,13.1-8.3,29.3-8.3S516.1,311.7,516.1,316.3Z" transform="translate(-353.8 -156)" style="fill:#fa8a00"/><path d="M516.1,316.7c-.7,4.4-13.6,7.9-29.4,7.9h-1a79.1,79.1,0,0,1-10-.6,61.2,61.2,0,0,1-8.4-1.4l-1.8-.5a19.3,19.3,0,0,1-6.1-2.8,3.5,3.5,0,0,1-.9-.7,3.8,3.8,0,0,1-1.1-1.9c.7-4.4,13.6-8,29.3-8l5.9.2,2.8.2a68.4,68.4,0,0,1,10.2,1.6l1.9.5a26.1,26.1,0,0,1,5.7,2.2,5.8,5.8,0,0,1,2.7,2.7A1.4,1.4,0,0,1,516.1,316.7Z" transform="translate(-353.8 -156)" style="fill:#ffac00"/><path d="M515.9,316.1l-30.2,8.5a79.1,79.1,0,0,1-10-.6l37.5-10.6A5.8,5.8,0,0,1,515.9,316.1Z" transform="translate(-353.8 -156)" style="fill:#fff;opacity:0.2"/><path d="M495.4,309.1l-36,10.2a3.5,3.5,0,0,1-.9-.7l34.1-9.7Z" transform="translate(-353.8 -156)" style="fill:#fff;opacity:0.2"/><path d="M507.5,311.2l-40.2,11.4-1.8-.5,40.1-11.4Z" transform="translate(-353.8 -156)" style="fill:#fff;opacity:0.2"/><path d="M490.8,321v1.4h-6.2v-1.3a79.4,79.4,0,0,1-11.3-.9l3.4-2.1a63.6,63.6,0,0,0,10.1.8c3,0,4-.2,4-.5s-17-.2-17-3.5c0-1.4,3.6-2.6,10.8-2.9v-1.3h6.2V312a75,75,0,0,1,9,.7l-3.2,2.2a52.1,52.1,0,0,0-8.5-.7c-3.1,0-4,.3-4,.6s17,.2,17,3.4C501.1,319.5,497.6,320.7,490.8,321Z" transform="translate(-353.8 -156)" style="fill:#fa8a00"/><path d="M490.6,320.6V322h-6.2v-1.4a81.5,81.5,0,0,1-11.3-.8l3.4-2.2a64.6,64.6,0,0,0,10.1.8c3,0,4-.2,4-.5s-17-.2-17-3.4c0-1.4,3.6-2.6,10.8-2.9v-1.4h6.2v1.4a58.8,58.8,0,0,1,9,.7l-3.1,2.1a66.7,66.7,0,0,0-8.6-.6c-3.1,0-4,.2-4,.5s17,.2,17,3.4C500.9,319.1,497.5,320.2,490.6,320.6Z" transform="translate(-353.8 -156)" style="fill:#ffce4f"/><path d="M525.7,312.2h0a5,5,0,0,1-1.9,3.6l-1,.8a23.6,23.6,0,0,1-3.9,2.2l-1,.4a35.6,35.6,0,0,1-3.9,1.3l-1,.3-3.8.9-1.1.2-3.8.6h-1l-3.9.5h-1l-3.9.2H478.9l-3.9-.4h-1l-2.4-.4-1.5-.3-1-.2-3.9-.8-.7-.2h-.3l-1.6-.5-2.3-.8-1-.4a21.5,21.5,0,0,1-3.4-1.7l-.4-.3-.5-.4-.6-.4a5.3,5.3,0,0,1-2.2-3.9v-8.2h73.5v8.2Z" transform="translate(-353.8 -156)" style="fill:#ffac00"/><path d="M455.5,304.1V317l-.5-.4-.6-.4V304.1Z" transform="translate(-353.8 -156)" style="fill:#fa8a00"/><path d="M460.3,304.1v15.3l-1-.4V304.1Z" transform="translate(-353.8 -156)" style="fill:#fa8a00"/><path d="M465.2,304.1V321l-.7-.2h-.3V304.1Z" transform="translate(-353.8 -156)" style="fill:#fa8a00"/><path d="M470.1,304.1V322l-1-.2V304.1Z" transform="translate(-353.8 -156)" style="fill:#fa8a00"/><path d="M475,304.1v18.7h-1V304.1Z" transform="translate(-353.8 -156)" style="fill:#fa8a00"/><path d="M479.9,304.1v19.2h-1V304.1Z" transform="translate(-353.8 -156)" style="fill:#fa8a00"/><path d="M484.7,304.1v19.5h-1V304.1Z" transform="translate(-353.8 -156)" style="fill:#fa8a00"/><path d="M489.6,304.1v19.5h-1V304.1Z" transform="translate(-353.8 -156)" style="fill:#fa8a00"/><path d="M494.5,304.1v19.4h-1V304.1Z" transform="translate(-353.8 -156)" style="fill:#fa8a00"/><path d="M499.4,304.1v19.1h-1V304.1Z" transform="translate(-353.8 -156)" style="fill:#fa8a00"/><path d="M504.3,304.1v18.5h-1V304.1Z" transform="translate(-353.8 -156)" style="fill:#fa8a00"/><path d="M509.2,304.1v17.7l-1.1.2V304.1Z" transform="translate(-353.8 -156)" style="fill:#fa8a00"/><path d="M514,304v16.6l-1,.3V304Z" transform="translate(-353.8 -156)" style="fill:#fa8a00"/><path d="M518.9,304v14.9l-1,.4V304Z" transform="translate(-353.8 -156)" style="fill:#fa8a00"/><path d="M523.8,304v11.9l-1,.8V304Z" transform="translate(-353.8 -156)" style="fill:#fa8a00"/><path d="M525.7,304.1c0,5.8-16.4,10.5-36.7,10.5q-4.2,0-8.1-.3a85.5,85.5,0,0,1-9.3-1,49.6,49.6,0,0,1-7.1-1.4l-1.9-.5a31,31,0,0,1-6.7-2.7l-.9-.6c-1.8-1.2-2.8-2.6-2.8-4v-.4c.7-5.5,16.9-10,36.8-10,4.8,0,9.5.3,13.8.7l2.4.4a69.9,69.9,0,0,1,9.3,1.8l1.8.5a44.2,44.2,0,0,1,5.1,2.1,14.3,14.3,0,0,1,3.4,2.5,5,5,0,0,1,.9,2Z" transform="translate(-353.8 -156)" style="fill:#ffce4f"/><path d="M518.3,304.1v.4c-.7,4.4-13.6,8-29.3,8s-28.7-3.6-29.4-8v-.4c0-4.6,13.1-8.3,29.4-8.3S518.3,299.5,518.3,304.1Z" transform="translate(-353.8 -156)" style="fill:#fa8a00"/><path d="M518.3,304.5c-.7,4.4-13.6,8-29.3,8h-1.1c-3.5-.1-6.9-.3-10-.6a80.1,80.1,0,0,1-8.4-1.5l-1.8-.5a22,22,0,0,1-6.1-2.7,3.6,3.6,0,0,1-.9-.8,3.4,3.4,0,0,1-1.1-1.9c.7-4.4,13.6-8,29.4-8l5.8.2,2.8.2a66.3,66.3,0,0,1,10.2,1.6l1.9.5a26.1,26.1,0,0,1,5.7,2.2,6.3,6.3,0,0,1,2.7,2.7A1.4,1.4,0,0,1,518.3,304.5Z" transform="translate(-353.8 -156)" style="fill:#ffac00"/><path d="M518.1,303.9l-30.2,8.6c-3.5-.1-6.9-.3-10-.6l37.5-10.7A6.3,6.3,0,0,1,518.1,303.9Z" transform="translate(-353.8 -156)" style="fill:#fff;opacity:0.2"/><path d="M497.6,296.9l-36,10.3a3.6,3.6,0,0,1-.9-.8l34.1-9.7Z" transform="translate(-353.8 -156)" style="fill:#fff;opacity:0.2"/><path d="M509.7,299l-40.2,11.4-1.8-.5,40.1-11.4Z" transform="translate(-353.8 -156)" style="fill:#fff;opacity:0.2"/><path d="M493,308.9v1.3h-6.2v-1.3a81.5,81.5,0,0,1-11.3-.8l3.4-2.2a63.6,63.6,0,0,0,10.1.8c3,0,4-.2,4-.5s-17-.2-17-3.4c0-1.5,3.6-2.6,10.8-2.9v-1.4H493v1.3a73.4,73.4,0,0,1,9,.8l-3.2,2.1a65.2,65.2,0,0,0-8.5-.6c-3.1,0-4,.2-4,.5s17,.2,17,3.4C503.3,307.4,499.9,308.5,493,308.9Z" transform="translate(-353.8 -156)" style="fill:#fa8a00"/><path d="M492.9,308.4v1.4h-6.2v-1.3a78.1,78.1,0,0,1-11.3-.9l3.3-2.2a64.9,64.9,0,0,0,10.2.8c2.9,0,4-.1,4-.4s-17.1-.2-17.1-3.5c0-1.4,3.6-2.6,10.9-2.9V298h6.2v1.4a74.9,74.9,0,0,1,8.9.7l-3.1,2.1a66.7,66.7,0,0,0-8.6-.6c-3,0-4,.2-4,.5s17,.2,17,3.4C503.1,306.9,499.7,308.1,492.9,308.4Z" transform="translate(-353.8 -156)" style="fill:#ffce4f"/><path d="M523.4,300.7h0a5,5,0,0,1-1.9,3.7l-1,.8a23.5,23.5,0,0,1-3.9,2.1l-1,.4-3.9,1.3-1,.3-3.8.9-1.1.2-3.8.7h-1l-3.9.4h-1l-3.9.3H481.4l-2.8-.2h-2l-3.9-.5h-1l-2.4-.3-1.5-.3-1-.2-3.9-.9-.7-.2h-.3l-1.6-.4-2.2-.8-1.1-.4-3.4-1.8-.4-.3-.5-.3-.5-.4c-1.5-1.3-2.3-2.6-2.3-4v-8.1h73.5v8.1Z" transform="translate(-353.8 -156)" style="fill:#ffac00"/><path d="M453.2,292.7v12.8l-.5-.3-.5-.4V292.7Z" transform="translate(-353.8 -156)" style="fill:#fa8a00"/><path d="M458.1,292.7V308l-1.1-.4V292.7Z" transform="translate(-353.8 -156)" style="fill:#fa8a00"/><path d="M462.9,292.7v16.8l-.7-.2h-.3V292.7Z" transform="translate(-353.8 -156)" style="fill:#fa8a00"/><path d="M467.8,292.7v17.9l-1-.2V292.7Z" transform="translate(-353.8 -156)" style="fill:#fa8a00"/><path d="M472.7,292.7v18.6h-1V292.7Z" transform="translate(-353.8 -156)" style="fill:#fa8a00"/><path d="M477.6,292.6v19.2h-1V292.6Z" transform="translate(-353.8 -156)" style="fill:#fa8a00"/><path d="M482.5,292.6v19.5h-1.1V292.6Z" transform="translate(-353.8 -156)" style="fill:#fa8a00"/><path d="M487.3,292.6v19.6h-1V292.6Z" transform="translate(-353.8 -156)" style="fill:#fa8a00"/><path d="M492.2,292.6v19.5h-1V292.6Z" transform="translate(-353.8 -156)" style="fill:#fa8a00"/><path d="M497.1,292.6v19.1h-1V292.6Z" transform="translate(-353.8 -156)" style="fill:#fa8a00"/><path d="M502,292.6v18.6h-1V292.6Z" transform="translate(-353.8 -156)" style="fill:#fa8a00"/><path d="M506.9,292.6v17.7l-1.1.2V292.6Z" transform="translate(-353.8 -156)" style="fill:#fa8a00"/><path d="M511.7,292.6v16.5l-1,.3V292.6Z" transform="translate(-353.8 -156)" style="fill:#fa8a00"/><path d="M516.6,292.6v14.8l-1,.4V292.6Z" transform="translate(-353.8 -156)" style="fill:#fa8a00"/><path d="M521.5,292.6v11.9l-1,.8V292.6Z" transform="translate(-353.8 -156)" style="fill:#fa8a00"/><path d="M523.4,292.7c0,5.7-16.4,10.4-36.7,10.4l-8.1-.2c-3.3-.2-6.4-.6-9.3-1l-7.1-1.4-1.9-.5a33.2,33.2,0,0,1-6.7-2.7l-.9-.6c-1.8-1.3-2.8-2.6-2.8-4v-.4c.7-5.6,16.9-10.1,36.8-10.1a119.3,119.3,0,0,1,13.8.8l2.4.3a70.8,70.8,0,0,1,9.4,1.9l1.7.5a28.1,28.1,0,0,1,5.2,2.1,12.9,12.9,0,0,1,3.3,2.5,4,4,0,0,1,.9,2Z" transform="translate(-353.8 -156)" style="fill:#ffce4f"/><path d="M516.1,292.7c0,.1-.1.2-.1.4-.7,4.4-13.6,7.9-29.3,7.9s-28.7-3.5-29.4-7.9v-.4c0-4.6,13.2-8.4,29.4-8.4S516.1,288.1,516.1,292.7Z" transform="translate(-353.8 -156)" style="fill:#fa8a00"/><path d="M516,293.1c-.7,4.4-13.6,7.9-29.3,7.9h-1.1a79.1,79.1,0,0,1-10-.6,48.6,48.6,0,0,1-8.4-1.5l-1.8-.5a19.4,19.4,0,0,1-6.1-2.7,2.4,2.4,0,0,1-.9-.8,3.5,3.5,0,0,1-1.1-1.8c.7-4.5,13.6-8,29.4-8l5.8.2,2.8.2a56,56,0,0,1,10.2,1.6l1.9.4a25.9,25.9,0,0,1,5.7,2.3,6.2,6.2,0,0,1,2.7,2.6A1.9,1.9,0,0,1,516,293.1Z" transform="translate(-353.8 -156)" style="fill:#ffac00"/><path d="M515.8,292.4,485.6,301a79.1,79.1,0,0,1-10-.6l37.5-10.6A6.2,6.2,0,0,1,515.8,292.4Z" transform="translate(-353.8 -156)" style="fill:#fff;opacity:0.2"/><path d="M495.3,285.5l-36,10.2a2.4,2.4,0,0,1-.9-.8l34.1-9.6Z" transform="translate(-353.8 -156)" style="fill:#fff;opacity:0.2"/><path d="M507.4,287.5l-40.2,11.4-1.8-.5,40.1-11.3Z" transform="translate(-353.8 -156)" style="fill:#fff;opacity:0.2"/><path d="M490.8,297.4v1.4h-6.2v-1.3a81,81,0,0,1-11.4-.9l3.4-2.1a79.7,79.7,0,0,0,10.2.8c2.9,0,4-.2,4-.5s-17.1-.2-17.1-3.5c0-1.4,3.6-2.6,10.9-2.9v-1.3h6.2v1.3a74.9,74.9,0,0,1,8.9.7l-3.1,2.2a53.3,53.3,0,0,0-8.6-.7c-3.1,0-4,.3-4,.6s17,.1,17,3.4C501,295.9,497.6,297.1,490.8,297.4Z" transform="translate(-353.8 -156)" style="fill:#fa8a00"/><path d="M490.6,297v1.3h-6.2V297a78.1,78.1,0,0,1-11.3-.9l3.3-2.1a64.9,64.9,0,0,0,10.2.8c2.9,0,4-.2,4-.5s-17-.2-17-3.5c0-1.4,3.6-2.6,10.8-2.8v-1.4h6.2v1.3a73.5,73.5,0,0,1,8.9.8l-3.1,2.1a67.7,67.7,0,0,0-8.6-.7c-3,0-4,.3-4,.6s17,.2,17,3.4C500.8,295.4,497.4,296.6,490.6,297Z" transform="translate(-353.8 -156)" style="fill:#ffce4f"/><path d="M524.2,288.1h0a5.1,5.1,0,0,1-2,3.7l-1,.8a25.9,25.9,0,0,1-3.8,2.1l-1.1.4a28,28,0,0,1-3.8,1.3l-1,.3-3.9.9-1,.2-3.9.6-1,.2-3.9.4h-1l-3.9.2H482.2l-2.9-.2h-2l-3.9-.4h-1l-2.3-.4-1.6-.2-1-.2-3.8-.9-.8-.2h-.3l-1.6-.5-2.2-.8-1-.4a22.8,22.8,0,0,1-3.5-1.7l-.4-.3-.5-.3-.5-.5a5.1,5.1,0,0,1-2.3-3.9v-8.1h73.6v8.1Z" transform="translate(-353.8 -156)" style="fill:#ffac00"/><path d="M453.9,280.1v12.8l-.5-.3-.5-.5v-12Z" transform="translate(-353.8 -156)" style="fill:#fa8a00"/><path d="M458.8,280.1v15.2l-1-.4V280.1Z" transform="translate(-353.8 -156)" style="fill:#fa8a00"/><path d="M463.7,280v16.9l-.8-.2h-.3V280Z" transform="translate(-353.8 -156)" style="fill:#fa8a00"/><path d="M468.5,280v18l-1-.2V280Z" transform="translate(-353.8 -156)" style="fill:#fa8a00"/><path d="M473.4,280v18.7h-1V280Z" transform="translate(-353.8 -156)" style="fill:#fa8a00"/><path d="M478.3,280v19.2h-1V280Z" transform="translate(-353.8 -156)" style="fill:#fa8a00"/><path d="M483.2,280v19.5h-1V280Z" transform="translate(-353.8 -156)" style="fill:#fa8a00"/><path d="M488.1,280v19.6H487V280Z" transform="translate(-353.8 -156)" style="fill:#fa8a00"/><path d="M492.9,280v19.4h-1V280Z" transform="translate(-353.8 -156)" style="fill:#fa8a00"/><path d="M497.8,280v19.1h-1V280Z" transform="translate(-353.8 -156)" style="fill:#fa8a00"/><path d="M502.7,280v18.5l-1,.2V280Z" transform="translate(-353.8 -156)" style="fill:#fa8a00"/><path d="M507.6,280v17.7l-1,.2V280Z" transform="translate(-353.8 -156)" style="fill:#fa8a00"/><path d="M512.5,280v16.5l-1,.3V280Z" transform="translate(-353.8 -156)" style="fill:#fa8a00"/><path d="M517.4,280v14.8l-1.1.4V280Z" transform="translate(-353.8 -156)" style="fill:#fa8a00"/><path d="M522.2,280v11.9l-1,.8V280Z" transform="translate(-353.8 -156)" style="fill:#fa8a00"/><path d="M524.2,280.1c0,5.7-16.5,10.4-36.8,10.4q-4.2,0-8.1-.3c-3.3-.2-6.4-.5-9.2-.9s-5-.9-7.1-1.4l-2-.6a25.8,25.8,0,0,1-6.6-2.7l-1-.6c-1.8-1.2-2.8-2.5-2.8-3.9s0-.3.1-.4c.7-5.6,16.8-10.1,36.7-10.1a119.3,119.3,0,0,1,13.8.8l2.4.3a70.8,70.8,0,0,1,9.4,1.9l1.7.5a25.5,25.5,0,0,1,5.2,2.1,9.9,9.9,0,0,1,3.3,2.5,4,4,0,0,1,.9,2C524.1,279.8,524.2,279.9,524.2,280.1Z" transform="translate(-353.8 -156)" style="fill:#ffce4f"/><path d="M516.8,280.1a.4.4,0,0,1-.1.3c-.7,4.5-13.6,8-29.3,8s-28.7-3.5-29.4-8v-.3c0-4.6,13.2-8.4,29.4-8.4S516.8,275.5,516.8,280.1Z" transform="translate(-353.8 -156)" style="fill:#fa8a00"/><path d="M516.7,280.4c-.7,4.5-13.6,8-29.3,8h-1.1c-3.5,0-6.8-.3-9.9-.6a75.7,75.7,0,0,1-8.4-1.5l-1.9-.5a22,22,0,0,1-6.1-2.7l-.9-.8a3.4,3.4,0,0,1-1.1-1.9c.7-4.4,13.6-7.9,29.4-7.9h5.8l2.8.2a86.2,86.2,0,0,1,10.3,1.6l1.8.5a24,24,0,0,1,5.7,2.3,6.5,6.5,0,0,1,2.8,2.6A1.3,1.3,0,0,1,516.7,280.4Z" transform="translate(-353.8 -156)" style="fill:#ffac00"/><path d="M516.6,279.8l-30.3,8.6c-3.5,0-6.8-.3-9.9-.6l37.4-10.6A6.5,6.5,0,0,1,516.6,279.8Z" transform="translate(-353.8 -156)" style="fill:#fff;opacity:0.2"/><path d="M496,272.8l-36,10.3-.9-.8,34.1-9.7Z" transform="translate(-353.8 -156)" style="fill:#fff;opacity:0.2"/><path d="M508.1,274.9,468,286.3l-1.9-.5,40.2-11.4Z" transform="translate(-353.8 -156)" style="fill:#fff;opacity:0.2"/><path d="M491.5,284.8v1.4h-6.2v-1.3A95.7,95.7,0,0,1,474,284l3.3-2.2a64.9,64.9,0,0,0,10.2.8c2.9,0,4-.1,4-.4s-17-.3-17-3.5c0-1.4,3.6-2.6,10.8-2.9v-1.4h6.2v1.4a74.9,74.9,0,0,1,8.9.7l-3.1,2.1a66.7,66.7,0,0,0-8.6-.6c-3,0-4,.2-4,.5s17,.2,17,3.4C501.7,283.3,498.3,284.5,491.5,284.8Z" transform="translate(-353.8 -156)" style="fill:#fa8a00"/><path d="M491.3,284.3v1.4h-6.2v-1.3a78.1,78.1,0,0,1-11.3-.9l3.3-2.1a64.9,64.9,0,0,0,10.2.8c2.9,0,4-.2,4-.5s-17-.2-17-3.5c0-1.4,3.6-2.6,10.8-2.9V274h6.2v1.3a74.9,74.9,0,0,1,8.9.7l-3.1,2.2a52.4,52.4,0,0,0-8.6-.7c-3,0-4,.3-4,.6s17,.1,17,3.4C501.5,282.8,498.1,284,491.3,284.3Z" transform="translate(-353.8 -156)" style="fill:#ffce4f"/><path d="M522.8,275.9h0a5,5,0,0,1-1.9,3.6l-1,.9a34.4,34.4,0,0,1-3.9,2.1l-1,.4-3.9,1.3-1,.3-3.9.9-1,.2-3.8.6-1.1.2-3.8.4h-1l-3.9.2H475.9l-3.8-.4h-1l-2.4-.4-1.5-.2-1-.2-3.9-.9-.7-.2h-.3l-1.6-.5-2.3-.8-1-.4A21.5,21.5,0,0,1,453,281l-.4-.3-.6-.4-.5-.4a5.3,5.3,0,0,1-2.2-3.9v-8.1h73.5v8.2Z" transform="translate(-353.8 -156)" style="fill:#ffac00"/><path d="M452.6,267.8v12.9l-.6-.4-.5-.4v-12Z" transform="translate(-353.8 -156)" style="fill:#fa8a00"/><path d="M457.4,267.8v15.3l-1-.4V267.8Z" transform="translate(-353.8 -156)" style="fill:#fa8a00"/><path d="M462.3,267.8v16.9l-.7-.2h-.3V267.8Z" transform="translate(-353.8 -156)" style="fill:#fa8a00"/><path d="M467.2,267.8v18l-1-.2V267.8Z" transform="translate(-353.8 -156)" style="fill:#fa8a00"/><path d="M472.1,267.8v18.7h-1V267.8Z" transform="translate(-353.8 -156)" style="fill:#fa8a00"/><path d="M477,267.8V287h-1.1V267.8Z" transform="translate(-353.8 -156)" style="fill:#fa8a00"/><path d="M481.8,267.8v19.5h-1V267.8Z" transform="translate(-353.8 -156)" style="fill:#fa8a00"/><path d="M486.7,267.8v19.6h-1V267.8Z" transform="translate(-353.8 -156)" style="fill:#fa8a00"/><path d="M491.6,267.8v19.4h-1V267.8Z" transform="translate(-353.8 -156)" style="fill:#fa8a00"/><path d="M496.5,267.8v19.1h-1V267.8Z" transform="translate(-353.8 -156)" style="fill:#fa8a00"/><path d="M501.4,267.8v18.5l-1.1.2V267.8Z" transform="translate(-353.8 -156)" style="fill:#fa8a00"/><path d="M506.2,267.8v17.7l-1,.2V267.8Z" transform="translate(-353.8 -156)" style="fill:#fa8a00"/><path d="M511.1,267.8v16.5l-1,.3V267.8Z" transform="translate(-353.8 -156)" style="fill:#fa8a00"/><path d="M516,267.8v14.8l-1,.4V267.8Z" transform="translate(-353.8 -156)" style="fill:#fa8a00"/><path d="M520.9,267.7v11.9l-1,.9V267.7Z" transform="translate(-353.8 -156)" style="fill:#fa8a00"/><path d="M522.8,267.8c0,5.8-16.4,10.5-36.8,10.5-2.7,0-5.4-.1-8-.3s-6.4-.5-9.3-.9a68.1,68.1,0,0,1-7.1-1.5l-1.9-.5a31,31,0,0,1-6.7-2.7l-.9-.6c-1.8-1.2-2.8-2.5-2.8-4v-.3c.7-5.6,16.9-10.1,36.7-10.1a121.1,121.1,0,0,1,13.9.8l2.4.3a90.6,90.6,0,0,1,9.3,1.8l1.8.6a24.5,24.5,0,0,1,5.1,2.1,8.9,8.9,0,0,1,3.3,2.5,3.5,3.5,0,0,1,1,2Z" transform="translate(-353.8 -156)" style="fill:#ffce4f"/><path d="M515.4,267.8v.4c-.7,4.5-13.6,8-29.4,8s-28.6-3.5-29.3-8v-.4c0-4.6,13.1-8.3,29.3-8.3S515.4,263.2,515.4,267.8Z" transform="translate(-353.8 -156)" style="fill:#fa8a00"/><path d="M515.4,268.2c-.7,4.5-13.6,8-29.4,8h-1c-3.5-.1-6.9-.3-10-.6a80.1,80.1,0,0,1-8.4-1.5l-1.8-.5a22,22,0,0,1-6.1-2.7,3.6,3.6,0,0,1-.9-.8,3.4,3.4,0,0,1-1.1-1.9c.7-4.4,13.6-7.9,29.3-7.9h5.9l2.8.2a84.4,84.4,0,0,1,10.2,1.6l1.9.5a25.9,25.9,0,0,1,5.7,2.3,6.2,6.2,0,0,1,2.7,2.6A1.4,1.4,0,0,1,515.4,268.2Z" transform="translate(-353.8 -156)" style="fill:#ffac00"/><path d="M515.2,267.6,485,276.2c-3.5-.1-6.9-.3-10-.6L512.5,265A6.2,6.2,0,0,1,515.2,267.6Z" transform="translate(-353.8 -156)" style="fill:#fff;opacity:0.2"/><path d="M494.7,260.6l-36,10.3a3.6,3.6,0,0,1-.9-.8l34.1-9.7Z" transform="translate(-353.8 -156)" style="fill:#fff;opacity:0.2"/><path d="M506.8,262.7l-40.2,11.4-1.8-.5,40.1-11.4Z" transform="translate(-353.8 -156)" style="fill:#fff;opacity:0.2"/><path d="M490.1,272.6V274h-6.2v-1.4a81.5,81.5,0,0,1-11.3-.8l3.4-2.2a63.6,63.6,0,0,0,10.1.8c3,0,4-.2,4-.5s-17-.2-17-3.4c0-1.4,3.6-2.6,10.8-2.9v-1.4h6.2v1.4a58.8,58.8,0,0,1,9,.7l-3.2,2.1a65.2,65.2,0,0,0-8.5-.6c-3.1,0-4,.2-4,.5s17,.2,17,3.4C500.4,271.1,496.9,272.2,490.1,272.6Z" transform="translate(-353.8 -156)" style="fill:#fa8a00"/><path d="M489.9,272.1v1.4h-6.2v-1.3a79.4,79.4,0,0,1-11.3-.9l3.4-2.1a79.5,79.5,0,0,0,10.1.8c3,0,4-.2,4-.5s-17-.2-17-3.5c0-1.4,3.6-2.6,10.8-2.9v-1.3h6.2v1.3a75,75,0,0,1,9,.7l-3.1,2.2a53.3,53.3,0,0,0-8.6-.7c-3.1,0-4,.3-4,.6s17,.1,17,3.4C500.2,270.6,496.8,271.8,489.9,272.1Z" transform="translate(-353.8 -156)" style="fill:#ffce4f"/><path d="M524.3,264h0a5.4,5.4,0,0,1-1.9,3.7l-1,.8a17.9,17.9,0,0,1-3.9,2.1l-1,.4a35.6,35.6,0,0,1-3.9,1.3l-1,.3-3.9.9-1,.2-3.8.7h-1.1l-3.8.4h-1l-3.9.3H482.3l-2.8-.2h-2.1l-3.8-.5h-1l-2.4-.3-1.5-.3-1-.2-3.9-.9-.7-.2h-.3l-1.6-.4-2.3-.8-1-.4-3.4-1.8-.4-.3-.6-.3a1,1,0,0,0-.5-.4c-1.4-1.3-2.2-2.6-2.2-4V256h73.5V264Z" transform="translate(-353.8 -156)" style="fill:#ffac00"/><path d="M454.1,256v12.8l-.6-.3a1,1,0,0,0-.5-.4V256Z" transform="translate(-353.8 -156)" style="fill:#fa8a00"/><path d="M458.9,256v15.3l-1-.4V256Z" transform="translate(-353.8 -156)" style="fill:#fa8a00"/><path d="M463.8,256v16.8l-.7-.2h-.3V256Z" transform="translate(-353.8 -156)" style="fill:#fa8a00"/><path d="M468.7,256v17.9l-1-.2V256Z" transform="translate(-353.8 -156)" style="fill:#fa8a00"/><path d="M473.6,256v18.6h-1V256Z" transform="translate(-353.8 -156)" style="fill:#fa8a00"/><path d="M478.5,255.9v19.2h-1.1V255.9Z" transform="translate(-353.8 -156)" style="fill:#fa8a00"/><path d="M483.3,255.9v19.5h-1V255.9Z" transform="translate(-353.8 -156)" style="fill:#fa8a00"/><path d="M488.2,255.9v19.6h-1V255.9Z" transform="translate(-353.8 -156)" style="fill:#fa8a00"/><path d="M493.1,255.9v19.5h-1V255.9Z" transform="translate(-353.8 -156)" style="fill:#fa8a00"/><path d="M498,255.9V275h-1V255.9Z" transform="translate(-353.8 -156)" style="fill:#fa8a00"/><path d="M502.9,255.9v18.6h-1.1V255.9Z" transform="translate(-353.8 -156)" style="fill:#fa8a00"/><path d="M507.7,255.9v17.7l-1,.2V255.9Z" transform="translate(-353.8 -156)" style="fill:#fa8a00"/><path d="M512.6,255.9v16.5l-1,.3V255.9Z" transform="translate(-353.8 -156)" style="fill:#fa8a00"/><path d="M517.5,255.9v14.8l-1,.4V255.9Z" transform="translate(-353.8 -156)" style="fill:#fa8a00"/><path d="M522.4,255.9v11.9l-1,.8V255.9Z" transform="translate(-353.8 -156)" style="fill:#fa8a00"/><path d="M524.3,256c0,5.7-16.5,10.4-36.8,10.4l-8-.2c-3.3-.2-6.4-.6-9.3-1s-4.9-.9-7.1-1.4l-1.9-.5a31,31,0,0,1-6.7-2.7l-.9-.6c-1.8-1.3-2.8-2.6-2.8-4v-.4c.7-5.6,16.9-10.1,36.7-10.1a118,118,0,0,1,13.8.8l2.5.3a69.1,69.1,0,0,1,9.3,1.9l1.8.5a24.5,24.5,0,0,1,5.1,2.1,10.1,10.1,0,0,1,3.3,2.5,3.5,3.5,0,0,1,1,2Z" transform="translate(-353.8 -156)" style="fill:#ffce4f"/><path d="M516.9,256v.4c-.7,4.4-13.6,7.9-29.4,7.9s-28.6-3.5-29.3-7.9V256c0-4.6,13.1-8.4,29.3-8.4S516.9,251.4,516.9,256Z" transform="translate(-353.8 -156)" style="fill:#fa8a00"/><path d="M516.9,256.4c-.7,4.4-13.6,7.9-29.4,7.9h-1a79.1,79.1,0,0,1-10-.6,48.6,48.6,0,0,1-8.4-1.5l-1.8-.5a19.4,19.4,0,0,1-6.1-2.7,2.4,2.4,0,0,1-.9-.8,3.5,3.5,0,0,1-1.1-1.8c.7-4.5,13.6-8,29.3-8l5.9.2,2.8.2a57.5,57.5,0,0,1,10.2,1.6l1.9.4a23.1,23.1,0,0,1,5.6,2.3,6,6,0,0,1,2.8,2.6A1.9,1.9,0,0,1,516.9,256.4Z" transform="translate(-353.8 -156)" style="fill:#ffac00"/><path d="M491.6,260.7v1.4h-6.2v-1.3a79.4,79.4,0,0,1-11.3-.9l3.4-2.1a78.1,78.1,0,0,0,10.1.8c3,0,4-.2,4-.5s-17-.2-17-3.5c0-1.4,3.6-2.6,10.8-2.9v-1.3h6.2v1.3a76.7,76.7,0,0,1,9,.7l-3.2,2.2a52.1,52.1,0,0,0-8.5-.7c-3.1,0-4,.3-4,.6s17,.1,17,3.4C501.9,259.2,498.4,260.4,491.6,260.7Z" transform="translate(-353.8 -156)" style="fill:#fa8a00"/><path d="M491.4,260.3v1.3h-6.2v-1.3a79.4,79.4,0,0,1-11.3-.9l3.4-2.1a64.6,64.6,0,0,0,10.1.8c3,0,4-.2,4-.5s-17-.2-17-3.5c0-1.4,3.6-2.6,10.8-2.8v-1.4h6.2v1.3a73.4,73.4,0,0,1,9,.8l-3.2,2.1a64.8,64.8,0,0,0-8.5-.7c-3.1,0-4,.3-4,.6s17,.2,17,3.4C501.7,258.7,498.3,259.9,491.4,260.3Z" transform="translate(-353.8 -156)" style="fill:#ffce4f"/><path d="M561.5,377.7h0a4.8,4.8,0,0,1-1.8,3.5l-1,.8a18.1,18.1,0,0,1-3.7,2l-.9.4-3.7,1.2-1,.3-3.6.9h-1l-3.7.7h-.9l-3.7.4h-1l-3.7.2H516.9l-3.6-.4h-1l-2.2-.3-1.5-.3-.9-.2-3.7-.8-.7-.2H503l-1.5-.4-2.2-.8-.9-.4a16.9,16.9,0,0,1-3.3-1.6l-.4-.3-.5-.3-.5-.4a5.1,5.1,0,0,1-2.1-3.8v-7.7h69.9v7.7Z" transform="translate(-353.8 -156)" style="fill:#ffac00"/><path d="M494.7,370.1v12.2l-.5-.3-.5-.4V370.1Z" transform="translate(-353.8 -156)" style="fill:#fa8a00"/><path d="M499.3,370.1v14.5l-.9-.4V370.1Z" transform="translate(-353.8 -156)" style="fill:#fa8a00"/><path d="M504,370.1v16l-.7-.2H503V370.1Z" transform="translate(-353.8 -156)" style="fill:#fa8a00"/><path d="M508.6,370.1v17l-.9-.2V370.1Z" transform="translate(-353.8 -156)" style="fill:#fa8a00"/><path d="M513.3,370.1v17.7h-1V370.1Z" transform="translate(-353.8 -156)" style="fill:#fa8a00"/><path d="M517.9,370v18.3h-1V370Z" transform="translate(-353.8 -156)" style="fill:#fa8a00"/><path d="M522.6,370v18.6h-1V370Z" transform="translate(-353.8 -156)" style="fill:#fa8a00"/><path d="M527.2,370v18.6h-1V370Z" transform="translate(-353.8 -156)" style="fill:#fa8a00"/><path d="M531.8,370v18.5h-.9V370Z" transform="translate(-353.8 -156)" style="fill:#fa8a00"/><path d="M536.5,370v18.2h-1V370Z" transform="translate(-353.8 -156)" style="fill:#fa8a00"/><path d="M541.1,370v17.7h-.9V370Z" transform="translate(-353.8 -156)" style="fill:#fa8a00"/><path d="M545.8,370v16.9h-1V370Z" transform="translate(-353.8 -156)" style="fill:#fa8a00"/><path d="M550.4,370v15.7l-1,.3V370Z" transform="translate(-353.8 -156)" style="fill:#fa8a00"/><path d="M555,370v14.1l-.9.4V370Z" transform="translate(-353.8 -156)" style="fill:#fa8a00"/><path d="M559.7,370v11.3l-1,.8V370Z" transform="translate(-353.8 -156)" style="fill:#fa8a00"/><path d="M561.5,370.1c0,5.5-15.6,9.9-35,9.9l-7.6-.2a76.2,76.2,0,0,1-8.8-1,58.8,58.8,0,0,1-6.8-1.3l-1.8-.5a25.8,25.8,0,0,1-6.4-2.6l-.9-.5c-1.7-1.2-2.6-2.5-2.6-3.8v-.4c.7-5.3,16.1-9.6,34.9-9.6a108.9,108.9,0,0,1,13.2.8l2.3.3a64.1,64.1,0,0,1,8.9,1.7l1.7.5a33.1,33.1,0,0,1,4.9,2,13.9,13.9,0,0,1,3.1,2.4,4.1,4.1,0,0,1,.9,1.9Z" transform="translate(-353.8 -156)" style="fill:#ffce4f"/><path d="M554.5,370.1v.3c-.7,4.2-13,7.6-28,7.6s-27.2-3.4-27.9-7.6v-.3c0-4.4,12.5-8,27.9-8S554.5,365.7,554.5,370.1Z" transform="translate(-353.8 -156)" style="fill:#fa8a00"/><path d="M554.5,370.4c-.7,4.2-13,7.6-28,7.6h-.9a70.1,70.1,0,0,1-9.5-.6,52.7,52.7,0,0,1-8-1.4l-1.8-.4a22.9,22.9,0,0,1-5.8-2.6,6,6,0,0,1-.8-.8,2.9,2.9,0,0,1-1.1-1.8c.7-4.2,13-7.5,27.9-7.5h5.6l2.7.2a76.5,76.5,0,0,1,9.7,1.5l1.8.5a23.4,23.4,0,0,1,5.4,2.1,6.9,6.9,0,0,1,2.6,2.5C554.4,370,554.4,370.2,554.5,370.4Z" transform="translate(-353.8 -156)" style="fill:#ffac00"/><path d="M554.3,369.8,525.6,378a70.1,70.1,0,0,1-9.5-.6l35.6-10.1A6.9,6.9,0,0,1,554.3,369.8Z" transform="translate(-353.8 -156)" style="fill:#fff;opacity:0.2"/><path d="M534.8,363.2,500.5,373a6,6,0,0,1-.8-.8l32.4-9.2Z" transform="translate(-353.8 -156)" style="fill:#fff;opacity:0.2"/><path d="M546.3,365.2,508.1,376l-1.8-.4,38.2-10.9Z" transform="translate(-353.8 -156)" style="fill:#fff;opacity:0.2"/><path d="M530.4,374.6v1.3h-5.9v-1.3a73.3,73.3,0,0,1-10.7-.8l3.2-2a70.9,70.9,0,0,0,9.6.7c2.8,0,3.8-.1,3.8-.4s-16.2-.2-16.2-3.3c0-1.4,3.5-2.5,10.3-2.8v-1.3h5.9V366a67.9,67.9,0,0,1,8.5.7l-2.9,2a59.8,59.8,0,0,0-8.2-.6c-2.9,0-3.8.2-3.8.5s16.2.2,16.2,3.3C540.2,373.1,536.9,374.3,530.4,374.6Z" transform="translate(-353.8 -156)" style="fill:#fa8a00"/><path d="M530.3,374.1v1.4h-5.9v-1.3a90.9,90.9,0,0,1-10.8-.8l3.2-2.1a58.6,58.6,0,0,0,9.7.8c2.8,0,3.8-.2,3.8-.5s-16.2-.2-16.2-3.3c0-1.3,3.4-2.4,10.3-2.7v-1.3h5.9v1.3a53.1,53.1,0,0,1,8.5.7l-3,2a59.8,59.8,0,0,0-8.2-.6c-2.9,0-3.8.2-3.8.5s16.2.2,16.2,3.2C540,372.7,536.7,373.8,530.3,374.1Z" transform="translate(-353.8 -156)" style="fill:#ffce4f"/><path d="M563.7,365.5h0a4.5,4.5,0,0,1-1.8,3.4,3.9,3.9,0,0,1-1,.8,18.1,18.1,0,0,1-3.7,2l-.9.4a31.9,31.9,0,0,1-3.7,1.3l-1,.2c-1.1.4-2.4.6-3.6.9l-1,.2-3.7.6h-1l-3.6.4h-1l-3.7.3H523.8l-2.7-.2h-2l-3.6-.4-1-.2-2.2-.3-1.5-.2-.9-.2-3.7-.9h-1l-1.5-.5-2.2-.7-.9-.4a16.9,16.9,0,0,1-3.3-1.7l-.4-.2-.5-.4-.5-.4a4.8,4.8,0,0,1-2.1-3.7v-7.8h69.9v7.8Z" transform="translate(-353.8 -156)" style="fill:#ffac00"/><path d="M496.9,357.8v12.3l-.5-.4-.5-.4V357.8Z" transform="translate(-353.8 -156)" style="fill:#fa8a00"/><path d="M501.5,357.8v14.6l-.9-.4V357.8Z" transform="translate(-353.8 -156)" style="fill:#fa8a00"/><path d="M506.2,357.8v16h-1V357.8Z" transform="translate(-353.8 -156)" style="fill:#fa8a00"/><path d="M510.8,357.8v17.1l-.9-.2V357.8Z" transform="translate(-353.8 -156)" style="fill:#fa8a00"/><path d="M515.5,357.8v17.8l-1-.2V357.8Z" transform="translate(-353.8 -156)" style="fill:#fa8a00"/><path d="M520.1,357.8v18.3h-1V357.8Z" transform="translate(-353.8 -156)" style="fill:#fa8a00"/><path d="M524.8,357.8v18.5h-1V357.8Z" transform="translate(-353.8 -156)" style="fill:#fa8a00"/><path d="M529.4,357.8v18.6h-1V357.8Z" transform="translate(-353.8 -156)" style="fill:#fa8a00"/><path d="M534,357.8v18.5h-.9V357.8Z" transform="translate(-353.8 -156)" style="fill:#fa8a00"/><path d="M538.7,357.8v18.1h-1V357.8Z" transform="translate(-353.8 -156)" style="fill:#fa8a00"/><path d="M543.3,357.8v17.6h-1V357.8Z" transform="translate(-353.8 -156)" style="fill:#fa8a00"/><path d="M548,357.8v16.8l-1,.2v-17Z" transform="translate(-353.8 -156)" style="fill:#fa8a00"/><path d="M552.6,357.7v15.8l-1,.2v-16Z" transform="translate(-353.8 -156)" style="fill:#fa8a00"/><path d="M557.2,357.7v14.1l-.9.4V357.7Z" transform="translate(-353.8 -156)" style="fill:#fa8a00"/><path d="M561.9,357.7V369a3.9,3.9,0,0,1-1,.8V357.7Z" transform="translate(-353.8 -156)" style="fill:#fa8a00"/><path d="M563.7,357.8c0,5.5-15.6,10-35,10-2.6,0-5.2-.1-7.6-.3s-6.1-.5-8.8-.9a58.1,58.1,0,0,1-6.8-1.4l-1.8-.4a36.7,36.7,0,0,1-6.4-2.6l-.9-.6c-1.7-1.1-2.6-2.4-2.6-3.8v-.3c.7-5.4,16.1-9.6,34.9-9.6,4.7,0,9.1.3,13.2.7l2.3.3a81.9,81.9,0,0,1,8.9,1.8l1.7.5a33.1,33.1,0,0,1,4.9,2,9.8,9.8,0,0,1,3.1,2.4,3.7,3.7,0,0,1,.9,1.9Z" transform="translate(-353.8 -156)" style="fill:#ffce4f"/><path d="M556.7,357.8v.4c-.7,4.2-13,7.6-28,7.6s-27.2-3.4-27.9-7.6v-.4c0-4.4,12.5-7.9,27.9-7.9S556.7,353.4,556.7,357.8Z" transform="translate(-353.8 -156)" style="fill:#fa8a00"/><path d="M556.7,358.2c-.7,4.2-13,7.6-28,7.6h-1c-3.3-.1-6.5-.3-9.4-.6a69,69,0,0,1-8-1.4l-1.8-.5a17.5,17.5,0,0,1-5.8-2.6l-.9-.7a4.1,4.1,0,0,1-1-1.8c.7-4.2,13-7.6,27.9-7.6l5.6.2,2.7.2a62,62,0,0,1,9.7,1.5l1.8.4a28.6,28.6,0,0,1,5.4,2.2,6.3,6.3,0,0,1,2.6,2.5C556.6,357.8,556.6,358,556.7,358.2Z" transform="translate(-353.8 -156)" style="fill:#ffac00"/><path d="M556.5,357.6l-28.8,8.2c-3.3-.1-6.5-.3-9.4-.6l35.6-10.1A6.3,6.3,0,0,1,556.5,357.6Z" transform="translate(-353.8 -156)" style="fill:#fff;opacity:0.2"/><path d="M537,351l-34.3,9.7-.9-.7,32.5-9.2Z" transform="translate(-353.8 -156)" style="fill:#fff;opacity:0.2"/><path d="M548.5,352.9l-38.2,10.9-1.8-.5,38.2-10.8Z" transform="translate(-353.8 -156)" style="fill:#fff;opacity:0.2"/><path d="M532.6,362.3v1.3h-5.9v-1.2a90.7,90.7,0,0,1-10.7-.8l3.2-2.1a57.3,57.3,0,0,0,9.6.8c2.8,0,3.8-.2,3.8-.5s-16.2-.2-16.2-3.3c0-1.3,3.5-2.5,10.3-2.7v-1.3h5.9v1.3a69.3,69.3,0,0,1,8.5.6l-2.9,2.1a60.9,60.9,0,0,0-8.2-.6c-2.9,0-3.8.2-3.8.5s16.2.1,16.2,3.2C542.4,360.9,539.1,362,532.6,362.3Z" transform="translate(-353.8 -156)" style="fill:#fa8a00"/><path d="M532.5,361.9v1.3h-5.9v-1.3a61.9,61.9,0,0,1-10.8-.8l3.2-2a72.5,72.5,0,0,0,9.7.7c2.8,0,3.8-.1,3.8-.4s-16.2-.2-16.2-3.3c0-1.4,3.4-2.5,10.3-2.8V352h5.9v1.3a67.9,67.9,0,0,1,8.5.7l-3,2a59.8,59.8,0,0,0-8.2-.6c-2.9,0-3.8.3-3.8.5s16.2.2,16.2,3.3C542.2,360.5,538.9,361.6,532.5,361.9Z" transform="translate(-353.8 -156)" style="fill:#ffce4f"/><path d="M563.4,353.2h0a4.8,4.8,0,0,1-1.8,3.5l-1,.8a18.1,18.1,0,0,1-3.7,2l-.9.4-3.7,1.2-1,.3-3.7.9h-.9l-3.7.7h-1l-3.6.4h-1l-3.7.2H518.8l-3.7-.4h-.9l-2.3-.3-1.4-.3-1-.2-3.6-.8-.7-.2h-.3l-1.5-.4-2.2-.8-.9-.4a16.9,16.9,0,0,1-3.3-1.6l-.4-.3-.5-.3-.5-.4a5.3,5.3,0,0,1-2.2-3.8.4.4,0,0,1,.1-.3v-7.4h69.9v7.7Z" transform="translate(-353.8 -156)" style="fill:#ffac00"/><path d="M496.6,345.6v12.2l-.5-.3-.5-.4V345.6Z" transform="translate(-353.8 -156)" style="fill:#fa8a00"/><path d="M501.2,345.6v14.5l-.9-.4V345.6Z" transform="translate(-353.8 -156)" style="fill:#fa8a00"/><path d="M505.9,345.6v16l-.7-.2h-.3V345.6Z" transform="translate(-353.8 -156)" style="fill:#fa8a00"/><path d="M510.5,345.6v17l-1-.2V345.6Z" transform="translate(-353.8 -156)" style="fill:#fa8a00"/><path d="M515.1,345.6v17.7h-.9V345.6Z" transform="translate(-353.8 -156)" style="fill:#fa8a00"/><path d="M519.8,345.5v18.3h-1V345.5Z" transform="translate(-353.8 -156)" style="fill:#fa8a00"/><path d="M524.4,345.5v18.6h-.9V345.5Z" transform="translate(-353.8 -156)" style="fill:#fa8a00"/><path d="M529.1,345.5v18.6h-1V345.5Z" transform="translate(-353.8 -156)" style="fill:#fa8a00"/><path d="M533.7,345.5V364h-1V345.5Z" transform="translate(-353.8 -156)" style="fill:#fa8a00"/><path d="M538.4,345.5v18.2h-1V345.5Z" transform="translate(-353.8 -156)" style="fill:#fa8a00"/><path d="M543,345.5v17.7h-1V345.5Z" transform="translate(-353.8 -156)" style="fill:#fa8a00"/><path d="M547.6,345.5v16.9h-.9v-17Z" transform="translate(-353.8 -156)" style="fill:#fa8a00"/><path d="M552.3,345.5v15.7l-1,.3v-16Z" transform="translate(-353.8 -156)" style="fill:#fa8a00"/><path d="M556.9,345.5v14.1l-.9.4V345.5Z" transform="translate(-353.8 -156)" style="fill:#fa8a00"/><path d="M561.6,345.5v11.3l-1,.8V345.5Z" transform="translate(-353.8 -156)" style="fill:#fa8a00"/><path d="M563.4,345.6c0,5.5-15.7,9.9-35,9.9l-7.7-.2a78.8,78.8,0,0,1-8.8-1,56.9,56.9,0,0,1-6.7-1.3l-1.8-.5a24.2,24.2,0,0,1-6.4-2.6l-.9-.5c-1.7-1.2-2.6-2.5-2.6-3.8v-.4c.7-5.3,16-9.6,34.9-9.6a108.9,108.9,0,0,1,13.2.8l2.3.3a64.1,64.1,0,0,1,8.9,1.7l1.6.5a29.1,29.1,0,0,1,4.9,2,12.6,12.6,0,0,1,3.2,2.4,4.1,4.1,0,0,1,.9,1.9Z" transform="translate(-353.8 -156)" style="fill:#ffce4f"/><path d="M556.4,345.6a.4.4,0,0,1-.1.3c-.6,4.2-12.9,7.6-27.9,7.6s-27.2-3.4-27.9-7.6v-.3c0-4.4,12.5-8,27.9-8S556.4,341.2,556.4,345.6Z" transform="translate(-353.8 -156)" style="fill:#fa8a00"/><path d="M556.3,345.9c-.6,4.2-12.9,7.6-27.9,7.6h-1a72.3,72.3,0,0,1-9.5-.6,57.6,57.6,0,0,1-8-1.4l-1.7-.4a22.9,22.9,0,0,1-5.8-2.6l-.9-.8a3.2,3.2,0,0,1-1-1.8c.7-4.2,12.9-7.5,27.9-7.5H534l2.7.2a62,62,0,0,1,9.7,1.5l1.7.5a21.7,21.7,0,0,1,5.4,2.1,6,6,0,0,1,2.7,2.5A1.3,1.3,0,0,1,556.3,345.9Z" transform="translate(-353.8 -156)" style="fill:#ffac00"/><path d="M532.3,350.1v1.3h-5.9v-1.3a72.1,72.1,0,0,1-10.7-.8l3.1-2a73.7,73.7,0,0,0,9.7.7c2.8,0,3.8-.1,3.8-.4s-16.2-.2-16.2-3.3c0-1.4,3.5-2.5,10.3-2.8v-1.3h5.9v1.3a67.9,67.9,0,0,1,8.5.7l-3,2a59.5,59.5,0,0,0-8.1-.6c-2.9,0-3.8.2-3.8.5s16.2.2,16.2,3.3C542.1,348.6,538.8,349.8,532.3,350.1Z" transform="translate(-353.8 -156)" style="fill:#fa8a00"/><path d="M532.1,349.6V351h-5.9v-1.3a90.7,90.7,0,0,1-10.7-.8l3.2-2.1a57.3,57.3,0,0,0,9.6.8c2.8,0,3.8-.2,3.8-.5s-16.1-.2-16.1-3.3c0-1.3,3.4-2.4,10.2-2.7v-1.3h5.9v1.3a69.3,69.3,0,0,1,8.5.6l-2.9,2.1a59.8,59.8,0,0,0-8.2-.6c-2.9,0-3.8.2-3.8.5s16.2.2,16.2,3.2C541.9,348.2,538.6,349.3,532.1,349.6Z" transform="translate(-353.8 -156)" style="fill:#ffce4f"/></svg>