<svg id="Слой_1" data-name="Слой 1" xmlns="http://www.w3.org/2000/svg" viewBox="0 0 2771.8 1631.2"><path d="M426.2,1810.5S93.4,1400,256,977.4C362,701.9,759.7,550.9,984.2,701.9c95.6,64.3,402.2,2.1,566-264,318.2-517.3,1551.4-213.9,1226.6,591-148.4,367.8,297.8,398.3,96.2,782.4Z" transform="translate(-211.2 -182.3)" style="fill:#ebf3fa;opacity:0.3"/><g style="opacity:0.85"><polygon points="1249.6 898.9 956.4 1215.9 533.8 824.9 533.8 824.9 355.8 660.2 649 343.2 981.5 650.8 1249.6 898.9" style="fill:#4ed9e1"/><path d="M1393.7,1084.9,1166.1,1331,626.2,831.5,853.9,585.4Zm-207.2,209,171.7-185.6a31,31,0,0,0-1.7-43.9l-478.8-443a31.6,31.6,0,0,0-44.7,1.7L662,807.9a31.4,31.4,0,0,0,1.7,44.4l479.1,443.3A31,31,0,0,0,1186.5,1293.9Z" transform="translate(-211.2 -182.3)" style="fill:#229393"/><circle cx="1010" cy="958.2" r="90.2" transform="translate(-229.8 -162.4) rotate(-1.1)" style="fill:#44b7b7"/></g><g style="opacity:0.85"><polygon points="1364.7 839.8 943.5 935 816.6 373.5 816.6 373.5 763.1 136.9 1184.3 41.7 1284.1 483.5 1364.7 839.8" style="fill:#4ed9e1"/><path d="M1518.5,987.2l-327,73.9L1029.3,343.7l327-73.9ZM1229.4,1042,1476,986.3a31.1,31.1,0,0,0,23.4-37.2L1355.6,312.9a31.6,31.6,0,0,0-37.8-23.9l-245.6,55.5a31.4,31.4,0,0,0-23.7,37.5l143.9,636.7A30.9,30.9,0,0,0,1229.4,1042Z" transform="translate(-211.2 -182.3)" style="fill:#229393"/><circle cx="1273.9" cy="665.4" r="90.2" transform="translate(-308.6 913.4) rotate(-45)" style="fill:#44b7b7"/></g><g style="opacity:0.85"><polygon points="2203.1 1304.8 1753.9 1147.2 1963.9 548.5 1964 548.5 2052.4 296.2 2501.6 453.7 2336.3 924.8 2203.1 1304.8" style="fill:#4ed9e1"/><path d="M2381.1,1420.8l-348.6-122.3,268.3-764.9,348.6,122.3ZM2079,1302.9l262.9,92.2a34.2,34.2,0,0,0,43.7-21l237.9-678.4a34.9,34.9,0,0,0-21.3-44.5l-261.9-91.8a34.6,34.6,0,0,0-44.1,21.2l-238.1,678.9A34.1,34.1,0,0,0,2079,1302.9Z" transform="translate(-211.2 -182.3)" style="fill:#229393"/><path d="M2247.1,944.3A99.4,99.4,0,1,1,2308,1071,99.4,99.4,0,0,1,2247.1,944.3Z" transform="translate(-211.2 -182.3)" style="fill:#44b7b7"/></g><path d="M1130.1,1140.5v128.2a44.7,44.7,0,0,1-44.6,44.6H993.6a44.7,44.7,0,0,1-44.6-44.6V1140.5a44.8,44.8,0,0,1,44.6-44.6h91.9A44.8,44.8,0,0,1,1130.1,1140.5Z" transform="translate(-211.2 -182.3)" style="fill:#ed7d2b"/><path d="M1130.1,1140.5v71.4a44.8,44.8,0,0,1-44.6,44.7H993.6a44.8,44.8,0,0,1-44.6-44.7v-71.4a44.8,44.8,0,0,1,44.6-44.6h91.9A44.8,44.8,0,0,1,1130.1,1140.5Z" transform="translate(-211.2 -182.3)" style="fill:#f99746"/><path d="M2148,1204.6a472.8,472.8,0,0,1-37.6,185.2c-72.7,171.1-242.7,291.9-439.5,291.9H1534.5c-174.1,0-327.2-94.5-410.6-234.8a474.3,474.3,0,0,1-28.8-427.5c72.6-171.1,242.6-291.9,439.4-291.9h136.4c179,0,335.7,99.9,417.3,246.6A472.8,472.8,0,0,1,2148,1204.6Z" transform="translate(-211.2 -182.3)" style="fill:#ed7d2b"/><path d="M2088.2,974.1c11.4,55.1,2.5,133.7-12,175.4-96.3,276.9-322.6,326.9-554,347.9-164.5,15-398.3-50.5-398.3-50.5a474.3,474.3,0,0,1-28.8-427.5c72.6-171.1,242.6-291.9,439.4-291.9h136.4C1849.9,727.5,2006.6,827.4,2088.2,974.1Z" transform="translate(-211.2 -182.3)" style="fill:#f99746"/><path d="M1478.3,847H1290.6c-18.9,0-34.3-11.5-34.3-25.6V565.2a20.3,20.3,0,0,1,3.8-11.8c9.2-13.4,33.3-18.9,51.2-8.7,71.3,40.4,188,128.2,201.1,274.9C1513.8,834.5,1498.1,847,1478.3,847Z" transform="translate(-211.2 -182.3)" style="fill:#f99746"/><path d="M1298.2,847h-7.6c-18.9,0-34.3-11.5-34.3-25.6V565.2a20.3,20.3,0,0,1,3.8-11.8,15.8,15.8,0,0,1,2.3,2.2c40.8,45.4,99.5,134.5,83,259.4C1343,833.2,1322.6,847,1298.2,847Z" transform="translate(-211.2 -182.3)" style="fill:#ed7d2b"/><path d="M1199.3,1018.3a28,28,0,1,1,28,28A28,28,0,0,1,1199.3,1018.3Z" transform="translate(-211.2 -182.3)" style="fill:#2b478b"/><path d="M1751.6,1479.2l-44.5,288.9a35.3,35.3,0,0,0,34.2,44.3h116.9a66.8,66.8,0,0,0,59.5-36.3l181.8-362.5Z" transform="translate(-211.2 -182.3)" style="fill:#ed7d2b"/><path d="M1485.3,1484.1l35.7,284a35.2,35.2,0,0,1-34.1,44.3H1370a66.8,66.8,0,0,1-59.5-36.3l-186.6-329.2Z" transform="translate(-211.2 -182.3)" style="fill:#ed7d2b"/><path d="M2261.7,1334.3a32.2,32.2,0,0,1-8.1-1.1c-20.7-5.4-32.6-30.2-31-64.6s15.8-69.3,38.8-97.7a178.4,178.4,0,0,1,35-32.8,99.2,99.2,0,0,0-25.8-28.4c-19.1-14.4-38.8-18.5-60.3-12.7-57.8,15.7-106.9,98.4-110.8,107.7a9.8,9.8,0,0,1-18.5-6.5c1.7-5.1,16.1-29.8,36-54.2,34.8-42.6,65.2-58.7,84.5-64.8,28.6-8.9,55.9-3.9,80.9,14.8a119.9,119.9,0,0,1,30.6,33.7,200.5,200.5,0,0,1,66.5-22.7,9.7,9.7,0,0,1,11.2,8,9.8,9.8,0,0,1-8,11.3,183.8,183.8,0,0,0-60.8,20.8,149.9,149.9,0,0,1,10.4,44.1c2.9,32.7-3.7,68.4-18,98S2280.5,1334.3,2261.7,1334.3Zm43.4-178.3a157.2,157.2,0,0,0-28.6,27.3c-20.4,25.1-32.9,56.6-34.3,86.2-1.1,23.6,5.6,42,16.4,44.8s26.6-11.8,38.1-35.6c12.6-26.1,18.6-59,16.1-87.9A129.3,129.3,0,0,0,2305.1,1156Zm-205.5,48.4v0Z" transform="translate(-211.2 -182.3)" style="fill:#ed7d2b"/><path d="M1470.3,1777.4V1796a6,6,0,0,1-1.5,4,8.4,8.4,0,0,1-4,2.7l-1.5.3-1.5.2h-353c-4.3,0-7.9-2.7-8.5-6.1,0-.3-.1-.5-.1-.7V1777c0-.2.1-.5.1-.7.6-3.4,4.2-6.1,8.5-6.1h354.5l1.5.4a7.7,7.7,0,0,1,4,2.7A5.9,5.9,0,0,1,1470.3,1777.4Z" transform="translate(-211.2 -182.3)" style="fill:#ffb93e"/><path d="M1297,1803.2H1107.9a7.6,7.6,0,0,1-7.4-5.4c-.1-.2-.1-.5-.2-.7s-.1-.5-.1-.7V1777c0-.2.1-.5.1-.7s.1-.5.2-.8a7.6,7.6,0,0,1,7.4-5.3h165.8A58.5,58.5,0,0,0,1297,1803.2Z" transform="translate(-211.2 -182.3)" style="fill:#ffa412"/><rect x="1212.1" y="1587.9" width="4" height="32.96" style="fill:#ffa412"/><rect x="1198.5" y="1587.9" width="4" height="32.96" style="fill:#ffa412"/><rect x="1182.2" y="1587.9" width="4" height="32.96" style="fill:#ffa412"/><rect x="1157.3" y="1587.9" width="4" height="32.96" style="fill:#ffa412"/><rect x="1130.9" y="1587.9" width="4" height="32.96" style="fill:#ffa412"/><rect x="1090.4" y="1587.9" width="4" height="32.96" style="fill:#ffa412"/><rect x="1052.5" y="1587.9" width="4" height="32.96" style="fill:#ffa412"/><rect x="1018.7" y="1587.9" width="4" height="32.96" style="fill:#ffa412"/><rect x="1225" y="1587.9" width="4" height="32.96" style="fill:#ffa412"/><rect x="1233.6" y="1587.9" width="4" height="32.96" style="fill:#ffa412"/><rect x="1241.8" y="1587.9" width="4" height="32.96" style="fill:#ffa412"/><path d="M1463.3,1770.3V1803l-1.5.2h-2.5v-33h4Z" transform="translate(-211.2 -182.3)" style="fill:#ffa412"/><path d="M1468.8,1773.4V1800a8.4,8.4,0,0,1-4,2.7v-32A7.7,7.7,0,0,1,1468.8,1773.4Z" transform="translate(-211.2 -182.3)" style="fill:#ffa412"/><path d="M1432.6,1744.4V1763a6.4,6.4,0,0,1-1.5,4l-.8.9a9.2,9.2,0,0,1-3.2,1.8l-1.6.4H1071c-4.2,0-7.8-2.7-8.4-6.1a1.7,1.7,0,0,1-.1-.7V1744a1.3,1.3,0,0,1,.1-.6c.6-3.5,4.2-6.2,8.4-6.2h354.5a7.6,7.6,0,0,1,1.6.3l.9.4h0l.5.2.3.2.3.2,1,.7.3.3c.1.1.2.1.2.2h.2l.3.3A6.6,6.6,0,0,1,1432.6,1744.4Z" transform="translate(-211.2 -182.3)" style="fill:#ffb93e"/><path d="M1259.2,1770.2H1070.1a7.6,7.6,0,0,1-7.3-5.3,2.4,2.4,0,0,1-.2-.8,1.7,1.7,0,0,1-.1-.7V1744a1.3,1.3,0,0,1,.1-.6,1.9,1.9,0,0,1,.2-.8,7.6,7.6,0,0,1,7.3-5.4H1236c.1.3.1.6.2.9A58,58,0,0,0,1259.2,1770.2Z" transform="translate(-211.2 -182.3)" style="fill:#ffa412"/><rect x="1174.4" y="1554.9" width="4" height="32.95" style="fill:#ffa412"/><rect x="1160.8" y="1554.9" width="4" height="32.95" style="fill:#ffa412"/><rect x="1144.5" y="1554.9" width="4" height="32.95" style="fill:#ffa412"/><rect x="1119.5" y="1554.9" width="4" height="32.95" style="fill:#ffa412"/><rect x="1093.1" y="1554.9" width="4" height="32.95" style="fill:#ffa412"/><rect x="1052.7" y="1554.9" width="4" height="32.95" style="fill:#ffa412"/><rect x="1014.8" y="1554.9" width="4" height="32.95" style="fill:#ffa412"/><rect x="980.9" y="1554.9" width="4" height="32.95" style="fill:#ffa412"/><rect x="1187.3" y="1554.9" width="4" height="32.95" style="fill:#ffa412"/><rect x="1195.8" y="1554.9" width="4" height="32.95" style="fill:#ffa412"/><rect x="1204.1" y="1554.9" width="4" height="32.95" style="fill:#ffa412"/><path d="M1425.5,1737.4v32.7h-4v-33h2.5Z" transform="translate(-211.2 -182.3)" style="fill:#ffa412"/><path d="M1431.1,1740.4V1767a8.6,8.6,0,0,1-4,2.7v-32A9.5,9.5,0,0,1,1431.1,1740.4Z" transform="translate(-211.2 -182.3)" style="fill:#ffa412"/><path d="M1450.8,1712.3v18.6a6,6,0,0,1-1.5,4,8.4,8.4,0,0,1-4,2.7l-1.5.4H1089.3a8.7,8.7,0,0,1-4-.9,7.5,7.5,0,0,1-4.5-5.2v-.4a.4.4,0,0,1-.1-.3v-19.4c0-.2.1-.5.1-.7.6-3.4,4.2-6.1,8.5-6.1h354.5l1.5.4a7.7,7.7,0,0,1,4,2.7A5.9,5.9,0,0,1,1450.8,1712.3Z" transform="translate(-211.2 -182.3)" style="fill:#ffb93e"/><path d="M1277.5,1738.1H1088.3a7.3,7.3,0,0,1-3.5-.9,7.1,7.1,0,0,1-4-5.2v-.4a.4.4,0,0,1-.1-.3v-19.4c0-.2.1-.5.1-.7s.1-.5.2-.7a7.6,7.6,0,0,1,7.3-5.4h165.9a57.8,57.8,0,0,0,22.1,32.1Z" transform="translate(-211.2 -182.3)" style="fill:#ffa412"/><rect x="1192.6" y="1522.8" width="4" height="32.95" style="fill:#ffa412"/><rect x="1179" y="1522.8" width="4" height="32.95" style="fill:#ffa412"/><rect x="1162.7" y="1522.8" width="4" height="32.95" style="fill:#ffa412"/><rect x="1137.8" y="1522.8" width="4" height="32.95" style="fill:#ffa412"/><rect x="1111.4" y="1522.8" width="4" height="32.95" style="fill:#ffa412"/><rect x="1070.9" y="1522.8" width="4" height="32.95" style="fill:#ffa412"/><rect x="1033" y="1522.8" width="4" height="32.95" style="fill:#ffa412"/><rect x="999.2" y="1522.8" width="4" height="32.95" style="fill:#ffa412"/><rect x="1205.5" y="1522.8" width="4" height="32.95" style="fill:#ffa412"/><rect x="1214.1" y="1522.8" width="4" height="32.95" style="fill:#ffa412"/><rect x="1222.3" y="1522.8" width="4" height="32.95" style="fill:#ffa412"/><path d="M1443.8,1705.2v32.7l-1.5.2h-2.5v-33h4Z" transform="translate(-211.2 -182.3)" style="fill:#ffa412"/><path d="M1449.3,1708.3v26.6a8.4,8.4,0,0,1-4,2.7v-32A7.7,7.7,0,0,1,1449.3,1708.3Z" transform="translate(-211.2 -182.3)" style="fill:#ffa412"/><path d="M1459.3,1679.3v18.6a6.4,6.4,0,0,1-1.5,4l-.4.5a10.8,10.8,0,0,1-2.4,1.8l-1.2.4-1.6.4H1097.7c-4.2,0-7.8-2.7-8.4-6.1a1.7,1.7,0,0,1-.1-.7V1679c.2-3.5,3.4-6.4,7.5-6.8h355.5a7.6,7.6,0,0,1,1.6.3,9.5,9.5,0,0,1,4,2.7A6.6,6.6,0,0,1,1459.3,1679.3Z" transform="translate(-211.2 -182.3)" style="fill:#ffb93e"/><path d="M1285.9,1705.1H1096.8a7.5,7.5,0,0,1-7.3-5.3,2.4,2.4,0,0,1-.2-.8,1.7,1.7,0,0,1-.1-.7V1679a7.5,7.5,0,0,1,6.7-6.8h166.8A57.8,57.8,0,0,0,1285.9,1705.1Z" transform="translate(-211.2 -182.3)" style="fill:#ffa412"/><rect x="1201.1" y="1489.8" width="4" height="32.95" style="fill:#ffa412"/><rect x="1187.5" y="1489.8" width="4" height="32.95" style="fill:#ffa412"/><rect x="1171.2" y="1489.8" width="4" height="32.95" style="fill:#ffa412"/><rect x="1146.2" y="1489.8" width="4" height="32.95" style="fill:#ffa412"/><rect x="1119.8" y="1489.8" width="4" height="32.95" style="fill:#ffa412"/><rect x="1079.4" y="1489.8" width="4" height="32.95" style="fill:#ffa412"/><rect x="1041.5" y="1489.8" width="4" height="32.95" style="fill:#ffa412"/><rect x="1007.6" y="1489.8" width="4" height="32.95" style="fill:#ffa412"/><rect x="1214" y="1489.8" width="4" height="32.95" style="fill:#ffa412"/><rect x="1222.5" y="1489.8" width="4" height="32.95" style="fill:#ffa412"/><rect x="1230.8" y="1489.8" width="4" height="32.95" style="fill:#ffa412"/><path d="M1452.2,1672.3V1705h-4v-32.9h4Z" transform="translate(-211.2 -182.3)" style="fill:#ffa412"/><path d="M1457.8,1675.3v26.6a8.6,8.6,0,0,1-4,2.7v-32A9.5,9.5,0,0,1,1457.8,1675.3Z" transform="translate(-211.2 -182.3)" style="fill:#ffa412"/><path d="M1433.3,1646.4V1665a5.9,5.9,0,0,1-1.5,4,7.7,7.7,0,0,1-4,2.7l-1.5.4H1071.8c-4.6,0-8.3-3-8.6-6.8v-19.6c.3-3.1,2.9-5.6,6.4-6.3h.2l1.9-.2h354.5l1.5.3a8.4,8.4,0,0,1,4,2.7A6,6,0,0,1,1433.3,1646.4Z" transform="translate(-211.2 -182.3)" style="fill:#ffb93e"/><path d="M1260,1672.2H1070.9a7.5,7.5,0,0,1-7.7-6.8v-19.6a7.3,7.3,0,0,1,5.9-6.4h.3l1.4-.2h165.8a.4.4,0,0,1,.1.3,58.5,58.5,0,0,0,23.1,32.7Z" transform="translate(-211.2 -182.3)" style="fill:#ffa412"/><rect x="1175.1" y="1456.9" width="4" height="32.95" style="fill:#ffa412"/><rect x="1161.5" y="1456.9" width="4" height="32.95" style="fill:#ffa412"/><rect x="1145.2" y="1456.9" width="4" height="32.95" style="fill:#ffa412"/><rect x="1120.3" y="1456.9" width="4" height="32.95" style="fill:#ffa412"/><rect x="1093.9" y="1456.9" width="4" height="32.95" style="fill:#ffa412"/><rect x="1053.4" y="1456.9" width="4" height="32.95" style="fill:#ffa412"/><rect x="1015.5" y="1456.9" width="4" height="32.95" style="fill:#ffa412"/><rect x="981.7" y="1456.9" width="4" height="32.95" style="fill:#ffa412"/><rect x="1188" y="1456.9" width="4" height="32.95" style="fill:#ffa412"/><rect x="1196.6" y="1456.9" width="4" height="32.95" style="fill:#ffa412"/><rect x="1204.8" y="1456.9" width="4" height="32.95" style="fill:#ffa412"/><path d="M1426.3,1639.4v32.7h-4v-33h2.5Z" transform="translate(-211.2 -182.3)" style="fill:#ffa412"/><path d="M1431.8,1642.4V1669a7.7,7.7,0,0,1-4,2.7v-32A8.4,8.4,0,0,1,1431.8,1642.4Z" transform="translate(-211.2 -182.3)" style="fill:#ffa412"/><path d="M1432.6,1613.7v18.6a6.4,6.4,0,0,1-1.5,4l-.8.9a9.2,9.2,0,0,1-3.2,1.8l-1.2.3H1069.5c-3.6-.6-6.4-3-6.9-6.1a1.3,1.3,0,0,1-.1-.6v-19.4a2,2,0,0,1,.1-.7c.6-3.4,4.2-6.1,8.4-6.1h354.5l1.6.4.9.3h0a9.5,9.5,0,0,1,2.8,2l.3.4A6.4,6.4,0,0,1,1432.6,1613.7Z" transform="translate(-211.2 -182.3)" style="fill:#ffb93e"/><path d="M1259.2,1639.5h-190a7.3,7.3,0,0,1-6.6-6.1,1.3,1.3,0,0,1-.1-.6v-19.4a2,2,0,0,1,.1-.7,1.9,1.9,0,0,1,.2-.7,7.6,7.6,0,0,1,7.3-5.4H1236c.1.3.1.6.2.8a57.6,57.6,0,0,0,22.7,31.9Z" transform="translate(-211.2 -182.3)" style="fill:#ffa412"/><rect x="1174.4" y="1424.2" width="4" height="32.95" style="fill:#ffa412"/><rect x="1160.8" y="1424.2" width="4" height="32.95" style="fill:#ffa412"/><rect x="1144.5" y="1424.2" width="4" height="32.95" style="fill:#ffa412"/><rect x="1119.5" y="1424.2" width="4" height="32.95" style="fill:#ffa412"/><rect x="1093.1" y="1424.2" width="4" height="32.95" style="fill:#ffa412"/><rect x="1052.7" y="1424.2" width="4" height="32.95" style="fill:#ffa412"/><rect x="1014.8" y="1424.2" width="4" height="32.95" style="fill:#ffa412"/><rect x="980.9" y="1424.2" width="4" height="32.95" style="fill:#ffa412"/><rect x="1187.3" y="1424.2" width="4" height="32.95" style="fill:#ffa412"/><rect x="1195.8" y="1424.2" width="4" height="32.95" style="fill:#ffa412"/><rect x="1204.1" y="1424.2" width="4" height="32.95" style="fill:#ffa412"/><path d="M1425.5,1606.6v32.8h-4v-33h4Z" transform="translate(-211.2 -182.3)" style="fill:#ffa412"/><path d="M1431.1,1609.7v26.6a8.6,8.6,0,0,1-4,2.7v-32A8.6,8.6,0,0,1,1431.1,1609.7Z" transform="translate(-211.2 -182.3)" style="fill:#ffa412"/><path d="M1450.8,1581.6v18.6a6,6,0,0,1-1.5,4,8.4,8.4,0,0,1-4,2.7l-1.5.3H1089.3a10.2,10.2,0,0,1-4-.8,7.5,7.5,0,0,1-4.5-5.2v-.4a.8.8,0,0,1-.1-.4v-19.3c0-.2.1-.5.1-.7.6-3.4,4.2-6.1,8.5-6.1h354.5l1.5.4a7.2,7.2,0,0,1,4,2.7A5.9,5.9,0,0,1,1450.8,1581.6Z" transform="translate(-211.2 -182.3)" style="fill:#ffb93e"/><path d="M1277.5,1607.3H1088.3a8.5,8.5,0,0,1-3.5-.8,7.1,7.1,0,0,1-4-5.2v-.4a.8.8,0,0,1-.1-.4v-19.3c0-.2.1-.5.1-.7s.1-.5.2-.8a7.6,7.6,0,0,1,7.3-5.3h165.9a57.8,57.8,0,0,0,22.1,32.1Z" transform="translate(-211.2 -182.3)" style="fill:#ffa412"/><rect x="1192.6" y="1392.1" width="4" height="32.95" style="fill:#ffa412"/><rect x="1179" y="1392.1" width="4" height="32.95" style="fill:#ffa412"/><rect x="1162.7" y="1392.1" width="4" height="32.95" style="fill:#ffa412"/><rect x="1137.8" y="1392.1" width="4" height="32.95" style="fill:#ffa412"/><rect x="1111.4" y="1392.1" width="4" height="32.95" style="fill:#ffa412"/><rect x="1070.9" y="1392.1" width="4" height="32.95" style="fill:#ffa412"/><rect x="1033" y="1392.1" width="4" height="32.95" style="fill:#ffa412"/><rect x="999.2" y="1392.1" width="4" height="32.95" style="fill:#ffa412"/><rect x="1205.5" y="1392.1" width="4" height="32.95" style="fill:#ffa412"/><rect x="1214.1" y="1392.1" width="4" height="32.95" style="fill:#ffa412"/><rect x="1222.3" y="1392.1" width="4" height="32.95" style="fill:#ffa412"/><path d="M1443.8,1574.5v32.7h-4v-32.9h4Z" transform="translate(-211.2 -182.3)" style="fill:#ffa412"/><path d="M1449.3,1577.6v26.6a8.4,8.4,0,0,1-4,2.7v-32A7.7,7.7,0,0,1,1449.3,1577.6Z" transform="translate(-211.2 -182.3)" style="fill:#ffa412"/><path d="M1479.6,1548.6v18.6a6.3,6.3,0,0,1-1.4,4h0l-.4.5a9.4,9.4,0,0,1-1.9,1.4l-1.1.6h0l-.6.2-1.6.4H1118.1c-4.2,0-7.8-2.7-8.4-6.1a1.7,1.7,0,0,1-.1-.7v-19.4c.2-3.4,3.4-6.3,7.5-6.7h355.5l1.6.4a9.7,9.7,0,0,1,3.6,2.3l.4.4h0A6.5,6.5,0,0,1,1479.6,1548.6Z" transform="translate(-211.2 -182.3)" style="fill:#ffb93e"/><path d="M1306.3,1574.4H1117.2a7.5,7.5,0,0,1-7.3-5.3,3.1,3.1,0,0,1-.2-.8,1.7,1.7,0,0,1-.1-.7v-19.4a7.4,7.4,0,0,1,6.7-6.7h166.8A57.8,57.8,0,0,0,1306.3,1574.4Z" transform="translate(-211.2 -182.3)" style="fill:#ffa412"/><rect x="1221.5" y="1359.1" width="4" height="32.95" style="fill:#ffa412"/><rect x="1207.9" y="1359.1" width="4" height="32.95" style="fill:#ffa412"/><rect x="1191.6" y="1359.1" width="4" height="32.95" style="fill:#ffa412"/><rect x="1166.6" y="1359.1" width="4" height="32.95" style="fill:#ffa412"/><rect x="1140.2" y="1359.1" width="4" height="32.95" style="fill:#ffa412"/><rect x="1099.8" y="1359.1" width="4" height="32.95" style="fill:#ffa412"/><rect x="1061.9" y="1359.1" width="4" height="32.95" style="fill:#ffa412"/><rect x="1028" y="1359.1" width="4" height="32.95" style="fill:#ffa412"/><rect x="1234.4" y="1359.1" width="4" height="32.95" style="fill:#ffa412"/><rect x="1242.9" y="1359.1" width="4" height="32.95" style="fill:#ffa412"/><rect x="1251.2" y="1359.1" width="4" height="32.95" style="fill:#ffa412"/><path d="M1472.6,1541.5v32.8h-4v-33h4Z" transform="translate(-211.2 -182.3)" style="fill:#ffa412"/><path d="M1478.2,1544.6v26.6a8.6,8.6,0,0,1-4,2.7v-32A8.6,8.6,0,0,1,1478.2,1544.6Z" transform="translate(-211.2 -182.3)" style="fill:#ffa412"/><path d="M1433.3,1515.7v18.6a5.9,5.9,0,0,1-1.5,4,7.7,7.7,0,0,1-4,2.7l-1.5.4H1071.8a9.1,9.1,0,0,1-7.3-3.4,7.1,7.1,0,0,1-1.3-3.4v-19.4c.2-3,2.7-5.6,6.1-6.5a10.1,10.1,0,0,1,2.5-.3h354.5l1.5.4.8.3h0a9.7,9.7,0,0,1,2.4,1.5h.2l.6.7A5.9,5.9,0,0,1,1433.3,1515.7Z" transform="translate(-211.2 -182.3)" style="fill:#ffb93e"/><path d="M1260,1541.5H1070.9a7.6,7.6,0,0,1-6.4-3.3,7.1,7.1,0,0,1-1.3-3.5v-19.4a7.3,7.3,0,0,1,6.1-6.6l1.6-.2h165.8l.3.8a56.9,56.9,0,0,0,22.9,32.1Z" transform="translate(-211.2 -182.3)" style="fill:#ffa412"/><rect x="1175.1" y="1326.2" width="4" height="32.95" style="fill:#ffa412"/><rect x="1161.5" y="1326.2" width="4" height="32.95" style="fill:#ffa412"/><rect x="1145.2" y="1326.2" width="4" height="32.95" style="fill:#ffa412"/><rect x="1120.3" y="1326.2" width="4" height="32.95" style="fill:#ffa412"/><rect x="1093.9" y="1326.2" width="4" height="32.95" style="fill:#ffa412"/><rect x="1053.4" y="1326.2" width="4" height="32.95" style="fill:#ffa412"/><rect x="1015.5" y="1326.2" width="4" height="32.95" style="fill:#ffa412"/><rect x="981.7" y="1326.2" width="4" height="32.95" style="fill:#ffa412"/><rect x="1188" y="1326.2" width="4" height="32.95" style="fill:#ffa412"/><rect x="1196.6" y="1326.2" width="4" height="32.95" style="fill:#ffa412"/><rect x="1204.8" y="1326.2" width="4" height="32.95" style="fill:#ffa412"/><path d="M1426.3,1508.6v32.8h-4v-33h4Z" transform="translate(-211.2 -182.3)" style="fill:#ffa412"/><path d="M1431.8,1511.7v26.6a7.7,7.7,0,0,1-4,2.7v-32A7.7,7.7,0,0,1,1431.8,1511.7Z" transform="translate(-211.2 -182.3)" style="fill:#ffa412"/><path d="M1459.3,1483.5v18.6a6.4,6.4,0,0,1-1.5,4,8.6,8.6,0,0,1-4,2.7l-1.6.4H1097.7a10,10,0,0,1-3.8-.8,7.3,7.3,0,0,1-4.7-5.7v-19.7c.2-3.5,3.4-6.3,7.5-6.7h354l1.5.2a7.6,7.6,0,0,1,1.6.3,9.5,9.5,0,0,1,4,2.7A6.4,6.4,0,0,1,1459.3,1483.5Z" transform="translate(-211.2 -182.3)" style="fill:#ffb93e"/><path d="M1285.9,1509.3H1096.8a7.7,7.7,0,0,1-3.4-.8,7.3,7.3,0,0,1-4.2-5.7v-19.7a7.5,7.5,0,0,1,6.7-6.7h166.8a57.8,57.8,0,0,0,22.1,32.1Z" transform="translate(-211.2 -182.3)" style="fill:#ffa412"/><rect x="1201.1" y="1294" width="4" height="32.96" style="fill:#ffa412"/><rect x="1187.5" y="1294" width="4" height="32.96" style="fill:#ffa412"/><rect x="1171.2" y="1294" width="4" height="32.96" style="fill:#ffa412"/><rect x="1146.2" y="1294" width="4" height="32.96" style="fill:#ffa412"/><rect x="1119.8" y="1294" width="4" height="32.96" style="fill:#ffa412"/><rect x="1079.4" y="1294" width="4" height="32.96" style="fill:#ffa412"/><rect x="1041.5" y="1294" width="4" height="32.96" style="fill:#ffa412"/><rect x="1007.6" y="1294" width="4" height="32.96" style="fill:#ffa412"/><rect x="1214" y="1294" width="4" height="32.96" style="fill:#ffa412"/><rect x="1222.5" y="1294" width="4" height="32.96" style="fill:#ffa412"/><rect x="1230.8" y="1294" width="4" height="32.96" style="fill:#ffa412"/><path d="M1452.2,1476.5v32.7h-4v-33h2.5Z" transform="translate(-211.2 -182.3)" style="fill:#ffa412"/><path d="M1457.8,1479.5v26.6a8.6,8.6,0,0,1-4,2.7v-32A8.6,8.6,0,0,1,1457.8,1479.5Z" transform="translate(-211.2 -182.3)" style="fill:#ffa412"/><path d="M1470.3,1450.6v18.6a5.9,5.9,0,0,1-1.5,4,7.7,7.7,0,0,1-4,2.7l-1.5.4H1108.8c-4.6,0-8.3-3-8.6-6.8v-19.4c.3-3.7,4-6.8,8.6-6.8h354.5l1.5.4a7.7,7.7,0,0,1,4,2.7A5.9,5.9,0,0,1,1470.3,1450.6Z" transform="translate(-211.2 -182.3)" style="fill:#ffb93e"/><path d="M1297,1476.4H1107.9a7.5,7.5,0,0,1-7.7-6.8v-19.4a7.6,7.6,0,0,1,7.7-6.8h165.8a57.8,57.8,0,0,0,23.2,32.9C1296.9,1476.4,1296.9,1476.4,1297,1476.4Z" transform="translate(-211.2 -182.3)" style="fill:#ffa412"/><rect x="1212.1" y="1261.1" width="4" height="32.95" style="fill:#ffa412"/><rect x="1198.5" y="1261.1" width="4" height="32.95" style="fill:#ffa412"/><rect x="1182.2" y="1261.1" width="4" height="32.95" style="fill:#ffa412"/><rect x="1157.3" y="1261.1" width="4" height="32.95" style="fill:#ffa412"/><rect x="1130.9" y="1261.1" width="4" height="32.95" style="fill:#ffa412"/><rect x="1090.4" y="1261.1" width="4" height="32.95" style="fill:#ffa412"/><rect x="1052.5" y="1261.1" width="4" height="32.95" style="fill:#ffa412"/><rect x="1018.7" y="1261.1" width="4" height="32.95" style="fill:#ffa412"/><rect x="1225" y="1261.1" width="4" height="32.95" style="fill:#ffa412"/><rect x="1233.6" y="1261.1" width="4" height="32.95" style="fill:#ffa412"/><rect x="1241.8" y="1261.1" width="4" height="32.95" style="fill:#ffa412"/><path d="M1463.3,1443.5v32.8h-4v-33h4Z" transform="translate(-211.2 -182.3)" style="fill:#ffa412"/><path d="M1468.8,1446.6v26.6a7.7,7.7,0,0,1-4,2.7v-32A7.7,7.7,0,0,1,1468.8,1446.6Z" transform="translate(-211.2 -182.3)" style="fill:#ffa412"/><path d="M1358.4,1255.6s-18.5,26.1-35.5,26.5S1280,1270,1280,1270s-15.6-34.8-5-48.4c0,0,10.6-4.6,21.7,3.6a32.6,32.6,0,0,1,5.8,5.5,17.9,17.9,0,0,0,8.9,6c12.1,3.7,26.5-5,31.9,3.4a55.8,55.8,0,0,0,9.4,11.1A38,38,0,0,0,1358.4,1255.6Z" transform="translate(-211.2 -182.3)" style="fill:#ffeddc"/><path d="M1116.7,1443.9s65.5-158.8,183.5-161.8c0,0,108.9,12.1,114.9,161.8Z" transform="translate(-211.2 -182.3)" style="fill:#ffeddc"/><path d="M1267.9,1286.9s47.3,10.6,61.8,4.4c0,0,2.2-19.8-17.7-17-13.6,1.9-22.5-4.7-27.7-7.3C1276.9,1263.2,1265.9,1278.7,1267.9,1286.9Z" transform="translate(-211.2 -182.3)" style="fill:#db6a1d"/><path d="M1309,1257.1c-3,2.3-12.3-31.9-12.3-31.9a32.6,32.6,0,0,1,5.8,5.5,17.9,17.9,0,0,0,8.9,6C1311.4,1237.7,1312,1254.9,1309,1257.1Z" transform="translate(-211.2 -182.3)" style="fill:#e5c1a1"/><path d="M1352.7,1251.2c-.7.4-22.6,13.5-25.5,13.5s16.1-24.6,16.1-24.6A55.8,55.8,0,0,0,1352.7,1251.2Z" transform="translate(-211.2 -182.3)" style="fill:#e5c1a1"/><path d="M1180.7,1399.6c-1.2-1.1,46.4-70.1,59.5-70.6s42.6,15.1,63.9,17.1,42-4,46,8.6,15.1,57.3,8.3,64.4S1206.9,1421.9,1180.7,1399.6Z" transform="translate(-211.2 -182.3)" style="fill:#f9ddbf"/><path d="M1641.7,819.9a108.5,108.5,0,0,1-9.6,6.6l-3.9,2.3a107.4,107.4,0,0,1-10.3,4.9l-3-.5c-6.4-1.1-12.6-2-18.8-2.9l-9-1.3c-12.6-1.6-24.8-3-36.3-4l-9.2-.8-7-.6-16.5-1a100.4,100.4,0,0,1-20.2-18.9,108.4,108.4,0,0,1-10.7-15.7c-27.6-50.2-9.4-113.4,40.8-141a38.4,38.4,0,0,1,4-2.1,103.8,103.8,0,0,1,109.7,175Z" transform="translate(-211.2 -182.3)" style="fill:#ffb93e"/><path d="M1660.2,694.1a93,93,0,1,0-162.9,89.7,91.7,91.7,0,0,0,44.3,40.4l9.2.8a92.9,92.9,0,0,1-34.5-20.5,91.7,91.7,0,0,1-16.8-21.9,90.4,90.4,0,1,1,125.3,34.2l-2.4,1.4a90.3,90.3,0,0,1-35.3,10.8l9,1.3a94.7,94.7,0,0,0,27.5-9.9l5-2.9A93.2,93.2,0,0,0,1660.2,694.1Z" transform="translate(-211.2 -182.3)" style="fill:#ffa412"/><path d="M1624.4,748a27.9,27.9,0,0,0-6.9-10.5,27.3,27.3,0,0,0-9.9-5.8,48.6,48.6,0,0,0-12.6-2.4,148.8,148.8,0,0,0-15.1-.2,75.2,75.2,0,0,1-8.6-.2,19.8,19.8,0,0,1-6.1-1.3,11.1,11.1,0,0,1-4.1-2.8,14.3,14.3,0,0,1-2.6-4.2,18,18,0,0,1-1.1-5,10.8,10.8,0,0,1,.7-4.7,12.4,12.4,0,0,1,2.9-4.1,17.7,17.7,0,0,1,5.3-3.2,13.1,13.1,0,0,1,11.3.1c3.5,1.7,6.4,5.3,8.6,10.7l21.1-8.6a37.7,37.7,0,0,0-6.9-11.4,28.5,28.5,0,0,0-9.4-7.3,30,30,0,0,0-11.3-3,44.2,44.2,0,0,0-12.8,1.3l-6-14.7-11.7,4.7,5.9,14.6a43.6,43.6,0,0,0-10.7,7.6,34,34,0,0,0-6.8,9.5,27.9,27.9,0,0,0-2.5,10.6,29,29,0,0,0,2.3,11.4,28.2,28.2,0,0,0,6.9,10.5,29.3,29.3,0,0,0,9.9,5.9,48.7,48.7,0,0,0,12.6,2.2,128.3,128.3,0,0,0,15.2,0,54.3,54.3,0,0,1,8.2.1,20.4,20.4,0,0,1,6.1,1.3,11.7,11.7,0,0,1,4.2,2.9,16.4,16.4,0,0,1,2.9,4.7,14.8,14.8,0,0,1,1,5,10.1,10.1,0,0,1-1.2,4.8,12.7,12.7,0,0,1-3.3,4.2,19.4,19.4,0,0,1-5.7,3.3,22.7,22.7,0,0,1-6.2,1.6,13.6,13.6,0,0,1-6.3-.6,15.1,15.1,0,0,1-5.7-3.7,24.1,24.1,0,0,1-4.6-7.5l-21.1,8.6a36,36,0,0,0,8.3,12.9,30.4,30.4,0,0,0,10.9,6.9,34.7,34.7,0,0,0,12.5,1.7,46.9,46.9,0,0,0,12.8-2.1l5.5,13.5,11.6-4.7-5.5-13.6a48.8,48.8,0,0,0,10.9-7.5,33,33,0,0,0,6.9-9.3,26.1,26.1,0,0,0,2.5-10.6A27.3,27.3,0,0,0,1624.4,748Z" transform="translate(-211.2 -182.3)" style="fill:#ffa412"/><path d="M1217.1,1682.1c-18.7,54.4-65.8,95.2-116.9,109.8V1777c0-.2.1-.5.1-.7s.1-.5.2-.8a7.6,7.6,0,0,1,7.4-5.3h-37.8a7.6,7.6,0,0,1-7.3-5.3,2.4,2.4,0,0,1-.2-.8,1.7,1.7,0,0,1-.1-.7V1744a1.3,1.3,0,0,1,.1-.6,1.9,1.9,0,0,1,.2-.8,7.6,7.6,0,0,1,7.3-5.4h14.7a7.1,7.1,0,0,1-4-5.2v-.4a.4.4,0,0,1-.1-.3v-19.4c0-.2.1-.5.1-.7s.1-.5.2-.7a7.6,7.6,0,0,1,7.3-5.4h8.5a7.5,7.5,0,0,1-7.3-5.3,2.4,2.4,0,0,1-.2-.8,1.7,1.7,0,0,1-.1-.7V1679a7.5,7.5,0,0,1,6.7-6.8h-25a7.5,7.5,0,0,1-7.7-6.8v-19.6a6.3,6.3,0,0,0-.7-12.5,1.3,1.3,0,0,1-.1-.6v-19.4a2,2,0,0,1,.1-.7,1.9,1.9,0,0,1,.2-.7,7.6,7.6,0,0,1,7.3-5.4h14.7a7.1,7.1,0,0,1-4-5.2v-.4a.8.8,0,0,1-.1-.4v-19.3c0-.2.1-.5.1-.7s.1-.5.2-.8a7.6,7.6,0,0,1,7.3-5.3h28.9a7.5,7.5,0,0,1-7.3-5.3,3.1,3.1,0,0,1-.2-.8,1.7,1.7,0,0,1-.1-.7v-19.4a7.4,7.4,0,0,1,6.7-6.7h-45.4a7.6,7.6,0,0,1-6.4-3.3h0l4.8-29.3h0l6.8-41.7c79.5,10.6,139.1,70.9,148.4,143.7A158.3,158.3,0,0,1,1217.1,1682.1Z" transform="translate(-211.2 -182.3)" style="fill:#e2810e;opacity:0.5"/><circle cx="1013" cy="1622.2" r="173.6" transform="translate(-1061.6 1009.1) rotate(-45)" style="fill:#e2810e"/><path d="M1090,1777.8l-6.5,3.8-2.2,1.2-5.2,2.7c-82.7,40.6-183.5,9.4-228.5-72.1a173.7,173.7,0,0,1,50.6-224.7,160.5,160.5,0,0,1,17.7-11.2c2.2-1.2,4.4-2.4,6.7-3.5s4.4-2.2,6.6-3.1a161.6,161.6,0,0,1,20.7-7.7,182.3,182.3,0,0,1,31.4-6.4,175.6,175.6,0,0,1,94.8,16.8,173.5,173.5,0,0,1,75.7,72.1C1196.8,1627.5,1169.1,1729.8,1090,1777.8Z" transform="translate(-211.2 -182.3)" style="fill:#ffb93e"/><path d="M1000.9,1787a157.5,157.5,0,0,1-43.4-6.2,155.5,155.5,0,0,1-31.9-285.7c75.1-41.4,169.9-14,211.3,61.1s14,170-61.1,211.4A154.3,154.3,0,0,1,1000.9,1787Zm-.5-307a151.4,151.4,0,1,0,73.4,283.9c73.1-40.3,99.8-132.5,59.5-205.6A151.7,151.7,0,0,0,1000.4,1480Z" transform="translate(-211.2 -182.3)" style="fill:#ffa412"/><path d="M1077.2,1646.5a18.9,18.9,0,0,0-1.1-2.5,46.2,46.2,0,0,0-10.5-15.1,46.9,46.9,0,0,0-16.6-9.7,79.1,79.1,0,0,0-21.1-4q-11.6-.7-25.2-.3a109.7,109.7,0,0,1-14.5-.3,38.7,38.7,0,0,1-10.2-2.2,19.9,19.9,0,0,1-6.8-4.6,28,28,0,0,1-4.3-7.2,25,25,0,0,1-1.9-8.3,17.1,17.1,0,0,1,1.2-7.8,19.6,19.6,0,0,1,4.8-6.9,29.3,29.3,0,0,1,8.9-5.4c6.8-2.7,13.1-2.7,19,.2s10.6,8.8,14.3,17.9l35.4-14.3a66.8,66.8,0,0,0-11.6-19.2,48.8,48.8,0,0,0-15.7-12.1,48.2,48.2,0,0,0-19-5,65.9,65.9,0,0,0-21.3,2.1l-10-24.6-19.6,7.9,9.9,24.4a72.3,72.3,0,0,0-18,12.7A55.6,55.6,0,0,0,932,1578a43.1,43.1,0,0,0-4.2,17.9,48.3,48.3,0,0,0,3.7,19c3,7.4,6.9,13.3,11.7,17.6a45,45,0,0,0,16.5,9.7,79.2,79.2,0,0,0,21.1,3.9,240.2,240.2,0,0,0,25.4-.1,103.6,103.6,0,0,1,13.8.1,35.8,35.8,0,0,1,10.1,2.3,18.6,18.6,0,0,1,7.1,4.8,27.9,27.9,0,0,1,4.7,7.8,21.4,21.4,0,0,1,1.7,8.4,17.1,17.1,0,0,1-1.9,8,21.7,21.7,0,0,1-5.6,7.1,34.4,34.4,0,0,1-9.5,5.5,37.1,37.1,0,0,1-10.4,2.7,22.9,22.9,0,0,1-10.4-1,23.6,23.6,0,0,1-9.6-6.2,36.6,36.6,0,0,1-7.7-12.5l-35.4,14.3c3.7,9.1,8.3,16.3,13.9,21.6a49.9,49.9,0,0,0,18.3,11.5,56.2,56.2,0,0,0,20.8,3,87.9,87.9,0,0,0,21.5-3.6l9.1,22.5,19.5-7.9-9.2-22.6a77.4,77.4,0,0,0,18.2-12.7,52.3,52.3,0,0,0,10.9-14.3l.6-1.2a43.6,43.6,0,0,0,4.3-17.8A47.1,47.1,0,0,0,1077.2,1646.5Z" transform="translate(-211.2 -182.3)" style="fill:#ffa412"/><path d="M870.7,1018.3c.5-2.2-46.3,21.1-48.6,23.7-22,24.4-15.7,56.1-3.2,56.4,8.1.2,6.5,13.6,6.5,13.6l89.7-37.9S904.3,1011.1,870.7,1018.3Z" transform="translate(-211.2 -182.3)" style="fill:#2c3a64"/><path d="M881.7,1023.2s3.2-35-35.8-35c0,0,11.8,3.3,17.9,9.7,0,0-24.9-14.6-51.9,7.8s-10.3,78.8-18.5,89.5-40.4,12.8-36.5,47.4,101.9,77.9,95.6,106.5c0,0,38.4-56.4,10.9-82.1,0,0,13.4,12.6,14.8,27.6,0,0,3.6-29.3-15-38.6-16.5-8.3-30-38.6-28.5-44S881.7,1023.2,881.7,1023.2Z" transform="translate(-211.2 -182.3)" style="fill:#2c3a64"/><path d="M846.3,1187.6c-6-29-43.6-38-61.4-14.3a30.5,30.5,0,0,0-6.2,15.2c-4,32.9,48.6,166.9,56.1,179,13.7,22.1,94.5,97.9,94.5,97.9l14.9-9.1s-57.3-96.9-66.2-106S857.7,1242.6,846.3,1187.6Z" transform="translate(-211.2 -182.3)" style="fill:#ed985f"/><path d="M923.6,1456.4s21.7-14.3,30-13.4,32,7.8,32.3,11.3-26.5,5.7-28.3,7.6-20,14.1-26.6,10.3S923.6,1456.4,923.6,1456.4Z" transform="translate(-211.2 -182.3)" style="fill:#ed985f"/><path d="M772.1,1778.7l-19.4-2.9s-65.3-51.9-75-148.6a175.5,175.5,0,0,1-.5-29.9,5.2,5.2,0,0,0-.6-3.3h-.1c-2.1-3.2-7.3-11.2-14.3-22.6s-18.8-32.5-31.9-56.3c-23.5-43-50.9-94.3-60.3-110.7-29.9-52.1-15.5-87.2-15.5-87.2s83.5-8.2,106.4-28.2l8.3,12.7s18.1,80.1,17.2,80.4c.9,2.8,1.8,5.5,2.7,8.4,14.3,44.1,30.7,99.1,39.7,144,5,25.3,7.7,47.3,6.2,62.3-.4,5.1.2,13,1.5,22.8C744.6,1677,772.1,1778.7,772.1,1778.7Z" transform="translate(-211.2 -182.3)" style="fill:#2b478b"/><path d="M812.8,1803.2h-81s-1.9-12.3,2.3-21.7,9.8-9.3.7-23.3c5.2,5.3,21.7,7.4,33.4,5.9,1.5,2.3,9.3,17.9,14.1,21.3S811.2,1787.9,812.8,1803.2Z" transform="translate(-211.2 -182.3)" style="fill:#233862"/><path d="M689.1,1390.4c-7.1,39-23.8,103.9-58.8,124.6-23.5-43-50.9-94.3-60.3-110.7-29.9-52.1-15.5-87.2-15.5-87.2s83.5-8.2,106.4-28.2l8.3,12.7s18.1,80.1,17.2,80.4C687.3,1384.8,688.2,1387.5,689.1,1390.4Z" transform="translate(-211.2 -182.3)" style="fill:#233862"/><path d="M837.6,1169.6s11.5,11.9,16.7,26.1c0,0-18.3,52.5-60.9,59.1C793.4,1254.8,827.1,1169.6,837.6,1169.6Z" transform="translate(-211.2 -182.3)" style="fill:#ed7d2b"/><path d="M632.3,1323.2l.3-15.2c-30.2,3.8-104-36-104-36s-31.6,21-35.9,80.9c-2.1,29.3-15.5,153-17,190-.5,13.4-.7,23-.7,26.8h0a5.1,5.1,0,0,1-1.3,3.1,174.3,174.3,0,0,0-16.4,25.1c-46,85.7-21.9,202.1-21.9,202.1l10.7-2.8s38.9-120.6,64.3-172.8c4.4-8.9,8.3-15.8,11.6-19.7,9.5-11.7,19.6-31.4,29.6-55.1,18.8-44.9,37-104.2,50-150.1C602.5,1399.7,632.3,1323.2,632.3,1323.2Z" transform="translate(-211.2 -182.3)" style="fill:#2b478b"/><path d="M808.9,1222.1c-49.3-11.3-17.8-80.7-15-79.4,6.9-1.4,21.9-13.4,35.3-36.9l1.8,1.6,30.3,26.6s-7,10.3-12.9,20.4c-4.6,7.9-8.5,15.7-7.9,18.4C843,1174.7,822.1,1225.1,808.9,1222.1Z" transform="translate(-211.2 -182.3)" style="fill:#ffb27d"/><path d="M861.3,1134s-7,10.3-12.9,20.4c-18.8-11.6-18.8-34.9-17.4-47Z" transform="translate(-211.2 -182.3)" style="fill:#ed985f"/><path d="M862.2,1147.3s-45.8-25.5-29.5-53.7,21.4-50.5,51.3-35.5,29.3,29.1,26.1,39.8S874.5,1153.2,862.2,1147.3Z" transform="translate(-211.2 -182.3)" style="fill:#ffb27d"/><path d="M917.8,1081.5c-2.1-12.6-8.4-13.8-12.9-12.9-16.9-28-44.4-17.1-44.4-17.1-14.8,18.5-36.1,21.7-36.1,21.7s5.3,9.9,27.2,16c6.7,1.8,14.2.7,21.5-1.8a119.3,119.3,0,0,1-31,11.7c28.8,2.7,56.2-23.7,59.1-26.5,1.3,4.1,3.7,12.7,2.3,18.9-1.9,8.5-9.5,23.9-4.9,25.9C898.6,1117.4,921,1100.3,917.8,1081.5Z" transform="translate(-211.2 -182.3)" style="fill:#2c3a64"/><path d="M499.8,1803.2h-81s-2-12.3,2.3-21.7,10.4-13.1,8.9-23.9c5.1,5.3,13.5,11.2,25.2,9.6,1.4,2.4,9.3,14.8,14,18.2S498.1,1787.9,499.8,1803.2Z" transform="translate(-211.2 -182.3)" style="fill:#233862"/><path d="M814.7,1277c-10.4,3.7-25,5.7-40,7.3-21.3,2.3-43.3,3.9-54.8,8.5-4.2,1.7-7,3.7-7.9,6.4-5,15-27,38.1-27,38.1-141-6.4-156.4-65.3-156.4-65.3C623.4,1161.6,784,1129.7,784,1129.7s11.5-4.8,40.4,18.1c19.3,15.3,16.7,21.2,16.7,21.2S845.4,1266.3,814.7,1277Z" transform="translate(-211.2 -182.3)" style="fill:#f99746"/><path d="M774.7,1284.3c-21.3,2.3-43.3,3.9-54.8,8.5-4.7-70.3,28.5-123.2,28.5-123.2S770,1257.7,774.7,1284.3Z" transform="translate(-211.2 -182.3)" style="fill:#ed7d2b"/><path d="M796.6,1156s-53.3,5.2-57.6,39.9,51.1,175.9,59.1,188.7c14.4,23.3,99.5,103.1,99.5,103.1l15.7-9.5S853,1376,843.6,1366.4C828.9,1351.4,814.7,1168,796.6,1156Z" transform="translate(-211.2 -182.3)" style="fill:#ffb27d"/><path d="M740.5,1216.8c.2.8,49.3,16,80.9,0,0,0,6.7-72.9-31-69s-60.1,15.9-61,33.9S740.5,1216.8,740.5,1216.8Z" transform="translate(-211.2 -182.3)" style="fill:#f99746"/><path d="M892.8,1477.6s19.1-17.6,27.4-18,32.9,2.5,33.7,5.9-25.3,9.9-26.7,12-17.5,17.1-24.6,14.4S892.8,1477.6,892.8,1477.6Z" transform="translate(-211.2 -182.3)" style="fill:#ffb27d"/><path d="M2001.8,1807.7h0c-4.9.1-10-3.5-11.4-7.8L1698.9,904.4c-1.4-4.4,1.4-8,6.2-8h0c4.9,0,9.9,3.5,11.4,7.9l291.4,895.5C2009.4,1804.1,2006.6,1807.7,2001.8,1807.7Z" transform="translate(-211.2 -182.3)" style="fill:#233862"/><path d="M2236.7,1806.4h0c-4.9,0-10-3.5-11.4-7.9L1933.8,903c-1.4-4.4,1.4-8,6.2-8h0c4.9,0,9.9,3.5,11.4,7.9l291.4,895.5C2244.3,1802.8,2241.5,1806.3,2236.7,1806.4Z" transform="translate(-211.2 -182.3)" style="fill:#233862"/><path d="M1983.7,1027.8l-235.9,1.4a12,12,0,0,1-10.7-7.5h0c-1.3-4.1,1.3-7.5,5.9-7.5l235.9-1.4c4.5,0,9.3,3.3,10.7,7.4h0C1990.9,1024.4,1988.3,1027.8,1983.7,1027.8Z" transform="translate(-211.2 -182.3)" style="fill:#233862"/><path d="M2034.6,1184.1l-235.9,1.4c-4.5,0-9.3-3.3-10.7-7.4h0c-1.3-4.2,1.3-7.5,5.9-7.6l235.8-1.4c4.6,0,9.4,3.4,10.7,7.5h0C2041.8,1180.7,2039.2,1184.1,2034.6,1184.1Z" transform="translate(-211.2 -182.3)" style="fill:#233862"/><path d="M2083.6,1334.7l-235.9,1.4c-4.5,0-9.3-3.3-10.7-7.5h0c-1.3-4.1,1.3-7.5,5.9-7.5l235.9-1.4a12,12,0,0,1,10.7,7.5h0C2090.8,1331.3,2088.2,1334.7,2083.6,1334.7Z" transform="translate(-211.2 -182.3)" style="fill:#233862"/><path d="M2138.8,1504.2l-235.9,1.4c-4.5,0-9.3-3.3-10.7-7.4h0c-1.3-4.2,1.3-7.5,5.8-7.6l235.9-1.3c4.6-.1,9.4,3.3,10.7,7.4h0C2146,1500.8,2143.4,1504.2,2138.8,1504.2Z" transform="translate(-211.2 -182.3)" style="fill:#233862"/><path d="M2196.6,1681.7l-235.9,1.3c-4.6.1-9.4-3.3-10.7-7.4h0c-1.4-4.1,1.2-7.5,5.8-7.5l235.9-1.4c4.5,0,9.4,3.3,10.7,7.4h0C2203.7,1678.2,2201.1,1681.6,2196.6,1681.7Z" transform="translate(-211.2 -182.3)" style="fill:#233862"/><path d="M1702.1,739.3c-4.3-3.1-14.1-9.8-14.7-8.3s.2,2.9,1.4,4.8c-6-2.2-12-3.7-26.3-.9a10.8,10.8,0,0,0-7.1,4.6c-1.4,2.3-2,5.1,1.7,7.4,7.3,4.5,5.2,1.8,15.3,8.4s22.6,8.3,30,3.7l9.9-1.7,1.3-16.4S1707.9,740.3,1702.1,739.3Z" transform="translate(-211.2 -182.3)" style="fill:#ffb27d"/><path d="M1963,601.9s-23.4,27.9-53.3,16.2c0,0-6.5-15.5-6.6-27v-4c-.2-13-.6-20.2-.6-20.2h0c1.4-.6,45.7-18.8,45.7-17.3C1947.4,584.5,1963,601.9,1963,601.9Z" transform="translate(-211.2 -182.3)" style="fill:#ffb27d"/><path d="M1943.7,558c-4.2,7.9-18.9,23.4-40.6,29.1-.2-13-.6-20.2-.6-20.2h0C1903.8,566.6,1945,555.6,1943.7,558Z" transform="translate(-211.2 -182.3)" style="fill:#ed975d"/><path d="M1893.2,565.6s49.9,11.7,56.7-19.5,17.8-50.6-13.7-59.4-40.4,1.7-45.2,11.6S1880.4,561.7,1893.2,565.6Z" transform="translate(-211.2 -182.3)" style="fill:#ffb27d"/><path d="M1948.2,554.6c.7.4,11.4,3.7,31.7-36.7,3.2-6.4,5.4-20.1-2.1-32.3s-33.8-21.7-55.7-25.8-27.1,8.1-32.3,20.5-21,23.7-21,23.7c18.9,10.6,41.6-4.5,49.5-2s10.7,14.9,11.2,18.9,1.5,7.3,11.5,3.7,4.4,14,2.8,17.4C1943.8,542,1942.5,551,1948.2,554.6Z" transform="translate(-211.2 -182.3)" style="fill:#233862"/><path d="M2002,1329.1h30.2c6.3,0,13.3-6.4,15.1-18s14.7-17.9,17.6-27.4-11.7-22.9-11.7-22.9l-2.4-3.1-2.5-3.2-23.9,5.6s-.6,5.7-.9,13a153.1,153.1,0,0,0-.1,16.6c.7,12.7-3.6,26.3-14.8,28.7S2002,1329.1,2002,1329.1Z" transform="translate(-211.2 -182.3)" style="fill:#2c3a64"/><path d="M1866.5,1331.7h80l1.7-.5c5.3-2.7,3.6-23.2,3-29.5-.1-1.2-.2-1.8-.2-1.8s-28.1-22.5-32-5.3c-.1.5-.3,1-.4,1.6h0c-4.9,16.1-26.7,23.4-39.4,25.5C1869.6,1323.2,1867.1,1328.8,1866.5,1331.7Z" transform="translate(-211.2 -182.3)" style="fill:#2c3a64"/><path d="M1882.6,870.2s4.3,53.3,9.3,117.4c6.8,87.1,15,194,15.8,214.3,1.4,35.1,7.1,91.4,7.1,91.4s13.3,13.4,40.1,7.7c0,0,23.8-80.3,30.6-165.3l.3-4.2c6.3-86.5,16.2-268.7,16.2-268.7Z" transform="translate(-211.2 -182.3)" style="fill:#2b478b"/><path d="M1882.6,870.2s4.3,53.3,9.3,117.4l93.6,148.1.3-4.2c6.3-86.5,16.2-268.7,16.2-268.7Z" transform="translate(-211.2 -182.3)" style="fill:#233862"/><path d="M1909.2,858.8s43.3,178.4,76.3,276.9,34.4,146.3,34.4,146.3,37.4-7.4,41.5-14.6c0,0,12.8-168.8-12.6-217-14.4-27.3-12-90.4-12-119.2,0-53.3-16.6-106.2-16.6-106.2Z" transform="translate(-211.2 -182.3)" style="fill:#2b478b"/><path d="M2077.8,841.5l.8,12.4s-8.2,22,14.7,33.3c0,0,9.9,4,10.3-3.6s-.9-4.8-.1-15.6-3.4-20.9-10.6-24.3l-5.8-6.8Z" transform="translate(-211.2 -182.3)" style="fill:#ffb27d"/><path d="M2086.7,850.5c-8.5,2.7-9.9,2.1-9.9,2.1s-41.5-75.5-45.7-82.5-88.1-84.7-88.1-84.7l21.6-80.4s95.4,123.6,105.7,141.3c17,29.3,27,97.4,27,97.4A25.4,25.4,0,0,1,2086.7,850.5Z" transform="translate(-211.2 -182.3)" style="fill:#1e3d70"/><path d="M1866.3,717c.3,16.5,1.3,35.1,2.6,53.9l.2,3.4c.8,11.7,1.7,23.4,2.8,34.8.4,4.6.8,9.1,1.3,13.5v.6a42.1,42.1,0,0,0,.4,5.1c4.2,42.8,8.6,76.6,9.4,77.1a4.8,4.8,0,0,0,3.3.8c11.2-1.4,44.7,1.2,72-4.8,23.2-4.9,43.1-14.1,64.1-26.6,2.8-1.6,9.2-6,8.7-9.3s-1.4-8.8-2.6-15.3c-4.2-22.8-11.4-61.9-13.8-107.7q-.7-12.7-2.1-25.2a371.8,371.8,0,0,0-11.2-60.3c-9.3-33.8-23.1-59.7-40.5-69.8-2.2-1.3-14.4,6.5-25.6,13.6s-21.2,8.5-31.7,7.6l-9.3,10.3c-11.3,13.1-23.3,30.5-26.6,55.3-.2,1.8-.4,3.7-.6,5.8C1866.3,689.9,1866.1,702.7,1866.3,717Z" transform="translate(-211.2 -182.3)" style="fill:#2a4e96"/><path d="M1866.3,717c.3,16.5,1.3,35.1,2.6,53.9l.2,3.4c64.1-40.1,73.9-113.5,73.9-113.5-31.5,1.4-56.5,8.7-75.8,19C1866.3,689.9,1866.1,702.7,1866.3,717Z" transform="translate(-211.2 -182.3)" style="fill:#1e3d70"/><path d="M1704.5,748.6c-.7-9.5,4.3-11.1,4.3-11.1s96.5-17.5,104.7-20.1,78.4-75.6,78.4-75.6,26.9-30.3,49-23.6c19.1,5.8,26.6,20.7,29.2,35a42,42,0,0,1-19.5,43c-33,20.2-98.9,60-114.5,64.6-34.6,10.1-127.5.8-127.5.8A30.3,30.3,0,0,1,1704.5,748.6Z" transform="translate(-211.2 -182.3)" style="fill:#2a4e96"/><path d="M1755.6,855.2a9,9,0,0,1-11.2,5.9c-45.1-14.1-92.8-23.4-139.9-28.8-51.7-5.9-104.4-7.1-129.3-5.3a9,9,0,0,1-1.1-17.9c38.6-2.3,92.9.8,133.9,5.6,47,5.5,95.7,15,141.7,29.3A9,9,0,0,1,1755.6,855.2Z" transform="translate(-211.2 -182.3)" style="fill:#2b478b"/><path d="M2642.2,1659.2a27.4,27.4,0,0,0-2.9-4.6h-.1a25.4,25.4,0,0,0-2.8-2.9l-4.3-4.3-1.1.8c-21.8-10.7-67,.7-112.7,30.5-55.2,36-90.6,85.7-80.4,112l-1.6,1.2,6.2,6.1.9.9.2.2h0a28,28,0,0,0,5.3,3.7h.1c21.6,11.3,67.2.1,113.4-30.1C2618.6,1736,2654.3,1685.2,2642.2,1659.2Z" transform="translate(-211.2 -182.3)" style="fill:#ffa412"/><path d="M2511.8,1672.1c56.2-36.7,111.6-45.4,123.8-19.4s-23.6,76.8-79.8,113.5-111.7,45.4-123.8,19.4S2455.5,1708.8,2511.8,1672.1Z" transform="translate(-211.2 -182.3)" style="fill:#ffb93e"/><path d="M2471.4,1789.5a43.3,43.3,0,0,1-12.4-1.6c-7-2-11.9-5.9-14.5-11.5-5-11-.3-27.5,13.3-46.2s33.5-36.9,57.1-52.3h0c36.1-23.7,72.9-35.1,93.6-29.2,7.1,2.1,11.9,5.9,14.5,11.6,5.1,11,.4,27.4-13.2,46.2s-33.6,36.9-57.1,52.3C2522.9,1778.3,2492.7,1789.5,2471.4,1789.5Zm124.9-138.2c-20.4,0-50.3,11.1-79.2,30-23.1,15.2-43,33.4-56,51.3s-17.2,32.6-12.8,42.1c2.1,4.5,6,7.6,11.8,9.3a42.1,42.1,0,0,0,11.1,1.4c20.4,0,50.4-11.2,79.2-30,23.1-15.2,43-33.4,56-51.3s17.2-32.6,12.9-42.1c-2.1-4.5-6.1-7.6-11.9-9.3A41.6,41.6,0,0,0,2596.3,1651.3Z" transform="translate(-211.2 -182.3)" style="fill:#ffa412"/><path d="M2511.1,1732.5a26,26,0,0,0,4.7-2.5,18.5,18.5,0,0,0,3.7-3.2,34.7,34.7,0,0,0,3.3-4.1c1-1.6,2-3.5,3-5.5,1.9-3.6,3.7-7,5.6-10.1a62,62,0,0,1,6.4-8.6,52,52,0,0,1,8.1-7.4,55.6,55.6,0,0,1,10.6-6,44.4,44.4,0,0,1,9.5-3,16.9,16.9,0,0,1,7.2.3,8.8,8.8,0,0,1,4.7,3.2,11.7,11.7,0,0,1,1.9,6.2l13.2-5.9-.7,7.2-13.4,5.9a33.6,33.6,0,0,1-3.7,8.3,43.3,43.3,0,0,1-6.5,7.9,60.4,60.4,0,0,1-9,7.2,75.2,75.2,0,0,1-11.3,6.1l1.3-12.9a40.1,40.1,0,0,0,11.3-7.1c2.6-2.6,4-5.1,4.3-7.5a5.4,5.4,0,0,0-.5-3.1,3.1,3.1,0,0,0-2.1-1.4,7.5,7.5,0,0,0-3.3.1,29.5,29.5,0,0,0-4.2,1.4,41.6,41.6,0,0,0-4.2,2.3,21.1,21.1,0,0,0-3.6,3.1,38.5,38.5,0,0,0-3.3,4.2q-1.5,2.4-3.3,5.7c-1.9,3.6-3.8,7-5.7,10.1a61.6,61.6,0,0,1-6.5,8.7,47.7,47.7,0,0,1-8.1,7.3,57.9,57.9,0,0,1-10.5,6,37.7,37.7,0,0,1-9.7,3,16.3,16.3,0,0,1-7.1-.3,7.9,7.9,0,0,1-4.6-3.4,12.6,12.6,0,0,1-1.7-6.2l-12.4,5.5.7-7.1,12.3-5.4a33.9,33.9,0,0,1,3.1-8.3,40.2,40.2,0,0,1,6-8.5,53.2,53.2,0,0,1,9.2-8.1,65.7,65.7,0,0,1,12.9-7.2l-1.2,12.9a36.2,36.2,0,0,0-7.4,4,24.3,24.3,0,0,0-5,4.3,17.1,17.1,0,0,0-2.8,4.2,16,16,0,0,0-1,3.9,6,6,0,0,0,.4,3.4,3.5,3.5,0,0,0,2,1.6,6.7,6.7,0,0,0,3.2.2A20.7,20.7,0,0,0,2511.1,1732.5Z" transform="translate(-211.2 -182.3)" style="fill:#ffa412"/><path d="M1536,372a11.7,11.7,0,0,1,1.9-3h0a15.3,15.3,0,0,1,1.8-1.8l2.7-2.7.7.5c13.9-6.8,42.5.4,71.5,19.3,35,22.9,57.5,54.4,51,71.1l1,.7-3.9,3.9-.6.6h-.1a17.2,17.2,0,0,1-3.4,2.4h0c-13.7,7.2-42.6,0-71.9-19.1C1551,420.7,1528.3,388.4,1536,372Z" transform="translate(-211.2 -182.3)" style="fill:#ffa412"/><path d="M1618.8,380.1c-35.7-23.2-70.9-28.8-78.6-12.3s14.9,48.7,50.6,72,70.9,28.8,78.6,12.4S1654.4,403.4,1618.8,380.1Z" transform="translate(-211.2 -182.3)" style="fill:#ffb93e"/><path d="M1592.8,435.2c-14.9-9.8-27.8-21.6-36.2-33.2s-11.6-22.4-8.4-29.4c1.6-3.6,4.7-6,9.1-7.3,13.2-3.8,36.5,3.5,59.5,18.5h0c14.9,9.8,27.8,21.6,36.2,33.2s11.6,22.3,8.4,29.3c-1.6,3.6-4.7,6.1-9.2,7.3a26.8,26.8,0,0,1-7.8,1C1630.9,454.6,1611.7,447.5,1592.8,435.2Zm-34.7-67.4c-3.7,1.1-6.2,3.1-7.6,5.9-2.7,6,.2,15.8,8.2,26.7s20.9,23,35.5,32.6c18.3,11.9,37.3,19,50.3,19a24.8,24.8,0,0,0,7-.9c3.7-1,6.2-3,7.5-5.9,2.8-6-.2-15.7-8.1-26.7s-20.9-22.9-35.5-32.5c-18.3-12-37.3-19.1-50.3-19.1A24.8,24.8,0,0,0,1558.1,367.8Z" transform="translate(-211.2 -182.3)" style="fill:#ffa412"/><path d="M1621.8,419.3a3.7,3.7,0,0,0,2.1-.1,1.7,1.7,0,0,0,1.2-1,3.4,3.4,0,0,0,.3-2.1,8.6,8.6,0,0,0-.7-2.5,8.1,8.1,0,0,0-1.7-2.7,18.1,18.1,0,0,0-3.2-2.7,22.5,22.5,0,0,0-4.7-2.6l-.8-8.2a42,42,0,0,1,8.2,4.6,34.2,34.2,0,0,1,5.9,5.2,25.4,25.4,0,0,1,3.8,5.4,24.1,24.1,0,0,1,2,5.2l7.8,3.4.4,4.5-7.8-3.4a7.5,7.5,0,0,1-1.2,3.9,4.8,4.8,0,0,1-2.8,2.2,11.4,11.4,0,0,1-4.6.2,26.9,26.9,0,0,1-6.1-2,32.7,32.7,0,0,1-6.7-3.8,38,38,0,0,1-5.2-4.6,42.9,42.9,0,0,1-4-5.5c-1.3-2-2.5-4.1-3.7-6.4a40.7,40.7,0,0,0-2.1-3.7,13.7,13.7,0,0,0-2-2.6,20.5,20.5,0,0,0-2.3-2,17.1,17.1,0,0,0-2.7-1.4l-2.7-.9a5.1,5.1,0,0,0-2.1-.1,1.8,1.8,0,0,0-1.3.9,2.7,2.7,0,0,0-.3,1.9,8.4,8.4,0,0,0,2.7,4.8,26.3,26.3,0,0,0,7.2,4.5l.8,8.2a41.3,41.3,0,0,1-7.2-3.9,43.5,43.5,0,0,1-5.7-4.5,31,31,0,0,1-4.1-5,17.4,17.4,0,0,1-2.3-5.3l-8.6-3.8-.4-4.5,8.4,3.7a7.5,7.5,0,0,1,1.2-3.9,4.9,4.9,0,0,1,3-2,9.8,9.8,0,0,1,4.6-.2,25.5,25.5,0,0,1,6,1.9,35.6,35.6,0,0,1,6.7,3.8,37.8,37.8,0,0,1,5.1,4.6,43.6,43.6,0,0,1,4.1,5.5c1.2,2,2.4,4.2,3.5,6.4a36.3,36.3,0,0,0,2,3.5,18.9,18.9,0,0,0,2,2.7l2.4,2a21.1,21.1,0,0,0,3,1.6A9.6,9.6,0,0,0,1621.8,419.3Z" transform="translate(-211.2 -182.3)" style="fill:#ffa412"/><rect y="1619.6" width="2771.8" height="11.58" rx="3.9" style="fill:#2e3552"/></svg>