<svg id="Layer_1" data-name="Layer 1" xmlns="http://www.w3.org/2000/svg" viewBox="0 0 2068.8 1428.5"><path d="M1980.7,1534.3c-30.4-25.4-46.1-49-48.9-53.5l107.1-67.7-.4-.7c.1.1,9,13.3,26.8,27.4a167.4,167.4,0,0,0,78.7,34.3c37.5,6,76.2-6.5,102-18a284.6,284.6,0,0,0,48.3-27.4l95,18.3-17.9,82.2c-37.1,28.5-96.1,56.6-150.8,67.5C2129.9,1614.7,2043.3,1586.6,1980.7,1534.3Z" transform="translate(-365.6 -285.7)" style="fill:#a4551a"/><rect x="480.1" y="868.6" width="1237.3" height="129.51" style="fill:#f47257"/><path d="M1753.9,1612.7c-279-147.5-582-238.3-893.2-267.6q17.4-202.5,34.6-405C1255,974,1605.4,1079,1928,1249.5Q1841,1431.1,1753.9,1612.7Z" transform="translate(-365.6 -285.7)" style="fill:#229393"/><path d="M888.2,1271.1q11.7-126.3,23.5-252.6c32.7,3.3,62-17.8,65.6-48,299.9,37.7,592.2,125.2,865.8,259.4-12.1,27.7,2.2,61.8,31.6,77.1q-53.4,113.9-106.9,227.6a51.4,51.4,0,0,0-71.3,25.2c-240.4-117.8-497-194.7-760.4-227.8C939.7,1301.8,918.2,1274.1,888.2,1271.1Z" transform="translate(-365.6 -285.7)" style="fill:#4dd9e1"/><path d="M1532,1285c-25.2,72.4-102.7,109.3-174.7,87.2s-118-97.4-101.9-172.6,96-120.1,176.8-95S1557.1,1212.7,1532,1285Z" transform="translate(-365.6 -285.7)" style="fill:#50bfa5"/><path d="M1356.7,1346.7c2.1-8.1,4.1-16.2,6.1-24.3a130.2,130.2,0,0,1-29.3-13.7,15.6,15.6,0,0,1-5.7-20.3l.5-.9c4-7.8,14.1-10.3,21.7-5.3a97.4,97.4,0,0,0,26.8,12.5c14.7,4.1,26.2,1.4,28.9-8.8s-4.2-18.2-22-30c-25.7-17-42.1-34.7-36.4-59.6,5.1-22.6,25.9-36.1,56.2-33.4l6-24.3,26.7,7.6-5.7,22.4a124.6,124.6,0,0,1,23.7,10.6c7.7,4.5,10.4,14,6.2,21.1h0c-4.3,7.4-14.3,9.5-22,4.7a88.3,88.3,0,0,0-22.7-10c-17.4-5-24.8.7-26.5,7.8s6,16.4,26.3,31c28.7,19.8,37.2,37.7,30.9,60.5s-27.6,36.7-58.2,33.4c-2.2,8.6-4.5,17.3-6.7,26Z" transform="translate(-365.6 -285.7)" style="fill:#3c8f7c"/><path d="M1212.8,1196.8q-106.6-24.6-215.2-40.1c1.7-13,3.4-25.9,5-38.9q110.1,15.6,218.3,40.6Z" transform="translate(-365.6 -285.7)" style="fill:#50bfa5"/><path d="M1767.3,1393.7q-99.3-48.6-201.8-88.4c4.3-12.2,8.6-24.5,13-36.8q103.8,40.4,204.6,89.5C1777.9,1369.9,1772.6,1381.8,1767.3,1393.7Z" transform="translate(-365.6 -285.7)" style="fill:#50bfa5"/><path d="M1884.3,1149.4c-287.9,60.1-562,180.6-807.9,355.2L877,1160.6c284.4-201.8,601.3-341.2,934.2-410.7Q1847.7,949.7,1884.3,1149.4Z" transform="translate(-365.6 -285.7)" style="fill:#229393"/><path d="M1055.5,1428.3q-61.3-108-122.8-215.8c25.9-18.2,35.9-53.6,21.7-79.9,242.3-160.7,506.7-277,783.2-344.3,6.4,29.7,35.9,47.8,66.1,41.2q23.7,124.5,47.5,248.9c-27.8,6.1-45.1,35.7-38.7,65.4-242.8,59.2-475,161.3-687.8,302.4C1110.6,1420,1079.4,1411.6,1055.5,1428.3Z" transform="translate(-365.6 -285.7)" style="fill:#4dd9e1"/><path d="M1538.5,1029.9c21.6,73.6-15.2,152.2-80.5,180.4s-141.3-2.3-171.1-72.4,4.2-156.4,77.8-188S1516.9,956.5,1538.5,1029.9Z" transform="translate(-365.6 -285.7)" style="fill:#44b7b7"/><path d="M1443.4,1190.4l-9-23.1a111.8,111.8,0,0,1-29.3,7.7c-7.5.9-14.3-4.6-15.5-12.5,0-.4-.1-.7-.1-1-1.3-8.8,4.7-17.2,13.1-18a83.9,83.9,0,0,0,26.7-7.2c13.2-6.1,20.2-15.5,16.5-25.3s-13.2-11.8-32.9-9.9c-28.4,2.8-50.4-.8-60-24.2-8.8-21.2-.9-45.2,23-62.4-3-7.7-6.1-15.4-9.1-23,8-3.8,15.9-7.4,23.9-11,2.8,7.1,5.5,14.3,8.3,21.4a109.4,109.4,0,0,1,23.4-6.7,14.2,14.2,0,0,1,16.2,12.9h0c.9,8.6-5.3,16.7-13.6,17.7a82.6,82.6,0,0,0-22.3,6.5c-15.6,7.2-17.9,16.4-15.2,23.1s13.4,9.2,36.6,7.9c32.1-2.5,48.4,6.3,56.4,28.4s0,46.8-24.4,63.6l9.4,24.9Z" transform="translate(-365.6 -285.7)" style="fill:#229393"/><path d="M1253.9,1162.8q-92.4,48.2-181.1,105l-17.9-34.2q89.8-57.4,183.6-106.5C1243.7,1139,1248.8,1150.9,1253.9,1162.8Z" transform="translate(-365.6 -285.7)" style="fill:#50bfa5"/><path d="M1772.6,966.7q-100.3,24.4-198.1,58.1c-3.6-12.5-7.2-25-10.9-37.6q99.2-33.9,200.8-58.9C1767.1,941.1,1769.8,953.9,1772.6,966.7Z" transform="translate(-365.6 -285.7)" style="fill:#44b7b7"/><path d="M1930.2,1401c-299.4-18.1-599.2,25.8-883.6,129.5q-58.8-192.9-117.5-385.8C1258,1024.8,1604.6,974,1950.8,995Q1940.5,1197.9,1930.2,1401Z" transform="translate(-365.6 -285.7)" style="fill:#229393"/><path d="M1043.7,1451.1l-71.6-241.4c30-10.7,48.1-42.3,40.2-71.5,277.6-91.3,566.8-133.7,856.6-125.6-.6,30.5,24.5,55.8,55.9,57.5q-5.4,126.8-10.9,253.5c-29-1.5-52.9,22.6-53.5,53-254.6-7.1-508.5,30.1-752.3,110.3C1100.2,1457.7,1071.3,1441.3,1043.7,1451.1Z" transform="translate(-365.6 -285.7)" style="fill:#4dd9e1"/><path d="M1615.2,1193.7c4.4,76.9-50.4,143.3-121.8,153.2s-139.4-39.7-152.7-115.4,40.6-150.3,120.9-161.3S1610.9,1116.9,1615.2,1193.7Z" transform="translate(-365.6 -285.7)" style="fill:#44b7b7"/><path d="M1483.6,1323.8,1480,1299a116.8,116.8,0,0,1-30.8-.3,14.9,14.9,0,0,1-12.4-16.2c0-.3.1-.7.1-1,.7-8.8,8.7-15.3,17.2-13.9a88.1,88.1,0,0,0,28.1.1c14.5-2.4,23.6-9.7,22.2-20.1s-10.3-15-30.2-18.3c-28.9-4.8-49.8-14.2-53.9-39.4-3.7-22.8,9.7-43.9,37.3-54.2l-3.6-24.8,26.3-4.3c1,7.7,2.1,15.3,3.1,23a115.6,115.6,0,0,1,24.8-.3,15,15,0,0,1,13.2,16.8h0a15.8,15.8,0,0,1-17.8,13.5,81.5,81.5,0,0,0-23.5.4c-17.2,2.8-21.6,11.1-20.5,18.3,1.2,8.7,11.2,12.5,34.4,17.3,32.5,6.2,46.6,19,49.4,42.5s-10.9,45.3-39.1,55.1l3.6,26.6Z" transform="translate(-365.6 -285.7)" style="fill:#229393"/><path d="M1302.2,1246.8q-102.9,22.2-204,53.6c-3.3-12.6-6.5-25.2-9.8-37.8q102.4-31.8,206.8-54.4C1297.6,1221.1,1299.9,1233.9,1302.2,1246.8Z" transform="translate(-365.6 -285.7)" style="fill:#50bfa5"/><path d="M1862,1194.6q-105-2.8-209.8,3.7l-2.1-39.2q106.2-6.7,212.8-3.8Z" transform="translate(-365.6 -285.7)" style="fill:#50bfa5"/><rect x="480.1" y="868.6" width="1237.3" height="544.53" style="fill:#e58a40"/><path d="M2083,1559.8H1776.9c-13.6,0-24.6,11.6-24.6,25.8h0c0,14.2,11,25.7,24.6,25.7h-39.7c-13.6,0-24.6,11.5-24.6,25.8h0c0,14.2,11,25.7,24.6,25.7h6.8c-13.5,0-24.5,11.5-24.5,25.7a27.5,27.5,0,0,0,2,10.4H2083Z" transform="translate(-365.6 -285.7)" style="fill:#b75742"/><rect x="525.7" y="895.4" width="1126.3" height="42.29" style="fill:#a4551a"/><rect x="466.5" y="1068.2" width="591.4" height="338.18" rx="41.6" style="fill:#229393"/><rect x="504.5" y="1135.5" width="145.6" height="84.67" style="fill:#fff"/><rect x="762.2" y="1114" width="258.3" height="15.81" style="fill:#fff"/><rect x="526" y="1294.6" width="475.3" height="19.53" style="fill:#fff"/><rect x="526" y="1340.6" width="475.3" height="19.53" style="fill:#fff"/><rect x="540" y="1007.6" width="525.2" height="14.04" style="fill:#a4551a"/><circle cx="1365.8" cy="800" r="117" style="fill:#5d97c6"/><path d="M1811.7,1029.4c31.2,44.3,20.4,105.5-23.9,136.7a98.2,98.2,0,1,1,23.9-136.7Z" transform="translate(-365.6 -285.7)" style="fill:#5183bf"/><circle cx="1841.7" cy="1460.1" r="117" transform="translate(-858.6 1444.2) rotate(-45)" style="fill:#5d97c6"/><path d="M1922.1,1403.7a98.1,98.1,0,1,1-136.7-24A98.2,98.2,0,0,1,1922.1,1403.7Z" transform="translate(-365.6 -285.7)" style="fill:#5183bf"/><path d="M1853.1,1529.1l-4.3-15.8a81,81,0,0,1-20.9,1.8,10,10,0,0,1-9.5-9.8v-.7a10,10,0,0,1,10.6-10,56.7,56.7,0,0,0,18.9-1.8c9.5-2.6,15-8,13.2-14.7s-8.1-8.8-21.6-9.7c-19.4-1.1-33.8-6.2-38.2-22.3s3.3-29,20.1-37.3l-4.2-15.8,16.3-4.4,3.9,14.7a79,79,0,0,1,15.8-2,10,10,0,0,1,10,9.9h0a10,10,0,0,1-10.2,10.1,52.8,52.8,0,0,0-15.2,1.9c-10.8,2.9-13,8.5-11.8,13.2s8.3,7.4,23.9,8.9c21.7,1.6,32.1,8.6,36.2,23.6s-3.1,30.3-21.3,38.8l4.6,17Z" transform="translate(-365.6 -285.7)" style="fill:#fff"/><circle cx="1614.4" cy="1313.6" r="117" transform="translate(-387.3 -258.7) rotate(-1)" style="fill:#5d97c6"/><circle cx="1614.4" cy="1313.6" r="98.1" transform="translate(-760.4 484.7) rotate(-24)" style="fill:#5183bf"/><rect x="1122.3" y="1095.3" width="529.7" height="283.89" style="fill:#ffa15a"/><path d="M1752.3,1585.6h0c0,14.2,11,25.7,24.6,25.7h-39.7c-13.6,0-24.6,11.5-24.6,25.8h0c0,14.2,11,25.7,24.6,25.7h6.8a23.1,23.1,0,0,0-9.8,2.2h283.4V1559.8H1776.9C1763.3,1559.8,1752.3,1571.4,1752.3,1585.6Z" transform="translate(-365.6 -285.7)" style="fill:#a4551a"/><path d="M412.7,1690.6h0c0,4.6,3.5,8.3,7.7,8.3H2340.9c4.2,0,7.7-3.7,7.7-8.3h0c0-4.6-3.5-8.3-7.7-8.3H420.4C416.2,1682.3,412.7,1686,412.7,1690.6Z" transform="translate(-365.6 -285.7)" style="fill:#13375b"/><path d="M2086.1,1714.3H1769.9a23,23,0,0,1-22.9-23h0a23,23,0,0,1,22.9-23h316.2a23,23,0,0,1,23,23h0A23,23,0,0,1,2086.1,1714.3Z" transform="translate(-365.6 -285.7)" style="fill:#5183bf"/><path d="M2079.7,1668.3H1763.5a22.9,22.9,0,0,1-22.9-22.9h0a22.9,22.9,0,0,1,22.9-23h316.2a23,23,0,0,1,23,23h0A23,23,0,0,1,2079.7,1668.3Z" transform="translate(-365.6 -285.7)" style="fill:#5d97c6"/><path d="M2116.8,1622.4H1800.6a22.9,22.9,0,0,1-22.9-23h0a22.8,22.8,0,0,1,22.9-22.9h316.2a22.9,22.9,0,0,1,23,22.9h0A23,23,0,0,1,2116.8,1622.4Z" transform="translate(-365.6 -285.7)" style="fill:#5183bf"/><path d="M690.4,1541s-36.6,26.5-42.4,34.3c-8.3,11.4,62.1,32.7,54.4,19.4-1.8-3.1-6.8-13.4-7.1-14.4-1.1-5.4,13.8-20,13.8-20Z" transform="translate(-365.6 -285.7)" style="fill:#f7a491"/><path d="M721.5,1616.9l-24.9-35.2s-15.6-3.6-31.5-21.6c0,0-14.4,5.5-23.2,17.4a415.8,415.8,0,0,0,42.3,38.1,118.5,118.5,0,0,0,36.3,20.6C741.5,1643.3,721.5,1616.9,721.5,1616.9Z" transform="translate(-365.6 -285.7)" style="fill:#f7cc7f"/><path d="M384,1059.3s4.5,4,6.1,5.2,7.8,5.2,7.8,5.2,21.4,12.2,22.1,10.6.7-6.2-.3-7.4-4.2-2.5-5.2-3.7-1.5-3.7-.1-5,8.7,2.6,8.7,2.6,5.9,3.3,8.4,7.3c8.6,13.7,6,14.5,7.1,16.3s31.4,15.7,31.4,15.7l94.6,39.3h0c.7,4.2-1.6,8-2.7,11.7-2.1,12.8-6,13.6-8.9,26-13.7-7-109-59.5-118.7-64.9,0,0-14.5-2.5-23.6-4.4s-16.9-7.5-19.4-8.5a81.3,81.3,0,0,1-17.4-10.5c-7.7-6,2.2-3.7,2.2-3.7s16.2,8.5,16.6,7.2-8.8-5.2-17.3-11.7l-6.4-4.9c-5.2-4-4.3-8.3,1.8-4.9a66.4,66.4,0,0,1,8,5.1c2.5,2,5.4,3,7.8,4.3,4.6,2.7,8,4.7,8,4.5s1.3-.5-1-2.3-9.6-5.7-13.4-9.3c-2.2-2-6.9-5.9-6.9-5.9s-6.1-7.3-5.8-7.8c1.6-2.6,7.1,1.2,9.7,4.3,2.7,1.2,7.5,5.5,7.5,5.5s11.8,6.6,12.7,5-6.4-5.6-12.3-11.4-10.1-11.6-9.3-12.8S384,1059.3,384,1059.3Z" transform="translate(-365.6 -285.7)" style="fill:#f8a492"/><path d="M634.3,1269.4l5.8,28.6,145.8,132.6L681.6,1536.3l28.2,28.8S863.9,1451.9,869.4,1437C878,1414.2,759,1263,759,1263Z" transform="translate(-365.6 -285.7)" style="fill:#b75742"/><path d="M533.2,1616.2s-29.4,32.1-35.1,39.9c-8.4,11.4,53.8,28.2,46.1,14.9-1.8-3.1-6.9-13.4-7.1-14.4-1.2-5.4,13.8-20,13.8-20Z" transform="translate(-365.6 -285.7)" style="fill:#f7a491"/><path d="M576.9,1669.9l-40.5-14.7s-15.3,6.9-38.6,1.2c0,0-8.2,11.6-8.7,26.3,0,0,76.7,9.8,98,3.7S576.9,1669.9,576.9,1669.9Z" transform="translate(-365.6 -285.7)" style="fill:#f7cc7f"/><path d="M639.3,1282.7l6.6,180.9L516.5,1622.2l35,19.2s143.1-122.8,158.8-157.1c9.8-21.2,42.6-213,42.6-213Z" transform="translate(-365.6 -285.7)" style="fill:#f47458"/><path d="M756.9,1267.8c-11.8-26.8-10.5-218.6-56.6-263.5-16.2,2.7-27.8,4.2-30.5,4.9-2.4,19.8-5.1,92.3-6.7,158.8-1.1,44.3,0,90.7-5.4,115.2C654.3,1298.4,767.8,1292.2,756.9,1267.8Z" transform="translate(-365.6 -285.7)" style="fill:#fae0b2"/><path d="M632,1019.1c-12.9,3-22.5,5.1-39.5,30.2s-52.3,80.9-52.3,80.9L445.1,1088l-4.4,48.2s107.5,55.9,122.7,50.8,57.8-67.4,61-71.6c.7-1-3.6,66.6-3.6,77.4s-20.6,104.9-20.6,104.9,52.3,12.8,62.5-10.5c31.3-71.8,7.3-278,7.3-278S641.3,1017,632,1019.1Z" transform="translate(-365.6 -285.7)" style="fill:#466eb6"/><path d="M827.3,813.8c-4-3.3-5.8-11.3-6.4-16.5l-1.8-6.8c1.6-.7,33.3-5.2,42.9-5.5.9,3.1,1.4,5.6,1.1,7.3-1.4,7.8-11.4,58.5-11.4,58.5l-27.3.6S830.3,821.3,827.3,813.8Z" transform="translate(-365.6 -285.7)" style="fill:#f7a491"/><path d="M711,1015.5s18.7,53.3,34.1,45.6,102.1-96,102.9-100.2,6.9-112.7,6.9-112.7l-34.3-6.8-19.7,88.7s-63.4,60.6-76.2,66.6A23.7,23.7,0,0,0,711,1015.5Z" transform="translate(-365.6 -285.7)" style="fill:#466eb6"/><path d="M761.6,1280.6c10.3,0,14.2-1.4,21.1-3.5,0,0-19.8-111.3-31.3-221.7-4.5-43.6-8.7-61.4-26.7-58.3-5.2.9-19.3,6.3-24.4,7.2,45.2,127.8,45.4,226.3,51.8,254.8C755.3,1273.5,758.1,1280.7,761.6,1280.6Z" transform="translate(-365.6 -285.7)" style="fill:#466eb6"/><path d="M695.5,984.9l4.8,19.4s1,16.8-6.8,18.3c-9.4,1.8-23.4-12.3-23.4-12.3L662,955.8Z" transform="translate(-365.6 -285.7)" style="fill:#f7a491"/><path d="M695.5,984.9l4.8,19.4s1,16.8-6.8,18.3c-9.4,1.8-23.4-12.3-23.4-12.3L662,955.8Z" transform="translate(-365.6 -285.7)" style="fill:#f7a491"/><path d="M662.1,956.1l33.4,28.8,3.6,14.5C686.3,996.3,668.1,982.2,662.1,956.1Z" transform="translate(-365.6 -285.7)" style="fill:#f47458"/><path d="M695.6,905.9c8.1,0,15.4,5.6,18.2,13.7a165.3,165.3,0,0,1,7.3,28c3.6,20.9-8.4,40.1-18.7,41.6s-35.2-5.3-40.6-35c-2.4-12.7-5.5-29.4,5-38.2C674.9,909.2,686.3,906,695.6,905.9Z" transform="translate(-365.6 -285.7)" style="fill:#f7a491"/><path d="M665.1,976.8s-36.6-32.6-38.2-58.1,22-39.1,42.1-39.8a146.4,146.4,0,0,1,24.6,1.2c20.2,2.6,33.3,11.5,28.7,28-6.2,22.2-48.1,3.5-56.6,10.4s4.4,19.3-2.5,24.6-3.2,3.2-1,12.5A165.6,165.6,0,0,1,665.1,976.8Z" transform="translate(-365.6 -285.7)" style="fill:#184655"/><path d="M651,947.3c.9,6.1,4.7,10.6,8.4,10s5.9-5.9,5-12-4.6-10.6-8.3-10.1S650.1,941.2,651,947.3Z" transform="translate(-365.6 -285.7)" style="fill:#f7a491"/><path d="M829.1,790.4A44.2,44.2,0,0,1,841,801.6s15.4-9.9,14.9-13.1-16.5,3.6-16.5,3.6Z" transform="translate(-365.6 -285.7)" style="fill:#f47458"/><path d="M431.1,585.4,847.9,800.1c22.4,11.5,50.8,1.1,63.3-23.3l106.5-206.7c12.5-24.4,4.5-53.5-17.9-65L583,290.4c-22.4-11.5-50.8-1.1-63.3,23.3L413.2,520.4C400.7,544.8,408.7,573.9,431.1,585.4Z" transform="translate(-365.6 -285.7)" style="fill:#4dd9e1"/><rect x="645.5" y="332.5" width="70.5" height="560.18" transform="translate(-541.1 651.7) rotate(-62.8)" style="fill:#355389"/><rect x="552.2" y="344.5" width="123.5" height="68.51" transform="translate(-123.6 -525.1) rotate(27.3)" style="fill:#fff"/><path d="M829,790.1c-.7-2-2.1-4.7-1.4-5.8,4.4-6.8-.4-14.2-3.6-8.4-1.9,3.3-5.2,10.7-4.9,14.6s3,13.3,3,13.3S833.1,801.2,829,790.1Z" transform="translate(-365.6 -285.7)" style="fill:#f7a491"/><path d="M2084.7,1504.2s-2.6,32-.5,42.4c1.1,5.5,7.3,17,4.5,22.2s-6.1,6.5-6.1,6.5l-73.9,1.2c-4,.1-1.3-2.5,1.9-4.8,5.3-3.9,9.6-6.4,26.6-14.5,1.1-.5,5.1-3,6.5-3.9a52.8,52.8,0,0,0,10.6-9.1c5.3-5.8,5.8-34,5.8-34Z" transform="translate(-365.6 -285.7)" style="fill:#f7a491"/><path d="M2027,1079.5s-31.7-15.6-25.6,18.4,52.5,416.5,52.5,416.5l43.6,2.4s5.5-127.5,4.3-145.9-8.4-46.6-8.4-46.6l-3.7-113.1-41.1-139.7Z" transform="translate(-365.6 -285.7)" style="fill:#355389"/><path d="M2043.8,1553.3c19.5,4.9,33.9,1.6,42-1.6,2.1,5.8,4.8,13.1,3.3,17.3s-4.1,7.4-6.3,7.5c-17.9.4-65.6-.1-79.1.1a2.2,2.2,0,0,1-1.8-3.6C2005.3,1569,2042.3,1554.2,2043.8,1553.3Z" transform="translate(-365.6 -285.7)" style="fill:#3c8f7c"/><path d="M2001.4,849.6s-26.9-51.6-31-70.5-18.6-114.4-17.4-120.5,24-20.9,21.2-26.2-24.5-5.2-29.5-4.8-14.9,3.4-19.2,6.9,4.8,117.9,7.5,142.5,36,100.4,36,100.4Z" transform="translate(-365.6 -285.7)" style="fill:#f7a491"/><path d="M2210.3,1251.8s22.2-23.2,27.1-32.6c2.6-5,5-17.8,10.5-20s8.9-1.3,8.9-1.3l58,45.6c3.2,2.5-.5,2.8-4.5,2.6-6.5-.4-11.4-1.1-29.7-5.5-1.2-.3-5.9-.9-7.6-1.1a50.3,50.3,0,0,0-13.9.4c-7.8,1.2-25.9,22.8-25.9,22.8Z" transform="translate(-365.6 -285.7)" style="fill:#f7a491"/><path d="M2273,1239.5c-12-16.2-25.3-22.7-33.6-25.3,2-5.8,4.2-13.4,8-15.7s7.9-2.3,9.6-.9c14.2,10.9,51.2,40.6,61.8,49.1a2.1,2.1,0,0,1-.9,3.8C2312.8,1251.5,2274.7,1239.7,2273,1239.5Z" transform="translate(-365.6 -285.7)" style="fill:#3c8f7c"/><path d="M2210.8,833.9c-13.7-28.9-44.2-44.8-73.8-37.1-10.6-14.3-27-24.4-44-26.8-33.7-4.7-77.1,11.6-72.7,46.7-10.6,24.6-8,58.5,13.2,75.1-3.9,32.3,28.5,60.9,66.8,57,15.5,21.3,42.3,33.8,67.3,29,6.1-1.2,15.2-3.4,16.8-3.1-2-.2,43.7,29.7,75.2-23.6S2260.1,836,2210.8,833.9Z" transform="translate(-365.6 -285.7)" style="fill:#184655"/><path d="M2014.2,1091.8s71.1-31.6,72.3-28c8.9,28.7,36.6,19.5,53.1,70.1,6.9,21.1,14,162.1,14,162.1s28-23.3,68.1-64c3.1-3.1,33.3,25.6,33.3,25.6-79.6,107.5-113.9,113.1-127.2,107.1-27.7-12.6-86.2-188.4-86.1-188.3C2034.6,1162.7,2014.2,1091.8,2014.2,1091.8Z" transform="translate(-365.6 -285.7)" style="fill:#466eb6"/><path d="M2132.2,893.3s102.8-.2,124.8-1.4c19.9-1.2,99,.8,102,.5s23.6-35,27-31.3-11.4,17.2-6.8,20.7,53.6-4.4,52.9-.7c-1.2,6.8-29.8,5.9-29.8,9.2s30-1.9,32,3.6-28.8,2.2-30,4.6,28.6,6.9,25.5,11.9c-1.6,2.8-26.4-4.5-26.3-.8s18.2,12.3,16,15.2-14.2-9.1-24.7-9.3-17.9-5.6-34.7-1c-8.2,2.3-71.3,10-124.6,14.5s-99.4,6.2-99.4,6.2Z" transform="translate(-365.6 -285.7)" style="fill:#f7a491"/><path d="M1979.7,966c-1.4-16.6,1.9-29.3,2.6-34.7-5-17.2-15.6-53.8-19.4-61,0,0,17.9-34.4,36.2-34.1,0,0,18.7,42.1,33.2,49.7.2-.1,5.1,2.2,7.3,2.2,13.9-.1,62.8-1.6,71.9-1.8l-5.2,69.3c-35.3,69.3-25.8,105.7-12.3,119.2,6.3,6.3-88.3,32-92.6,23.1C1996.2,1087.3,1982.4,999.3,1979.7,966Z" transform="translate(-365.6 -285.7)" style="fill:#f7cc7f"/><path d="M2086.7,888.9c9-4.3,74.1-2.1,74.1-2.1s9.1,45.4,1.8,56.3c0,0-58.3,8.7-56.6,13.4Z" transform="translate(-365.6 -285.7)" style="fill:#f7cc7f"/><path d="M2069.6,859.8s-1.2,24.7,0,35-10.6,34.5-32.4,34.9-3.2-23.2-1.3-33.3,4.2-49.9,4.2-49.9Z" transform="translate(-365.6 -285.7)" style="fill:#f7a491"/><path d="M2040.1,846.5s-.5,9.3-1.3,20c6.9,8.2,17.5,12.4,30.3,7.4.2-7.7.5-14.1.5-14.1Z" transform="translate(-365.6 -285.7)" style="fill:#f47458"/><path d="M2071.4,786a36.1,36.1,0,0,1,19.3,16.1c6.9,12.4,9.9,47.6-16.8,62.1s-45-9.9-43.8-32.3S2038.2,779.8,2071.4,786Z" transform="translate(-365.6 -285.7)" style="fill:#f7a491"/><path d="M2024.8,824.4c1.8,5.6,5.9,9.3,9.1,8.2s4.4-6.4,2.6-12-5.9-9.2-9.1-8.2S2023,818.9,2024.8,824.4Z" transform="translate(-365.6 -285.7)" style="fill:#f7a491"/><path d="M2067.7,785s13.5,37.1,27.4,41.2,12.4,22.3,12.4,22.3,2.5-41.8-10-52.3S2067.7,785,2067.7,785Z" transform="translate(-365.6 -285.7)" style="fill:#184655"/><path d="M2089,833.3c-2.3,5.7-1,11.6,2.9,13.1s8.8-1.8,11-7.5,1-11.6-2.9-13.1S2091.2,827.6,2089,833.3Z" transform="translate(-365.6 -285.7)" style="fill:#f7a491"/><path d="M1921.6,643.3s30.1,1.3,33.7,1.3,13.8-10.6,13.8-10.6Z" transform="translate(-365.6 -285.7)" style="fill:#f47458"/><circle cx="1924.5" cy="527.7" r="117" transform="translate(-434.5 150.4) rotate(-12.7)" style="fill:#5d97c6"/><path d="M2004.8,471.3a98.1,98.1,0,1,1-136.7-24A98.1,98.1,0,0,1,2004.8,471.3Z" transform="translate(-365.6 -285.7)" style="fill:#5183bf"/><path d="M1955.3,644.6l12.4-11.1s-5.8-7.1-3.4-8.4c4-2.2,10.8,6.3,10.1,8.3s-7.9,8.7-7.9,8.7Z" transform="translate(-365.6 -285.7)" style="fill:#f7a491"/><text transform="translate(1525.4 283.9)" style="font-size:115.73262023925781px;fill:#fff;font-family:NexaBold, Nexa Bold">B</text><text transform="translate(1205.1 1046.8) rotate(27.1)" style="font-size:115.73262023925781px;fill:#fff;font-family:NexaBold, Nexa Bold">B</text><text transform="matrix(0.93, -0.37, 0.37, 0.93, 1346.97, 847.31)" style="font-size:115.73262023925781px;fill:#fff;font-family:NexaBold, Nexa Bold">B</text></svg>