<svg xmlns="http://www.w3.org/2000/svg" viewBox="0 0 666.9 393.7"><g id="Background_Complete" data-name="Background Complete"><path d="M444.6,91.2A42,42,0,1,1,397,55.8,42,42,0,0,1,444.6,91.2Z" transform="translate(-41.5 -55.3)" style="fill:#f5f5f5"/><path d="M434.7,92.6a32,32,0,1,1-36.3-27A32,32,0,0,1,434.7,92.6Z" transform="translate(-41.5 -55.3)" style="fill:#ebebeb"/><path d="M434.5,91.6c-.2.1-.5-1.3-1.4-3.6a31.6,31.6,0,0,0-5-9.2,35.5,35.5,0,0,0-5.1-5.2,31.9,31.9,0,0,0-7-4.3,28.6,28.6,0,0,0-4.1-1.5,34.1,34.1,0,0,0-4.6-1,35.9,35.9,0,0,0-4.7-.3,38.7,38.7,0,0,0-4.9.5,24.2,24.2,0,0,0-4.8,1.3,21.7,21.7,0,0,0-4.4,1.9,25.5,25.5,0,0,0-3.9,2.4,24.6,24.6,0,0,0-3.4,2.9,30.3,30.3,0,0,0-5.1,6.5,34,34,0,0,0-3,6.5,34.8,34.8,0,0,0-1.5,10.4c0,2.5.1,3.9-.1,3.9s-.6-1.3-.9-3.9a29.7,29.7,0,0,1,.9-10.9,33,33,0,0,1,2.8-7,34.5,34.5,0,0,1,5.3-7.1,25.9,25.9,0,0,1,3.5-3.1,30.7,30.7,0,0,1,4.2-2.8,34.5,34.5,0,0,1,4.8-2,29.6,29.6,0,0,1,5.1-1.4,32.7,32.7,0,0,1,5.3-.5,44.1,44.1,0,0,1,5.2.3l4.9,1.1a33.8,33.8,0,0,1,4.4,1.8,32.5,32.5,0,0,1,7.4,4.8,38,38,0,0,1,5.1,5.7,28.4,28.4,0,0,1,4.5,9.9C434.6,90.2,434.7,91.6,434.5,91.6Z" transform="translate(-41.5 -55.3)" style="fill:#e0e0e0"/><path d="M409.3,115.6l.9,5.5-4.9.8-.9-5.4c-4.9.5-9.8-.3-12.8-1.9l1.7-6.5a19.7,19.7,0,0,0,10.1,2l-1.3-8.2c-5.7-.5-12-1.3-13.2-8.3-.8-5.2,2.3-10.3,9.9-12.4l-.9-5.5,4.9-.8.9,5.4a22,22,0,0,1,10.4,1.4l-1.5,6.4a20.5,20.5,0,0,0-7.9-1.3l1.4,8.3c5.6.4,11.9,1.3,13,8.2C419.9,108.4,416.9,113.4,409.3,115.6Zm-8.4-20.9-1.1-7c-2.5,1-3.3,2.6-3,4.2S398.7,94.3,400.9,94.7Zm10.4,10.5c-.3-1.8-1.9-2.5-4.1-2.9l1.1,6.8C410.7,108.2,411.5,106.7,411.3,105.2Z" transform="translate(-41.5 -55.3)" style="fill:#e0e0e0"/><path d="M308.4,339.7,117.8,280.3a9.3,9.3,0,0,1-6.1-11.6L148.3,151a9.3,9.3,0,0,1,11.7-6.1l190.6,59.3a9.3,9.3,0,0,1,6.1,11.6L320,333.6A9.3,9.3,0,0,1,308.4,339.7Z" transform="translate(-41.5 -55.3)" style="fill:#e0e0e0"/><path d="M318.9,228.9a15,15,0,1,1-9.9-18.8A14.9,14.9,0,0,1,318.9,228.9Z" transform="translate(-41.5 -55.3)" style="fill:#fff"/><path d="M320,245.4a12.7,12.7,0,0,1-2.8-.6,15.7,15.7,0,0,1,9.3-29.9,15.6,15.6,0,0,1,10.3,19.6,15.2,15.2,0,0,1-7.6,9.2A15.7,15.7,0,0,1,320,245.4Zm3.7-29.9a14.4,14.4,0,0,0-6.1,28.1,14.1,14.1,0,0,0,11-1,14.6,14.6,0,0,0,7.1-8.5h0a14.6,14.6,0,0,0-9.5-18.1Z" transform="translate(-41.5 -55.3)" style="fill:#fff"/><path d="M142.6,234.5,139,246.1l-1.2-.4,3.3-10.5-2.8-.8.4-1.1Z" transform="translate(-41.5 -55.3)" style="fill:#fff"/><path d="M151.2,248.7l-.3,1.1-8.1-2.5.2-.9,6.3-3.2c1.7-.9,2.2-1.6,2.4-2.4s-.2-2.4-2-3a4.5,4.5,0,0,0-3.6.3l-.6-.9a5.2,5.2,0,0,1,4.6-.4c2.4.7,3.5,2.4,2.9,4.3s-1,2-3,3l-5.2,2.7Z" transform="translate(-41.5 -55.3)" style="fill:#fff"/><path d="M164,250.5l-2.3-.7-1,3.1-1.2-.4,1-3-6.5-2.1.2-.8,8.6-5.8,1.3.4-8.3,5.6,5.1,1.6.8-2.7,1.1.4-.8,2.7,2.3.7Z" transform="translate(-41.5 -55.3)" style="fill:#fff"/><path d="M181.7,256.1l-2.3-.8-.9,3.1-1.2-.4.9-3-6.5-2.1.3-.8,8.5-5.8,1.3.4-8.2,5.7,5,1.5.8-2.7,1.2.4-.9,2.7,2.3.7Z" transform="translate(-41.5 -55.3)" style="fill:#fff"/><path d="M191.9,258.8c-.6,2-2.4,3.1-5.2,2.2a6.3,6.3,0,0,1-3.7-2.7l.8-.8a5.1,5.1,0,0,0,3.2,2.4c1.9.7,3.3,0,3.7-1.4s-.2-2.7-3.1-3.6l-2.5-.8,2.4-5.6,6.4,2-.4,1.1-5.2-1.7-1.6,3.6,1.5.4C191.7,255,192.6,256.8,191.9,258.8Z" transform="translate(-41.5 -55.3)" style="fill:#fff"/><path d="M203.4,262.4c-.7,2.1-2.8,3-5.1,2.3s-4-3.6-2.9-7.3,4-5.3,7.1-4.3a5.1,5.1,0,0,1,2.6,1.5l-.8.8a4.4,4.4,0,0,0-2.1-1.3c-2.5-.7-4.6.4-5.5,3.5l-.3,1a3.9,3.9,0,0,1,4.2-.9C202.9,258.4,204,260.2,203.4,262.4Zm-1.2-.4c.5-1.5-.3-2.8-2.1-3.4s-3.3.2-3.8,1.6.3,2.8,2.3,3.5S201.7,263.6,202.2,262Z" transform="translate(-41.5 -55.3)" style="fill:#fff"/><path d="M219.2,267.4c-.6,1.9-2.5,3-5.3,2.1a6.1,6.1,0,0,1-3.7-2.8l.9-.7a4.9,4.9,0,0,0,3.1,2.4c2,.6,3.3.1,3.7-1.4s-.2-2.6-2.4-3.2l-.8-.3.3-.9,4.4-3-5.9-1.8.4-1.1,7.4,2.3-.3.9-4.5,3.1C218.9,263.9,219.7,265.6,219.2,267.4Z" transform="translate(-41.5 -55.3)" style="fill:#fff"/><path d="M230.8,270.9c-.7,2.2-2.8,3-5.1,2.3s-4-3.6-2.9-7.2,4-5.4,7.2-4.4a5.3,5.3,0,0,1,2.5,1.5l-.8.8a3.4,3.4,0,0,0-2.1-1.2c-2.4-.8-4.5.3-5.5,3.4l-.3,1a3.9,3.9,0,0,1,4.2-.9C230.3,266.9,231.5,268.8,230.8,270.9Zm-1.2-.3c.5-1.6-.3-2.9-2.1-3.4s-3.3.1-3.8,1.6.3,2.8,2.3,3.4S229.1,272.1,229.6,270.6Z" transform="translate(-41.5 -55.3)" style="fill:#fff"/><path d="M244,266.1l-.3.8-8.2,9.2-1.3-.4,8.1-9-6-1.8-.7,2.1-1.1-.3,1-3.3Z" transform="translate(-41.5 -55.3)" style="fill:#fff"/><path d="M260.5,271.2l-.3.9-8.1,9.2-1.3-.4,8-9-5.9-1.9-.7,2.2-1.2-.4,1-3.2Z" transform="translate(-41.5 -55.3)" style="fill:#fff"/><path d="M269.3,283.1c-.7,2.1-2.8,2.8-5.5,1.9s-4.1-2.6-3.5-4.7a3,3,0,0,1,3.1-2.1,2.7,2.7,0,0,1-1-3.1c.6-1.9,2.6-2.6,5-1.8s3.7,2.4,3.1,4.3a2.7,2.7,0,0,1-2.6,2A3,3,0,0,1,269.3,283.1Zm-1.2-.4c.4-1.4-.5-2.7-2.6-3.3s-3.5-.1-4,1.3.5,2.7,2.6,3.3S267.6,284.2,268.1,282.7Zm-2.3-4.3c1.8.6,3.1.1,3.5-1.1s-.5-2.5-2.2-3-3.1-.1-3.5,1.2S264,277.9,265.8,278.4Z" transform="translate(-41.5 -55.3)" style="fill:#fff"/><path d="M281.3,284c-1.2,3.9-4,5.3-7.1,4.3a5.6,5.6,0,0,1-2.6-1.5l.8-.8a3.7,3.7,0,0,0,2.1,1.2c2.5.8,4.6-.3,5.6-3.4.1-.3.1-.6.2-1a3.8,3.8,0,0,1-4.1.9c-2.3-.7-3.5-2.6-2.9-4.7a3.9,3.9,0,0,1,5.1-2.3C281.5,277.7,282.5,280.3,281.3,284Zm-.9-2.9c.4-1.2-.3-2.8-2.3-3.4a2.7,2.7,0,0,0-3.6,1.7c-.4,1.5.4,2.8,2.2,3.4S280,282.6,280.4,281.1Z" transform="translate(-41.5 -55.3)" style="fill:#fff"/><path d="M294.8,281.9l-3.6,11.6-1.2-.4,3.3-10.5-2.7-.8.3-1.1Z" transform="translate(-41.5 -55.3)" style="fill:#fff"/><path d="M303.5,296.1l-.4,1.1-8.1-2.5.3-.9,6.3-3.2c1.7-.9,2.1-1.6,2.4-2.4s-.3-2.4-2-3a4.4,4.4,0,0,0-3.6.3l-.6-1a5.5,5.5,0,0,1,4.6-.3c2.3.7,3.5,2.4,2.9,4.3s-1,2-3.1,3l-5.1,2.7Z" transform="translate(-41.5 -55.3)" style="fill:#fff"/><path d="M314.5,297.1c-.6,1.9-2.4,3-5.2,2.1a6.1,6.1,0,0,1-3.7-2.8l.8-.7a5.1,5.1,0,0,0,3.2,2.4c1.9.6,3.3.1,3.7-1.4s-.2-2.6-2.4-3.3l-.8-.2.3-.9,4.4-3-5.9-1.8.3-1.1,7.5,2.3-.3.9-4.6,3.1C314.3,293.6,315.1,295.2,314.5,297.1Z" transform="translate(-41.5 -55.3)" style="fill:#fff"/><rect x="264.9" y="249.7" width="5.3" height="97.01" transform="translate(-138.3 409.8) rotate(-72.7)" style="fill:#fff"/><rect x="284.4" y="290.4" width="5.3" height="49.76" transform="translate(-140.9 440.3) rotate(-72.7)" style="fill:#fff"/><g style="opacity:0.5"><rect x="142.2" y="198.7" width="40.7" height="30.41" rx="5" transform="translate(29.4 -94) rotate(17.3)" style="fill:#ebebeb"/></g><path d="M141.1,214.3l.6-1.8,20,6.2a4.4,4.4,0,1,0,2.6-8.4l-20-6.2.6-1.9,20,6.3a6.3,6.3,0,0,1,4.2,7.9,6.5,6.5,0,0,1-8,4.2Z" transform="translate(-41.5 -55.3)" style="fill:#e0e0e0"/><rect x="174" y="211" width="2" height="14.39" transform="matrix(0.3, -0.95, 0.95, 0.3, -127, 264.9)" style="fill:#e0e0e0"/><rect x="156" y="186.2" width="104.7" height="8.98" transform="translate(24.6 -108.6) rotate(17.3)" style="fill:#fff"/><path d="M190.7,395.5a26.5,26.5,0,1,1-30.1-22.4A26.4,26.4,0,0,1,190.7,395.5Z" transform="translate(-41.5 -55.3)" style="fill:#f5f5f5"/><path d="M184.5,396.4a20.3,20.3,0,1,1-23-17.1A20.3,20.3,0,0,1,184.5,396.4Z" transform="translate(-41.5 -55.3)" style="fill:#ebebeb"/><path d="M184.4,395.8a11.5,11.5,0,0,1-.9-2.4,25,25,0,0,0-3.2-5.8,20.7,20.7,0,0,0-7.6-5.9,11.7,11.7,0,0,0-2.6-1,15,15,0,0,0-2.9-.6,15.1,15.1,0,0,0-3-.2,15.5,15.5,0,0,0-3.1.3l-3.1.8a13.1,13.1,0,0,0-2.7,1.2,20.7,20.7,0,0,0-2.5,1.5l-2.2,1.9a19.5,19.5,0,0,0-5,8.2,20.2,20.2,0,0,0-1,6.6c0,1.5.1,2.4-.1,2.4s-.4-.8-.5-2.4a17.4,17.4,0,0,1,.5-6.9,26.3,26.3,0,0,1,1.8-4.5,22,22,0,0,1,3.3-4.4l2.3-2a14.5,14.5,0,0,1,2.6-1.7,20.2,20.2,0,0,1,3-1.4l3.3-.8a18.4,18.4,0,0,1,3.3-.3,12,12,0,0,1,3.3.2,15.5,15.5,0,0,1,3.1.7,13.6,13.6,0,0,1,2.8,1.1,22.2,22.2,0,0,1,4.7,3,25.9,25.9,0,0,1,3.2,3.6,18.8,18.8,0,0,1,2.9,6.3A5.3,5.3,0,0,1,184.4,395.8Z" transform="translate(-41.5 -55.3)" style="fill:#e0e0e0"/><path d="M168.5,410.9l.5,3.5-3.1.5-.5-3.4a15.8,15.8,0,0,1-8.2-1.2l1.1-4.1a12.3,12.3,0,0,0,6.4,1.2l-.8-5.1c-3.6-.3-7.6-.9-8.4-5.3s1.5-6.5,6.3-7.9l-.6-3.4,3.1-.5.6,3.4a14.3,14.3,0,0,1,6.6.9l-1,4a12.8,12.8,0,0,0-5-.8l.9,5.3c3.6.2,7.5.8,8.2,5.1S173.2,409.6,168.5,410.9Zm-5.4-13.2-.7-4.4c-1.5.6-2.1,1.6-1.9,2.6S161.7,397.5,163.1,397.7Zm6.6,6.6c-.2-1.1-1.2-1.5-2.6-1.8l.7,4.3C169.3,406.2,169.8,405.3,169.7,404.3Z" transform="translate(-41.5 -55.3)" style="fill:#e0e0e0"/></g><g id="Credit_Card" data-name="Credit Card"><path d="M370,352.5,215.2,188.8a4.4,4.4,0,0,1,.2-6.1L317,86.7a4.2,4.2,0,0,1,6.1.2L477.8,250.6a4.3,4.3,0,0,1-.1,6.1l-101.6,96A4.4,4.4,0,0,1,370,352.5Z" transform="translate(-41.5 -55.3)" style="fill:#ed7d2b"/><g style="opacity:0.30000000000000004"><path d="M370,352.5,215.2,188.8a4.4,4.4,0,0,1,.2-6.1L317,86.7a4.2,4.2,0,0,1,6.1.2L477.8,250.6a4.3,4.3,0,0,1-.1,6.1l-101.6,96A4.4,4.4,0,0,1,370,352.5Z" transform="translate(-41.5 -55.3)"/></g><path d="M476.7,249.4,324.2,88a6.1,6.1,0,0,0-8.4-.2l-28.9,27.3a2.3,2.3,0,0,0-.7,2.1c2.9,16.2,14.4,30.6,28.2,40.1,16.6,11.6,36.3,17.7,55,25.4s37.5,17.9,48.8,34.7,13.1,35.7,18.4,54a117.7,117.7,0,0,0,5.5,14.6,2.4,2.4,0,0,0,3.8.7l30.6-28.9A5.9,5.9,0,0,0,476.7,249.4Z" transform="translate(-41.5 -55.3)" style="fill:#f99746"/><path d="M321.9,135c-1.3,1.3-3.2,1-5.2-1.1l-3.9-4.2,8-7.5,3.7,3.9c1.9,2,2,3.8.8,5a2.9,2.9,0,0,1-2.8.6A2.6,2.6,0,0,1,321.9,135Zm-.7-9.6-1.9,1.7L321,129c.9.9,1.7,1.1,2.3.5s.4-1.4-.4-2.3Zm-.8,7.6c.6-.7.5-1.5-.4-2.4l-2.1-2.2-1.9,1.9,2,2.1Q319.3,133.9,320.4,133Z" transform="translate(-41.5 -55.3)" style="fill:#fff"/><path d="M327.8,142.1l-3.5-3.7-2.4.9-1.8-1.9,11.3-4,1.8,1.8-4.7,11.2-1.8-2Zm.8-1.9,1.9-4.2-4.3,1.7Z" transform="translate(-41.5 -55.3)" style="fill:#fff"/><path d="M344.2,147l-8,7.5-1.4-1.5,1.1-8.6-4.8,4.6-1.8-1.8,8-7.6,1.4,1.6-1,8.5,4.8-4.6Z" transform="translate(-41.5 -55.3)" style="fill:#fff"/><path d="M343.9,156.3h-2.1l-2,1.9-1.8-1.8,8-7.6,1.7,1.9-3.7,3.5h7.1l1.9,2.1h-6.7l-1.1,7.7-2-2.2Z" transform="translate(-41.5 -55.3)" style="fill:#fff"/><path d="M287.3,164.9l-1.3-1.5-2,1.8-.7-.7,1.9-1.8-3.9-4.2.6-.5,8.5-.7.8.8-8.3.8,3,3.1,1.7-1.6.7.8-1.7,1.6,1.4,1.4Z" transform="translate(-41.5 -55.3)" style="fill:#fff"/><path d="M292.6,170.1c-1.2,1.1-3,1.1-4.7-.6a5,5,0,0,1-1.5-3.6h.9a4.4,4.4,0,0,0,1.3,3c1.2,1.2,2.4,1.4,3.3.5s.8-2-.4-3.3l-.5-.6.5-.5,4.5-.4-3.6-3.7.7-.6,4.5,4.7-.6.5-4.5.4C293.9,167.4,293.8,169,292.6,170.1Z" transform="translate(-41.5 -55.3)" style="fill:#fff"/><path d="M298.3,176c-1.3,1.1-3.1,1.2-4.8-.6a4.9,4.9,0,0,1-1.5-3.5l.9-.2a4.4,4.4,0,0,0,1.3,3c1.2,1.3,2.4,1.4,3.3.5s1-2-.8-3.9l-1.5-1.5,4.1-3.1,3.8,4-.7.6-3.2-3.3-2.5,1.9.8,1C299.6,173.1,299.6,174.7,298.3,176Z" transform="translate(-41.5 -55.3)" style="fill:#fff"/><path d="M304.4,182.4a3.1,3.1,0,0,1-4.6-.4c-1.9-1.9-1.5-4.3.8-6.5s5.1-2.2,7-.2a5.7,5.7,0,0,1,1.2,2.1l-.9.3a4.1,4.1,0,0,0-1-1.8c-1.5-1.5-3.5-1.6-5.5.3l-.5.6a3.3,3.3,0,0,1,3.4,1C305.6,179.3,305.7,181.1,304.4,182.4Zm-.7-.7c.9-.9.9-2.2-.2-3.4a2.3,2.3,0,0,0-3.4-.3c-.8.7-.9,2.1.3,3.4A2.3,2.3,0,0,0,303.7,181.7Z" transform="translate(-41.5 -55.3)" style="fill:#fff"/><path d="M317.2,200.3l.6-3.9-3.9.4-.8-.9,4.8-.5.8-4.6.8.9-.6,3.7,3.7-.4.8.8-4.7.5-.7,4.8Z" transform="translate(-41.5 -55.3)" style="fill:#fff"/><path d="M322.4,205.9l.7-4-4,.5-.8-.9,4.9-.5.7-4.6.8.9-.6,3.7,3.8-.4.7.8-4.6.4-.7,4.9Z" transform="translate(-41.5 -55.3)" style="fill:#fff"/><path d="M327.7,211.5l.7-4-4,.4-.8-.8,4.9-.5.7-4.6.8.9-.6,3.6,3.7-.3.8.8-4.6.4-.8,4.9Z" transform="translate(-41.5 -55.3)" style="fill:#fff"/><path d="M333,217l.7-3.9-4,.4-.8-.8,4.9-.5.7-4.6.8.8-.6,3.7,3.7-.4.8.9-4.6.4-.8,4.9Z" transform="translate(-41.5 -55.3)" style="fill:#fff"/><path d="M351.3,236.3l.6-3.9-4,.4-.8-.8,4.9-.5.7-4.6.8.8-.6,3.7,3.8-.4.7.9-4.6.4-.7,4.9Z" transform="translate(-41.5 -55.3)" style="fill:#fff"/><path d="M356.5,241.9l.7-3.9-4,.4-.8-.8,4.9-.5.7-4.6.8.8-.6,3.7,3.7-.4.8.8-4.6.5-.8,4.9Z" transform="translate(-41.5 -55.3)" style="fill:#fff"/><path d="M361.8,247.5l.7-3.9-4,.4-.8-.8,4.9-.5.7-4.6.8.8-.6,3.7,3.7-.4.8.8-4.6.5-.8,4.9Z" transform="translate(-41.5 -55.3)" style="fill:#fff"/><path d="M367.1,253.1l.6-3.9-3.9.4-.8-.9,4.9-.4.7-4.6.8.8-.6,3.7,3.7-.4.8.8-4.7.5-.7,4.8Z" transform="translate(-41.5 -55.3)" style="fill:#fff"/><path d="M390.8,263.5l-7.3,6.9-.7-.7,6.6-6.3-1.6-1.8.7-.6Z" transform="translate(-41.5 -55.3)" style="fill:#fff"/><path d="M391.8,275c-1.2,1.2-3,1.2-4.7-.6a4.8,4.8,0,0,1-1.5-3.5l.9-.2a4.9,4.9,0,0,0,1.3,3.1c1.2,1.2,2.4,1.3,3.3.4s.8-1.9-.4-3.3l-.5-.5.5-.6,4.5-.3-3.6-3.8.7-.6,4.5,4.7-.6.5-4.5.4C393.1,272.3,393,273.9,391.8,275Z" transform="translate(-41.5 -55.3)" style="fill:#fff"/><path d="M398.5,282.5l-1.4-1.5-1.9,1.8-.7-.7,1.9-1.8-3.9-4.2.6-.5,8.5-.7.8.8-8.3.8,3,3.1,1.7-1.6.7.8-1.7,1.6,1.4,1.4Z" transform="translate(-41.5 -55.3)" style="fill:#fff"/><path d="M402.6,289.3l-.7.6-4.8-5.1.5-.5,5.9.2c1.6.1,2.2-.2,2.7-.7s.8-1.9-.2-3a3.2,3.2,0,0,0-2.7-1.2v-1a4.5,4.5,0,0,1,3.5,1.6c1.4,1.5,1.5,3.1.3,4.3s-1.5,1-3.4,1l-4.8-.2Z" transform="translate(-41.5 -55.3)" style="fill:#fff"/><path d="M260.7,171a2.5,2.5,0,0,1,3.6.1,2.8,2.8,0,0,1,.7,2.1h-1a1.6,1.6,0,0,0-.4-1.3,1.5,1.5,0,0,0-2.2,0,1.4,1.4,0,0,0,0,2.1,1.1,1.1,0,0,0,1.2.5v1a2.4,2.4,0,0,1-2-.8A2.4,2.4,0,0,1,260.7,171Z" transform="translate(-41.5 -55.3)" style="fill:#fff"/><path d="M265.4,178l-1.5-1.6-1,.4-.8-.8,4.9-1.8.8.8-2,4.9-.8-.9Zm.4-.8.8-1.8-1.8.7Z" transform="translate(-41.5 -55.3)" style="fill:#fff"/><path d="M268.2,182.5l.4-1.6h-.1l-.6-.7-1,1-.8-.9,3.5-3.3,1.5,1.6a1.8,1.8,0,0,1,.1,2.7,1.5,1.5,0,0,1-1.8.3l-.3,1.8Zm2.2-3.5-.7-.6-1.2,1.1.6.7a1,1,0,0,0,1.4.2A1.1,1.1,0,0,0,270.4,179Z" transform="translate(-41.5 -55.3)" style="fill:#fff"/><path d="M269.7,183.3l.9-.3a2.3,2.3,0,0,0,.7,1.5c.4.5.8.5,1,.3s-1.7-2.2-.4-3.4,1.5-.6,2.5.4a3.7,3.7,0,0,1,.8,1.5l-.9.4a2.6,2.6,0,0,0-.6-1.3c-.4-.4-.8-.5-1-.2s1.7,2.2.4,3.4-1.5.5-2.5-.5A2.8,2.8,0,0,1,269.7,183.3Z" transform="translate(-41.5 -55.3)" style="fill:#fff"/><path d="M280.5,188.4l-3.5,3.3-.8-.8,1.5-1.3-1.5-1.6-1.5,1.3-.7-.8,3.5-3.3.7.8-1.4,1.3,1.5,1.6,1.4-1.3Z" transform="translate(-41.5 -55.3)" style="fill:#fff"/><path d="M279.3,190.7a2.5,2.5,0,0,1,3.6.2,2.4,2.4,0,0,1,0,3.6,2.5,2.5,0,0,1-3.6-.2A2.5,2.5,0,0,1,279.3,190.7Zm2.9,3a1.5,1.5,0,0,0,0-2.1,1.4,1.4,0,0,0-2.1-.1,1.5,1.5,0,0,0-.1,2.2A1.6,1.6,0,0,0,282.2,193.7Z" transform="translate(-41.5 -55.3)" style="fill:#fff"/><path d="M285.3,193.5l.7.8-2.8,2.7,1.7,1.7-.7.7-2.4-2.6Z" transform="translate(-41.5 -55.3)" style="fill:#fff"/><path d="M288.1,196.5l1.5,1.6a2.4,2.4,0,0,1,.1,3.6,2.5,2.5,0,0,1-3.6-.3l-1.5-1.6Zm-1.3,4.2a1.4,1.4,0,0,0,2.1.2,1.4,1.4,0,0,0,0-2.2l-.7-.8-2.1,2.1Z" transform="translate(-41.5 -55.3)" style="fill:#fff"/><path d="M291.7,206l-.6.6-2.6-2.7,3.5-3.3,2.5,2.7-.6.6-1.8-1.8-.7.7,1.5,1.6-.6.6-1.6-1.6-.8.7Z" transform="translate(-41.5 -55.3)" style="fill:#fff"/><path d="M293.8,209.5l.3-1.6h0l-.7-.7-.9.9-.8-.8,3.5-3.3,1.4,1.5c.9.9,1,2,.2,2.7a1.5,1.5,0,0,1-1.8.3l-.4,1.9Zm2.1-3.4-.6-.7-1.2,1.2.6.6c.5.5.9.6,1.3.2S296.4,206.6,295.9,206.1Z" transform="translate(-41.5 -55.3)" style="fill:#fff"/><path d="M246.7,183.5h1.8a2.3,2.3,0,0,0,.5,2c.6.6,1.2.5,2-.2l3.2-3-2.3-2.3,1.3-1.2,3.7,3.9-4.4,4.1c-1.6,1.6-3.2,1.5-4.7-.1A3.5,3.5,0,0,1,246.7,183.5Z" transform="translate(-41.5 -55.3)" style="fill:#fff"/><path d="M252,189.1a1.3,1.3,0,0,1,1.8.1,1.2,1.2,0,0,1-.1,1.8,1.3,1.3,0,0,1-1.8,0A1.3,1.3,0,0,1,252,189.1Z" transform="translate(-41.5 -55.3)" style="fill:#fff"/><path d="M269.9,196.4l-8.8,4.1-1.6-1.6,3.2-5.8-6,2.8-1.6-1.7,4.7-8.6,1.5,1.6-3.3,6,6.2-2.9,1.4,1.5-3.3,6,6.2-2.9Z" transform="translate(-41.5 -55.3)" style="fill:#fff"/><path d="M270.6,197a1.2,1.2,0,0,1,1.7.2,1.2,1.2,0,0,1,.1,1.7,1.3,1.3,0,0,1-1.8-1.9Zm-1.4,1.7,1.4,1.5-5.2,4.9-1.4-1.5Z" transform="translate(-41.5 -55.3)" style="fill:#fff"/><path d="M273.9,199.7l1.4,1.5-7.1,6.8-1.5-1.5Z" transform="translate(-41.5 -55.3)" style="fill:#fff"/><path d="M276.6,202.6l1.4,1.5-7.1,6.8-1.4-1.5Z" transform="translate(-41.5 -55.3)" style="fill:#fff"/><path d="M278.8,205.7a1.2,1.2,0,0,1,1.7.2,1.2,1.2,0,0,1,.1,1.7,1.3,1.3,0,0,1-1.8-.2A1.2,1.2,0,0,1,278.8,205.7Zm-1.4,1.7,1.4,1.5-5.2,4.9-1.4-1.5Z" transform="translate(-41.5 -55.3)" style="fill:#fff"/><path d="M282.2,217l-2.9,2.7-1.4-1.4.7-.6a2.2,2.2,0,0,1-2.2-.9c-1.2-1.2-1.2-2.5-.3-3.4s2.2-.8,3.7.8l1.1,1.2a1.5,1.5,0,0,0-.1-2.2,3.9,3.9,0,0,0-1.9-1l.5-1.6a5.9,5.9,0,0,1,2.8,1.7C283.7,213.9,283.8,215.5,282.2,217Zm-2.7-.3.5-.5-1-1c-.6-.7-1.1-.7-1.4-.4s-.4.9.1,1.5A1.6,1.6,0,0,0,279.5,216.7Z" transform="translate(-41.5 -55.3)" style="fill:#fff"/><path d="M291.8,227l-3,2.8-1.4-1.5,2.7-2.5c.9-.8.9-1.6.3-2.2s-1.5-.7-2.4.2l-2.6,2.4-1.4-1.5,2.7-2.6q1.2-1.2.3-2.1c-.6-.7-1.5-.7-2.4.1l-2.6,2.5-1.5-1.5,5.2-4.9,1.4,1.4-.6.6a2.8,2.8,0,0,1,2.2,1,2.7,2.7,0,0,1,.8,2.5,3.2,3.2,0,0,1,2.6,1.1C293.2,224,293.4,225.5,291.8,227Z" transform="translate(-41.5 -55.3)" style="fill:#fff"/><path d="M290.1,230.2l1.5-.5a6.4,6.4,0,0,0,1.2,2.3c.7.7,1.1.8,1.4.5s-3-3.1-.9-5.1,2.5-.7,3.9.8a6.3,6.3,0,0,1,1.5,2.4l-1.6.6a3.9,3.9,0,0,0-1-1.9c-.6-.7-1.1-.8-1.4-.5s2.9,3.1.9,5.1-2.5.6-4-.9A6,6,0,0,1,290.1,230.2Z" transform="translate(-41.5 -55.3)" style="fill:#fff"/><path d="M349.8,288c2.3-2.1,4.7-2,6.2-.4s1.5,4.1-.7,6.2-4.6,2.1-6.2.4S347.6,290.1,349.8,288Zm4,4.3c1.5-1.5,1.7-2.6.9-3.4s-1.8-.7-3.4.7-1.6,2.6-.9,3.4S352.3,293.7,353.8,292.3Z" transform="translate(-41.5 -55.3)" style="fill:#fff"/><path d="M360,301.3a3.1,3.1,0,0,1-4.6-.4c-1.8-1.9-1.7-4.1.5-6.2s4.9-2,6.8,0A4.5,4.5,0,0,1,364,297l-1.6.5a2.9,2.9,0,0,0-.9-1.5,2.3,2.3,0,0,0-3.7-.1,2.9,2.9,0,0,1,2.1,1.1A2.9,2.9,0,0,1,360,301.3Zm-1.5-1.4a1.6,1.6,0,1,0-2-.2A1.4,1.4,0,0,0,358.5,299.9Z" transform="translate(-41.5 -55.3)" style="fill:#fff"/><path d="M369,298.8l1.2,1.3-12,5.4-1.3-1.3Z" transform="translate(-41.5 -55.3)" style="fill:#fff"/><path d="M368.1,311.6l-1.3,1.2-4.8-5.1,1-1,4.9.3c1.2.1,1.6-.2,1.9-.5s.5-1.1-.1-1.8a2.4,2.4,0,0,0-2-.8l-.4-1.8a4.3,4.3,0,0,1,3.8,1.5c1.4,1.5,1.6,3.2.4,4.4a3.6,3.6,0,0,1-3.2.8h-2.9Z" transform="translate(-41.5 -55.3)" style="fill:#fff"/><path d="M374.6,318.1l-1-1.1-1.5,1.4-1.4-1.5,1.4-1.4-3.4-3.6,1-1,7.3-.9,1.6,1.7-6.9.9,1.7,1.8,1.3-1.2,1.4,1.5-1.3,1.1,1.1,1.1Z" transform="translate(-41.5 -55.3)" style="fill:#fff"/><path d="M406.2,234.9c3.8-5.9,2.3-13.6-2.8-18.4a18.1,18.1,0,0,0-5.3-3.5c-4.9-2-11.3-.5-13.9,4.1s-1.2,8.5.2,12.5,4,8.6,8.2,10.3,8.9.1,12-3A15.6,15.6,0,0,0,406.2,234.9Z" transform="translate(-41.5 -55.3)" style="fill:#f99746"/></g><g id="Wallet"><rect x="184.2" y="181.9" width="290.6" height="210.91" rx="17.4" style="fill:#f99746"/><path d="M516.4,254.7a1.5,1.5,0,0,1-.1-.6,7.2,7.2,0,0,0-.2-1.9,17.3,17.3,0,0,0-6.1-10.9,17.2,17.2,0,0,0-5.7-3.1l-1.7-.5-1.9-.3H245.4a23.3,23.3,0,0,0-5.3.3,16.4,16.4,0,0,0-5,1.7,19.7,19.7,0,0,0-4.3,3.3,16.7,16.7,0,0,0-3.1,4.4,18.3,18.3,0,0,0-1.5,5.2,33.3,33.3,0,0,0-.2,5.5V430.7a17.3,17.3,0,0,0,4.3,11.3,16.9,16.9,0,0,0,10.6,5.7,41.5,41.5,0,0,0,6.1.2H497.5a24.9,24.9,0,0,0,4.7-.4,15.5,15.5,0,0,0,4.3-1.4,14.3,14.3,0,0,0,2.1-1.2l1.8-1.4a18.7,18.7,0,0,0,2.9-3.4,16.5,16.5,0,0,0,2.8-8.5c.1-12,.1-23.5.1-34.5,0-44,0-79.6.1-104.3V257.2c.1-1.6.1-2.5.1-2.5v9.9c0,6.5,0,16,.1,28.3,0,24.7,0,60.3.1,104.3-.1,11,0,22.5-.1,34.6a16.9,16.9,0,0,1-2.8,8.6,17.3,17.3,0,0,1-3.1,3.5,13,13,0,0,1-1.8,1.5,13.9,13.9,0,0,1-2.1,1.1,17.2,17.2,0,0,1-4.5,1.6,24.8,24.8,0,0,1-4.7.3H247c-2,0-4.1.1-6.2-.1a17.8,17.8,0,0,1-15.3-17.6V257.9a52.4,52.4,0,0,1,.2-5.6,15.6,15.6,0,0,1,1.6-5.3,16,16,0,0,1,3.2-4.5,17.4,17.4,0,0,1,4.3-3.4,24.7,24.7,0,0,1,5.2-1.8l1.3-.2H500.8l1.8.3,1.8.5a16.4,16.4,0,0,1,5.7,3.1,22,22,0,0,1,3.6,4.1,17.6,17.6,0,0,1,2.5,6.9,14.2,14.2,0,0,1,.1,1.9A2.8,2.8,0,0,1,516.4,254.7Z" transform="translate(-41.5 -55.3)" style="fill:#263238"/><path d="M506.2,250.3c0-.2,1.3-.3,3-.3s3,.1,3,.3a12.4,12.4,0,0,1-3,.2A11.7,11.7,0,0,1,506.2,250.3Z" transform="translate(-41.5 -55.3)" style="fill:#263238"/><path d="M481.7,250.3c0-.2,2.8-.3,6.1-.3s6.1.1,6.1.3a48.6,48.6,0,0,1-6.1.2A49.9,49.9,0,0,1,481.7,250.3Z" transform="translate(-41.5 -55.3)" style="fill:#263238"/><path d="M457.2,250.3c0-.2,2.8-.3,6.2-.3s6.1.1,6.1.3a49.9,49.9,0,0,1-6.1.2A50.9,50.9,0,0,1,457.2,250.3Z" transform="translate(-41.5 -55.3)" style="fill:#263238"/><path d="M432.8,250.3c0-.2,2.7-.3,6.1-.3s6.1.1,6.1.3a93.1,93.1,0,0,1-12.2,0Z" transform="translate(-41.5 -55.3)" style="fill:#263238"/><path d="M408.3,250.3c0-.2,2.7-.3,6.1-.3s6.1.1,6.1.3a93.1,93.1,0,0,1-12.2,0Z" transform="translate(-41.5 -55.3)" style="fill:#263238"/><path d="M383.8,250.3c0-.2,2.8-.3,6.1-.3s6.1.1,6.1.3a48.6,48.6,0,0,1-6.1.2A49.9,49.9,0,0,1,383.8,250.3Z" transform="translate(-41.5 -55.3)" style="fill:#263238"/><path d="M359.3,250.3c0-.2,2.8-.3,6.2-.3s6.1.1,6.1.3a49.9,49.9,0,0,1-6.1.2A50.9,50.9,0,0,1,359.3,250.3Z" transform="translate(-41.5 -55.3)" style="fill:#263238"/><path d="M334.9,250.3c0-.2,2.7-.3,6.1-.3s6.1.1,6.1.3a93.1,93.1,0,0,1-12.2,0Z" transform="translate(-41.5 -55.3)" style="fill:#263238"/><path d="M310.4,250.3c0-.2,2.7-.3,6.1-.3s6.1.1,6.1.3a93.1,93.1,0,0,1-12.2,0Z" transform="translate(-41.5 -55.3)" style="fill:#263238"/><path d="M285.9,250.3c0-.2,2.7-.3,6.1-.3s6.1.1,6.1.3a48.6,48.6,0,0,1-6.1.2A48.6,48.6,0,0,1,285.9,250.3Z" transform="translate(-41.5 -55.3)" style="fill:#263238"/><path d="M261.4,250.3c0-.2,2.8-.3,6.2-.3s6.1.1,6.1.3a49.9,49.9,0,0,1-6.1.2A50.9,50.9,0,0,1,261.4,250.3Z" transform="translate(-41.5 -55.3)" style="fill:#263238"/><path d="M243.2,256.3a37.9,37.9,0,0,1-.3-6l.3-.3h4.2a4,4,0,0,1,1.8.2h-6c.1-.1-.3.3.3-.2A37.9,37.9,0,0,1,243.2,256.3Z" transform="translate(-41.5 -55.3)" style="fill:#263238"/><path d="M243.2,278.7a52.4,52.4,0,0,1,0-11.2,52.4,52.4,0,0,1,0,11.2Z" transform="translate(-41.5 -55.3)" style="fill:#263238"/><path d="M243.2,301.1a52.4,52.4,0,0,1,0-11.2,52.4,52.4,0,0,1,0,11.2Z" transform="translate(-41.5 -55.3)" style="fill:#263238"/><path d="M243.2,323.5a52.4,52.4,0,0,1,0-11.2,52.4,52.4,0,0,1,0,11.2Z" transform="translate(-41.5 -55.3)" style="fill:#263238"/><path d="M243.2,346a52.4,52.4,0,0,1,0-11.2,52.4,52.4,0,0,1,0,11.2Z" transform="translate(-41.5 -55.3)" style="fill:#263238"/><path d="M243.2,368.4a52.4,52.4,0,0,1,0-11.2,52.4,52.4,0,0,1,0,11.2Z" transform="translate(-41.5 -55.3)" style="fill:#263238"/><path d="M243.2,390.8a52.4,52.4,0,0,1,0-11.2,52.4,52.4,0,0,1,0,11.2Z" transform="translate(-41.5 -55.3)" style="fill:#263238"/><path d="M243.2,413.3a32.8,32.8,0,0,1-.3-5.6,34.6,34.6,0,0,1,.3-5.7,34.6,34.6,0,0,1,.3,5.7A32.8,32.8,0,0,1,243.2,413.3Z" transform="translate(-41.5 -55.3)" style="fill:#263238"/><path d="M249.2,430.5a47.6,47.6,0,0,1-6,.2c-.5-.5-.1-.1-.3-.2h0v-.9c0-.4.1-.8.1-1.2v-1.9c.1-1.1.1-1.7.2-1.7s.1.6.2,1.7v1.9a4.9,4.9,0,0,0,.1,1.2v.9h0l-.3-.3C246.5,430.2,249.2,430.3,249.2,430.5Z" transform="translate(-41.5 -55.3)" style="fill:#263238"/><path d="M273.3,430.5a47.6,47.6,0,0,1-6,.2,47.6,47.6,0,0,1-6-.2c0-.2,2.7-.3,6-.3S273.3,430.3,273.3,430.5Z" transform="translate(-41.5 -55.3)" style="fill:#263238"/><path d="M297.4,430.5a90.1,90.1,0,0,1-12,0c0-.2,2.7-.3,6-.3S297.4,430.3,297.4,430.5Z" transform="translate(-41.5 -55.3)" style="fill:#263238"/><path d="M321.6,430.5a48.6,48.6,0,0,1-6.1.2,47.6,47.6,0,0,1-6-.2c0-.2,2.7-.3,6-.3S321.6,430.3,321.6,430.5Z" transform="translate(-41.5 -55.3)" style="fill:#263238"/><path d="M345.7,430.5a47.6,47.6,0,0,1-6,.2,48.6,48.6,0,0,1-6.1-.2c0-.2,2.7-.3,6.1-.3S345.7,430.3,345.7,430.5Z" transform="translate(-41.5 -55.3)" style="fill:#263238"/><path d="M369.8,430.5a47.6,47.6,0,0,1-6,.2,48.6,48.6,0,0,1-6.1-.2c0-.2,2.7-.3,6.1-.3S369.8,430.3,369.8,430.5Z" transform="translate(-41.5 -55.3)" style="fill:#263238"/><path d="M393.9,430.5a90.1,90.1,0,0,1-12,0c0-.2,2.7-.3,6-.3S393.9,430.3,393.9,430.5Z" transform="translate(-41.5 -55.3)" style="fill:#263238"/><path d="M418,430.5a90.1,90.1,0,0,1-12,0c0-.2,2.7-.3,6-.3S418,430.3,418,430.5Z" transform="translate(-41.5 -55.3)" style="fill:#263238"/><path d="M442.2,430.5a48.6,48.6,0,0,1-6.1.2,47.6,47.6,0,0,1-6-.2c0-.2,2.7-.3,6-.3S442.2,430.3,442.2,430.5Z" transform="translate(-41.5 -55.3)" style="fill:#263238"/><path d="M466.3,430.5a47.6,47.6,0,0,1-6,.2,48.6,48.6,0,0,1-6.1-.2c0-.2,2.7-.3,6.1-.3S466.3,430.3,466.3,430.5Z" transform="translate(-41.5 -55.3)" style="fill:#263238"/><path d="M490.4,430.5a47.6,47.6,0,0,1-6,.2,48.6,48.6,0,0,1-6.1-.2c0-.2,2.7-.3,6.1-.3S490.4,430.3,490.4,430.5Z" transform="translate(-41.5 -55.3)" style="fill:#263238"/><path d="M508.5,430.5a12.4,12.4,0,0,1-3,.2,11.7,11.7,0,0,1-3-.2c0-.2,1.3-.3,3-.3S508.5,430.3,508.5,430.5Z" transform="translate(-41.5 -55.3)" style="fill:#263238"/><g style="opacity:0.30000000000000004"><path d="M326,354.2s.1,10-2.9,16.1-4.1,8.4-10.4,10.7-86.9,11.1-86.9,11.1V364.9Z" transform="translate(-41.5 -55.3)"/></g><g style="opacity:0.30000000000000004"><path d="M324.6,316.5s.9-10.2-24.7-14c-29.3-4.3-74.1-9.6-74.1-9.6v19.3Z" transform="translate(-41.5 -55.3)"/></g><rect x="172.6" y="251.9" width="111.9" height="65.92" rx="14.3" style="fill:#f99746"/><path d="M228.4,373.2h-.8a9.6,9.6,0,0,1-2.5-.4,14.9,14.9,0,0,1-3.8-1.4,14.2,14.2,0,0,1-4.2-3.7,13.6,13.6,0,0,1-2.9-6.3,26.1,26.1,0,0,1-.2-4v-4.3c0-6-.1-12.7-.1-20.2V321.1a14.6,14.6,0,0,1,5.8-11.1,15.1,15.1,0,0,1,6.2-2.7,13,13,0,0,1,3.4-.2h82.4a12.5,12.5,0,0,1,4.3.7,13.8,13.8,0,0,1,3.9,1.8,14.2,14.2,0,0,1,3.1,2.9,13.9,13.9,0,0,1,2.2,3.7,11.7,11.7,0,0,1,1,4.1c.1,1.4.1,2.7.1,4.1V356c0,1.3,0,2.5-.1,3.8a11.1,11.1,0,0,1-.2,1.9c-.2.6-.3,1.3-.5,1.8a14.4,14.4,0,0,1-10.4,9.5l-1.8.3h-5.2c2.3-.1,4.6.2,6.9-.4a14.2,14.2,0,0,0,10-9.2c.9-2.3.8-4.8.8-7.4V324.3c0-1.3,0-2.7-.1-4.1a14.8,14.8,0,0,0-3.1-7.5,16.1,16.1,0,0,0-3-2.8,17.6,17.6,0,0,0-3.7-1.7,20.5,20.5,0,0,0-4.2-.7H229.3a19.4,19.4,0,0,0-3.4.2,14.8,14.8,0,0,0-6,2.7,13.8,13.8,0,0,0-5.6,10.7v32c-.1,1.5-.1,2.9-.1,4.3a16.3,16.3,0,0,0,.3,3.9,14.5,14.5,0,0,0,2.7,6.3,13.7,13.7,0,0,0,4.2,3.6,11.1,11.1,0,0,0,3.7,1.5,9.6,9.6,0,0,0,2.5.4Z" transform="translate(-41.5 -55.3)" style="fill:#263238"/><circle cx="250.8" cy="287.4" r="24" style="fill:#263238"/><path d="M298.5,362.3a23.8,23.8,0,0,0,5.7-3,21,21,0,0,0,4.8-5,20.1,20.1,0,0,0,3.2-7.8,18.4,18.4,0,0,0-.6-8.5,21.1,21.1,0,0,0-3-6.2,22.1,22.1,0,0,0-4.6-4.7l.4.3a2.8,2.8,0,0,1,1.1.7,18.7,18.7,0,0,1,6.6,9.8,19.2,19.2,0,0,1-2.7,16.7,19.7,19.7,0,0,1-5,5,24.9,24.9,0,0,1-4.2,2.2l-1.3.4Z" transform="translate(-41.5 -55.3)" style="fill:#fafafa"/></g><g id="Money"><path d="M667.4,189.1a44.3,44.3,0,1,1-48-40A44.3,44.3,0,0,1,667.4,189.1Z" transform="translate(-41.5 -55.3)" style="fill:#ffb93e"/><g style="opacity:0.30000000000000004"><path d="M656.8,189c-.2,0-.5-1.4-1.2-3.9a38.2,38.2,0,0,0-4.8-10,37.1,37.1,0,0,0-5-5.7,34.5,34.5,0,0,0-7.1-5,32.5,32.5,0,0,0-4.3-1.8,36.2,36.2,0,0,0-4.7-1.3,41.8,41.8,0,0,0-5.1-.6l-5.2.3a30.6,30.6,0,0,0-5.1,1,37.5,37.5,0,0,0-4.7,1.7,36.2,36.2,0,0,0-4.3,2.4,35.8,35.8,0,0,0-3.7,2.8,34.5,34.5,0,0,0-5.7,6.6,30.8,30.8,0,0,0-3.5,6.7,36.1,36.1,0,0,0-2.3,10.8c-.1,2.6,0,4.1-.2,4.1s-.6-1.4-.8-4.1a31,31,0,0,1,1.6-11.4,28,28,0,0,1,3.4-7.3,32.3,32.3,0,0,1,5.9-7.1,25,25,0,0,1,4-3.1,33.5,33.5,0,0,1,4.5-2.7,44.5,44.5,0,0,1,5.1-1.9,34.7,34.7,0,0,1,11.1-1.3,33.1,33.1,0,0,1,5.5.6,41.3,41.3,0,0,1,5,1.5,32.2,32.2,0,0,1,4.6,2.1,30.3,30.3,0,0,1,7.5,5.5,33,33,0,0,1,9.3,16.9C657,187.5,657,189,656.8,189Z" transform="translate(-41.5 -55.3)"/></g><g style="opacity:0.30000000000000004"><path d="M628.9,212.8l.6,5.8-5.2.6-.6-5.7c-5.2.2-10.3-.9-13.4-2.8l2.2-6.7a20,20,0,0,0,10.5,2.6l-.9-8.7c-5.9-.8-12.6-2-13.4-9.5-.6-5.5,3-10.7,11.1-12.5l-.6-5.8,5.2-.5.6,5.7a23.6,23.6,0,0,1,10.9,2L634,184a21.1,21.1,0,0,0-8.3-1.8l1,8.8c5.9.8,12.5,2,13.2,9.4C640.5,205.8,637,210.9,628.9,212.8Zm-7.6-22.5-.8-7.4c-2.7.9-3.6,2.5-3.4,4.2S618.9,189.8,621.3,190.3Zm10.3,11.6c-.2-1.8-1.8-2.7-4.1-3.2l.7,7.2C630.8,205,631.8,203.6,631.6,201.9Z" transform="translate(-41.5 -55.3)"/></g><path d="M589.7,196.2v.2c0,.2.1.5.1.8l.3,1.3a6.7,6.7,0,0,0,.3,1.8,34.8,34.8,0,0,0,4.3,10.3,32.9,32.9,0,0,0,4.8,6.1l1.6,1.4.8.8.9.6,1.8,1.4,2,1.2a33.8,33.8,0,0,0,9.2,3.5,33.2,33.2,0,0,0,10.5.7,34.8,34.8,0,0,0,10.2-2.6,36.9,36.9,0,0,0,8.4-5.1,12.9,12.9,0,0,1,1.7-1.6l1.5-1.6.8-.9.7-.8A10.9,10.9,0,0,1,651,212a32.6,32.6,0,0,0,3.6-6.9,34.2,34.2,0,0,0,2.3-11,4.8,4.8,0,0,0,0-1.7v-1.3c0,.3.1.8.1,1.3a9.6,9.6,0,0,1,0,1.7,32.5,32.5,0,0,1-2.2,11.2,35.2,35.2,0,0,1-3.6,6.9L650,214a2.7,2.7,0,0,1-.7.8l-.7.9c-.5.5-1,1.1-1.6,1.6l-1.7,1.6a38.2,38.2,0,0,1-8.5,5.3,38.8,38.8,0,0,1-10.4,2.7,37.1,37.1,0,0,1-10.6-.8,34.6,34.6,0,0,1-9.3-3.6l-2-1.2-1.9-1.4-.9-.7-.8-.7-1.6-1.5a33.4,33.4,0,0,1-4.8-6.2,32.4,32.4,0,0,1-4.2-10.5,13.5,13.5,0,0,1-.3-1.8c-.1-.5-.1-.9-.2-1.3v-.8A.3.3,0,0,1,589.7,196.2Z" transform="translate(-41.5 -55.3)" style="fill:#263238"/><path d="M605,319.6a25.7,25.7,0,1,1-12-34.2A25.6,25.6,0,0,1,605,319.6Z" transform="translate(-41.5 -55.3)" style="fill:#ffb93e"/><g style="opacity:0.30000000000000004"><path d="M599.8,316.4a19.3,19.3,0,0,1,.5-2.3,19.2,19.2,0,0,0,.6-6.4,20.8,20.8,0,0,0-2.8-8.9,17.7,17.7,0,0,0-1.6-2.2l-2-2.1-2.3-1.8-2.7-1.4-2.8-1a16,16,0,0,0-2.9-.5,9.4,9.4,0,0,0-2.9-.1,12.4,12.4,0,0,0-2.7.3,19.2,19.2,0,0,0-4.8,1.5,21.4,21.4,0,0,0-3.7,2.3,25.5,25.5,0,0,0-4.4,4.7c-.8,1.3-1.2,2.1-1.3,2s.1-.8.8-2.3A20.6,20.6,0,0,1,569,293a24,24,0,0,1,3.9-2.6,19.2,19.2,0,0,1,5.1-1.8l2.9-.4h3a17,17,0,0,1,3.1.6,16,16,0,0,1,3.1,1,26.9,26.9,0,0,1,2.9,1.6l2.5,1.9a22.9,22.9,0,0,1,2.1,2.3,10,10,0,0,1,1.6,2.4,17.3,17.3,0,0,1,2.1,4.9,20.6,20.6,0,0,1,.7,4.7,20.9,20.9,0,0,1-1.1,6.6C600.4,315.7,599.9,316.5,599.8,316.4Z" transform="translate(-41.5 -55.3)"/></g><g style="opacity:0.30000000000000004"><path d="M578.8,320l-1.4,3.1-2.8-1.3,1.4-3a14.9,14.9,0,0,1-5.9-5.4l3.1-2.7a12.9,12.9,0,0,0,4.5,4.5l2.1-4.7c-2.7-2.1-5.7-4.7-3.8-8.7s4.6-4.5,9.2-2.9l1.5-3.1,2.7,1.3-1.4,3a13.7,13.7,0,0,1,4.9,4.3l-3,2.8a13.3,13.3,0,0,0-3.6-3.5l-2.2,4.7c2.8,2.2,5.7,4.8,3.9,8.7S583.4,321.5,578.8,320Zm2.9-13.5,1.8-4c-1.6-.3-2.5.2-3,1.1S580.7,305.5,581.7,306.5Zm1.7,8.8c.4-.9-.1-1.8-1.1-2.8l-1.8,3.8C582,316.7,583,316.2,583.4,315.3Z" transform="translate(-41.5 -55.3)"/></g><path d="M564.2,300l-.8,2.3a18.1,18.1,0,0,0-.9,6.4,18.6,18.6,0,0,0,.6,4.5A20.8,20.8,0,0,0,565,318a24.2,24.2,0,0,0,3.5,4.4,21.5,21.5,0,0,0,5,3.5,20.9,20.9,0,0,0,5.9,1.7,18.1,18.1,0,0,0,5.7-.1,18.6,18.6,0,0,0,4.9-1.4,17.6,17.6,0,0,0,3.8-2.4,19.1,19.1,0,0,0,4.5-4.7c.8-1.3,1.2-2.1,1.2-2.1s0,.3-.2.6a6.8,6.8,0,0,1-.9,1.6,17.8,17.8,0,0,1-4.3,4.9,29.1,29.1,0,0,1-3.9,2.5,25.3,25.3,0,0,1-5.1,1.5,18.7,18.7,0,0,1-5.8.1,22.6,22.6,0,0,1-6-1.7,23.4,23.4,0,0,1-5.1-3.6,22.1,22.1,0,0,1-3.6-4.6,19.8,19.8,0,0,1-1.9-4.9,19.4,19.4,0,0,1-.6-4.6,20.2,20.2,0,0,1,1.1-6.5,8.4,8.4,0,0,1,.7-1.6Z" transform="translate(-41.5 -55.3)" style="fill:#263238"/><path d="M180.4,316a42,42,0,1,1-47.5-35.4A41.9,41.9,0,0,1,180.4,316Z" transform="translate(-41.5 -55.3)" style="fill:#ffb93e"/><g style="opacity:0.30000000000000004"><path d="M170.4,316.4c-.2.1-.5-1.3-1.4-3.7a33.4,33.4,0,0,0-5.1-9.1,30.3,30.3,0,0,0-5-5.2,31.9,31.9,0,0,0-7-4.3,28.6,28.6,0,0,0-4.1-1.5,23.6,23.6,0,0,0-4.6-1,36.4,36.4,0,0,0-4.8-.3,42.8,42.8,0,0,0-4.9.5,35.9,35.9,0,0,0-4.7,1.2l-4.4,1.9-4,2.5a31.1,31.1,0,0,0-3.3,2.9,28.1,28.1,0,0,0-5.1,6.5,34,34,0,0,0-3,6.5,39.3,39.3,0,0,0-1.6,10.4c0,2.5.2,3.9,0,3.9s-.6-1.3-.9-3.9a29.6,29.6,0,0,1,.9-10.9,33,33,0,0,1,2.8-7,32,32,0,0,1,5.3-7.1,27.2,27.2,0,0,1,3.5-3.2,43.2,43.2,0,0,1,4.2-2.7,34.8,34.8,0,0,1,4.8-2.1,38,38,0,0,1,5.1-1.3,32.7,32.7,0,0,1,5.3-.5,29.7,29.7,0,0,1,5.2.3,33.8,33.8,0,0,1,4.8,1.1,30.2,30.2,0,0,1,4.5,1.8,29.8,29.8,0,0,1,7.3,4.8,29.1,29.1,0,0,1,5.1,5.6,30.1,30.1,0,0,1,4.6,10C170.5,315,170.5,316.4,170.4,316.4Z" transform="translate(-41.5 -55.3)"/></g><g style="opacity:0.30000000000000004"><path d="M145.2,340.4l.9,5.5-4.9.8-.9-5.4c-4.9.5-9.8-.3-12.8-2l1.7-6.4a20.8,20.8,0,0,0,10.1,2l-1.3-8.2c-5.7-.5-12.1-1.3-13.2-8.4-.8-5.2,2.2-10.2,9.9-12.4l-.9-5.4,4.9-.8.9,5.4a22.2,22.2,0,0,1,10.4,1.4l-1.5,6.4a20.6,20.6,0,0,0-7.9-1.4l1.3,8.4c5.7.4,12,1.3,13.1,8.2C155.8,333.2,152.8,338.2,145.2,340.4Zm-8.4-21-1.1-6.9c-2.5,1-3.3,2.6-3,4.2S134.6,319.1,136.8,319.4Zm10.4,10.5c-.3-1.7-1.9-2.4-4.1-2.8l1.1,6.8C146.6,333,147.4,331.5,147.2,329.9Z" transform="translate(-41.5 -55.3)"/></g><path d="M107.2,326.7c.1,0,.1.1.1.2s.1.5.2.8a10.4,10.4,0,0,1,.3,1.2,12.4,12.4,0,0,0,.4,1.6,32.4,32.4,0,0,0,4.6,9.6,30.8,30.8,0,0,0,4.9,5.5l1.5,1.3.9.6.8.6,1.8,1.2,2,1a31.4,31.4,0,0,0,8.8,2.9,33.5,33.5,0,0,0,10,.1,34.6,34.6,0,0,0,9.6-3,32.2,32.2,0,0,0,7.6-5.3l1.6-1.6a18.3,18.3,0,0,0,1.3-1.6l.7-.8.6-.9,1.1-1.6a28.3,28.3,0,0,0,3.1-6.7,34,34,0,0,0,1.7-10.5c0-.7-.1-1.2-.1-1.7a5.7,5.7,0,0,1-.1-1.2,1.7,1.7,0,0,0-.1-.8v-.3c.1,0,.1.1.1.3s.1.4.1.7.1.8.1,1.3a7.9,7.9,0,0,1,.2,1.7,33.6,33.6,0,0,1-1.5,10.6,37,37,0,0,1-3.1,6.8l-1.1,1.7-.6.9a2.7,2.7,0,0,0-.7.8c-.5.5-.9,1.1-1.4,1.7l-1.6,1.6a31.5,31.5,0,0,1-17.4,8.4,34.8,34.8,0,0,1-10.2-.1,32.1,32.1,0,0,1-8.9-2.9l-2-1.1-1.8-1.2-.9-.6a2.7,2.7,0,0,1-.8-.7l-1.6-1.3a31.2,31.2,0,0,1-4.9-5.6,29.7,29.7,0,0,1-4.5-9.7,13.6,13.6,0,0,1-.4-1.7c-.1-.4-.1-.9-.2-1.2V327A.8.8,0,0,1,107.2,326.7Z" transform="translate(-41.5 -55.3)" style="fill:#263238"/></g><g id="Floor"><path d="M708.5,448.2c0,.1-149.3.3-333.5.3s-333.5-.2-333.5-.3,149.3-.3,333.5-.3S708.5,448.1,708.5,448.2Z" transform="translate(-41.5 -55.3)" style="fill:#263238"/></g><g id="Character"><path d="M553,260.3s-.1-6.6-.4-6.7L539,256.7c-.2.8-1.9,11.8-1.6,12.8l15.4,4.3S553,260.7,553,260.3Z" transform="translate(-41.5 -55.3)" style="fill:#ffbe9d"/><path d="M553,272.8a.4.4,0,0,0,.1-.3c.1-1.5,0-8-.7-8.3s-3.2.2-3.3,1.1.4,8.1.4,8.1.1,1.2,2.1,1.5S553,272.8,553,272.8Z" transform="translate(-41.5 -55.3)" style="fill:#ffbe9d"/><path d="M549.1,275.1a.4.4,0,0,0,.1-.3c.1-1.5,0-8-.7-8.3s-3.2.2-3.3,1.1.4,8.2.4,8.2.1,1.1,2.1,1.4S549.1,275.1,549.1,275.1Z" transform="translate(-41.5 -55.3)" style="fill:#ffbe9d"/><path d="M545.3,276.3a.8.8,0,0,1,.1-.3c.1-1.5,0-8-.8-8.3s-3.1.2-3.2,1.1.3,8.1.3,8.1.2,1.2,2.1,1.5S545.3,276.3,545.3,276.3Z" transform="translate(-41.5 -55.3)" style="fill:#ffbe9d"/><path d="M541.5,277.4a.4.4,0,0,0,.1-.3c.1-1.5,0-8-.8-8.3s-3.1.2-3.2,1.1.3,8.1.3,8.1.2,1.2,2.1,1.5S541.5,277.4,541.5,277.4Z" transform="translate(-41.5 -55.3)" style="fill:#ffbe9d"/><path d="M549.1,267.2a16.5,16.5,0,0,1,.3,3.1,18,18,0,0,1-.1,3.2,8.6,8.6,0,0,1-.3-3.2C548.9,268.6,548.9,267.2,549.1,267.2Z" transform="translate(-41.5 -55.3)" style="fill:#eb996e"/><path d="M545.2,267.1a27,27,0,0,1,.4,4.5c.1,2.5.1,4.6-.1,4.6a35.8,35.8,0,0,1-.3-4.5A29.5,29.5,0,0,1,545.2,267.1Z" transform="translate(-41.5 -55.3)" style="fill:#eb996e"/><g style="opacity:0.78"><path d="M541.3,267.5a25.5,25.5,0,0,1,.4,4.5c.1,2.5.1,4.5-.1,4.5a33.8,33.8,0,0,1-.3-4.5A27.9,27.9,0,0,1,541.3,267.5Z" transform="translate(-41.5 -55.3)" style="fill:#eb996e"/></g><path d="M538.9,257s-5.4,12.3-4.6,13.1a13.6,13.6,0,0,0,3.3,1.9Z" transform="translate(-41.5 -55.3)" style="fill:#ffbe9d"/><path d="M508.9,92.1l-3.9,46-23.1-1.9c-.1-2.7.1-13.1.1-13.1s-9.6-1.4-9.7-11c-.1-4.7.6-14.3,1.3-23a17.7,17.7,0,0,1,18.7-16.2h0A17.6,17.6,0,0,1,508.9,92.1Z" transform="translate(-41.5 -55.3)" style="fill:#ffbe9d"/><path d="M482,123a22.5,22.5,0,0,0,12.5-3.5s-3,6.9-12.5,6Z" transform="translate(-41.5 -55.3)" style="fill:#eb996e"/><path d="M476.2,95.8a1.2,1.2,0,0,0,1.3,1.4,1.3,1.3,0,0,0,1.4-1.2,1.5,1.5,0,0,0-1.3-1.4A1.3,1.3,0,0,0,476.2,95.8Z" transform="translate(-41.5 -55.3)" style="fill:#263238"/><path d="M475.6,94a14.1,14.1,0,0,1,2.7-.6c1.5,0,2.6.7,2.7.5s-.1-.4-.5-.7a4.4,4.4,0,0,0-2.2-.7,3.7,3.7,0,0,0-2.1.7C475.7,93.6,475.6,93.9,475.6,94Z" transform="translate(-41.5 -55.3)" style="fill:#263238"/><path d="M490.7,95.8a1.2,1.2,0,0,0,1.3,1.4,1.3,1.3,0,0,0,1.4-1.2,1.5,1.5,0,0,0-1.3-1.4A1.3,1.3,0,0,0,490.7,95.8Z" transform="translate(-41.5 -55.3)" style="fill:#263238"/><path d="M490.1,94.2c.2.2,1.2-.6,2.7-.5s2.6.7,2.7.5-.1-.4-.5-.7a3.8,3.8,0,0,0-4.4,0C490.2,93.8,490,94.2,490.1,94.2Z" transform="translate(-41.5 -55.3)" style="fill:#263238"/><path d="M484.8,105.2a7.7,7.7,0,0,0-2.4-.5c-.4,0-.7-.1-.8-.3s.1-.7.2-1.2l1.2-2.8a68.7,68.7,0,0,0,2.5-7.5c-.2-.1-1.6,3.2-3.1,7.3-.4,1-.8,1.9-1.1,2.8s-.4,1-.2,1.5a1.2,1.2,0,0,0,.6.6h3.1Z" transform="translate(-41.5 -55.3)" style="fill:#263238"/><path d="M489.1,106.2c-.2,0-.2,1.6-1.6,2.7s-3.1,1-3.1,1.2.4.3,1.1.3a4.1,4.1,0,0,0,2.6-.9,3.3,3.3,0,0,0,1.2-2.3C489.4,106.6,489.2,106.2,489.1,106.2Z" transform="translate(-41.5 -55.3)" style="fill:#263238"/><path d="M489.7,88.5c.2.4,1.7.2,3.4.4s3.1.7,3.3.3-.1-.5-.7-.9a4.8,4.8,0,0,0-2.4-.9,7.2,7.2,0,0,0-2.7.3C490,88,489.7,88.3,489.7,88.5Z" transform="translate(-41.5 -55.3)" style="fill:#263238"/><path d="M476.2,89.7c.3.3,1.3,0,2.5,0s2.2.2,2.5-.2-.1-.5-.5-.8a4.1,4.1,0,0,0-2.1-.5,3.9,3.9,0,0,0-2,.6C476.2,89.2,476.1,89.5,476.2,89.7Z" transform="translate(-41.5 -55.3)" style="fill:#263238"/><path d="M511,86.2c-.5,4.6-1.8,10.5-2.2,15.3a2.4,2.4,0,0,1-.3,1.2c-.7.9-2.3,2.9-3.2,2.1s-2.8-7.1-3.2-9.9-.3-5.5-.7-8.2v-.2a7.9,7.9,0,0,0-2.8-4.9l-1.1-.6c-2.8-1-7.5.9-10.3,1.9s-2.9,1.2-4.3,1.8a9.8,9.8,0,0,1-9.9-.8c-1.7-1.2-1.8-5.2-1.1-7.6,2-6.7,10.4-9,21.2-6.5S512.1,76.6,511,86.2Z" transform="translate(-41.5 -55.3)" style="fill:#263238"/><path d="M505.7,96.4c.2-.1,6.6-1.9,6.4,4.6s-6.8,5-6.8,4.8S505.7,96.4,505.7,96.4Z" transform="translate(-41.5 -55.3)" style="fill:#ffbe9d"/><path d="M507.4,103.4l.3.2a1.4,1.4,0,0,0,.9,0c.7-.2,1.3-1.3,1.4-2.5a4.1,4.1,0,0,0-.3-1.6,1.5,1.5,0,0,0-.8-.9.6.6,0,0,0-.7.3.8.8,0,0,0-.1.3.6.6,0,0,1-.1-.4c.1-.1.1-.3.3-.4a.7.7,0,0,1,.6-.1,1.5,1.5,0,0,1,1.2,1,4,4,0,0,1,.3,1.9c-.1,1.3-.8,2.5-1.7,2.7a1.2,1.2,0,0,1-1.1-.2A.4.4,0,0,1,507.4,103.4Z" transform="translate(-41.5 -55.3)" style="fill:#eb996e"/><path d="M510.9,86.6a8.6,8.6,0,0,1-4.7,1.3,8.9,8.9,0,0,1-4.7-1.1c0-.2,2.1.6,4.7.5A23.7,23.7,0,0,0,510.9,86.6Z" transform="translate(-41.5 -55.3)" style="fill:#455a64"/><path d="M510.7,88.5a7.8,7.8,0,0,1-4.5,1.2c-2.7.1-4.6-.9-4.5-1.1a17.4,17.4,0,0,0,4.5.6C508.7,89.2,510.6,88.3,510.7,88.5Z" transform="translate(-41.5 -55.3)" style="fill:#455a64"/><path d="M465.1,414.9l4.2,19.6s-18.5,10.9-18,14.6l38.3-6.9-5.4-30.8Z" transform="translate(-41.5 -55.3)" style="fill:#263238"/><path d="M489.6,442.2l-.7-3.1-36.5,7.8s-1.5,1-1.1,2.2Z" transform="translate(-41.5 -55.3)" style="fill:#455a64"/><path d="M508.6,417l.7,20.1s-20.2,7.3-20.4,11.1h38.9l.3-31.3Z" transform="translate(-41.5 -55.3)" style="fill:#263238"/><g style="opacity:0.6000000000000001"><path d="M527.8,448.3v-3.1l-37.3,1s-1.7.7-1.5,2Z" transform="translate(-41.5 -55.3)" style="fill:#455a64"/></g><path d="M463,431.7s-20-97.9-20-99.9L478.7,313l13.8,114.9Z" transform="translate(-41.5 -55.3)" style="fill:#263238"/><path d="M507.9,434.9,480.3,265.3V228.7l37.7,3.5c.4,1.5,12.8,203,12.8,203l-3.9-.3h-19" transform="translate(-41.5 -55.3)" style="fill:#263238"/><polygon points="417.1 170.8 401.5 276.5 436.4 268 450.7 174.2 417.1 170.8" style="fill:#263238"/><path d="M491,235.1v.5a10.4,10.4,0,0,0,.2,1.5c.1,1.4.3,3.4.6,5.9.6,5,1.5,12.3,2.7,21.4,2.3,18,5.9,42.9,9.7,70.4,1.8,13.8,3.6,26.9,5.1,38.9.4,2.9.7,5.9,1.1,8.7l1.2,8.2c.8,5.3,1.6,10.2,2.3,14.7,1.3,9,2.4,16.3,3.1,21.3.3,2.6.6,4.5.8,5.9s.1,1.1.1,1.5v.3c0,.2-.1,0-.1.1h.1a.6.6,0,0,0,.1-.4c-.1-.4-.1-.9-.2-1.6s-.3-3.3-.6-5.8c-.7-5-1.7-12.3-3-21.3-.7-4.5-1.4-9.5-2.2-14.8-.4-2.6-.8-5.4-1.2-8.2s-.7-5.7-1.1-8.7c-1.5-11.9-3.2-25.1-5.1-38.8-3.8-27.5-7.4-52.4-9.8-70.5-1.2-9-2.1-16.3-2.8-21.3-.3-2.6-.6-4.5-.8-5.9a6.1,6.1,0,0,0-.2-1.5Z" transform="translate(-41.5 -55.3)" style="fill:#455a64"/><path d="M469.9,430.8v-.5q-.1-.6-.3-1.5l-.9-5.6c-.9-4.9-2.1-12-3.6-20.7-3.2-17.5-7.4-41.6-12.2-68.3a16.2,16.2,0,0,1-.3-4.9c.2-1.6.5-3.3.7-4.9q.8-4.9,1.5-9.6c1-6.3,2-12.4,3-18.2,1.9-11.6,3.7-21.9,5.4-30.7s3.1-15.7,4.2-20.5c.6-2.4,1-4.3,1.3-5.6l.4-1.4c0-.4.1-.5.1-.5a1.2,1.2,0,0,0-.2.5l-.4,1.4c-.3,1.3-.8,3.1-1.4,5.5-1.1,4.9-2.6,11.9-4.3,20.6s-3.6,19.1-5.6,30.6c-.9,5.8-1.9,11.9-2.9,18.2l-1.5,9.6c-.3,1.7-.5,3.3-.8,5a21,21,0,0,0,.3,5c4.8,26.7,9.2,50.8,12.3,68.2l3.8,20.7c.4,2.4.8,4.3,1,5.6a4.9,4.9,0,0,1,.3,1.5A1.8,1.8,0,0,1,469.9,430.8Z" transform="translate(-41.5 -55.3)" style="fill:#455a64"/><path d="M480.3,264.1c-.1,0,1.5,11,3.6,24.5s4,24.4,4.2,24.4-1.5-11-3.7-24.5S480.4,264.1,480.3,264.1Z" transform="translate(-41.5 -55.3)" style="fill:#455a64"/><path d="M507.5,434.6l.9.2,2.5.2,8.2.4c3.2.1,6.1,0,8.2-.1h2.5c.6-.1.9-.1.9-.2H519.1l-8.2-.2Z" transform="translate(-41.5 -55.3)" style="fill:#455a64"/><path d="M463,431.7h1.2l3.1-.3,10.5-1.3,10.4-1.4,3.1-.5,1.2-.2h-1.2l-3.2.3-10.4,1.3-10.4,1.4-3.2.5Z" transform="translate(-41.5 -55.3)" style="fill:#455a64"/><path d="M410.5,163.7,433,180.8s20.9-35.7,22.8-37.9,6.5-4.6,6.5-4.6L459.7,184s-11.3,28.9-26.8,27.3c-11.9-1.2-32.4-32.5-32.4-32.5Z" transform="translate(-41.5 -55.3)" style="fill:#455a64"/><g style="opacity:0.2"><path d="M432.6,180.2a20,20,0,0,0-2.3,16.5,2.6,2.6,0,0,0,.9,1.4,1.8,1.8,0,0,0,2.3-.7,7.6,7.6,0,0,0,.6-2.6,6,6,0,0,0,1.6,2.2,2,2,0,0,0,2.5-.1c.8-.8.4-2.1-.1-3.1l-5.7-13" transform="translate(-41.5 -55.3)"/></g><path d="M416.2,168.8a86.7,86.7,0,0,1-5.2,8.6,76.2,76.2,0,0,1-5.6,8.3c-.2-.1,2.1-3.9,5.1-8.6S416,168.7,416.2,168.8Z" transform="translate(-41.5 -55.3)" style="fill:#263238"/><path d="M410.5,168.2c-.1-.1.2-.4.7-.2a1.1,1.1,0,0,1,.6.7,1.2,1.2,0,0,1-.5,1.1,1.1,1.1,0,0,1-1.2-.2.8.8,0,0,1-.2-.9c.1-.5.5-.6.5-.5s-.1.2-.1.6a.5.5,0,0,0,.7.4c.4-.2.3-.6,0-.8S410.5,168.3,410.5,168.2Z" transform="translate(-41.5 -55.3)" style="fill:#263238"/><path d="M433,191.6a14.2,14.2,0,0,1-1-5.4c0-3.1.7-5.5.9-5.4s-.3,2.4-.3,5.4S433.2,191.6,433,191.6Z" transform="translate(-41.5 -55.3)" style="fill:#263238"/><path d="M437.4,191.4a17.8,17.8,0,0,1-2.9-5,19.3,19.3,0,0,1-1.7-5.6c.2,0,1,2.4,2.3,5.4S437.5,191.4,437.4,191.4Z" transform="translate(-41.5 -55.3)" style="fill:#263238"/><path d="M509.3,134l-3.4-6.8H481.3l-3.8,7.7-15.2,3.4-6.5,97.9a6,6,0,0,0,.8,3.5h0l59.7,2.3,2.5,1c2.1-1.3.8-6.7.8-9.3l.7-48.5,11.9-38.7Z" transform="translate(-41.5 -55.3)" style="fill:#455a64"/><g style="opacity:0.2"><path d="M483.8,137.4l4.4-4.4c1.6,3.9,3.2,7.9,4.9,11.8a135.1,135.1,0,0,0,16-11.2l-16.6,5.3-4.2-11.1a47.8,47.8,0,0,1-4.1,9.6" transform="translate(-41.5 -55.3)"/></g><path d="M553.1,256.7l-16.1.8V211.4l-16.7-26.2,11.9-38.7c2.4.9,20.7,47,25.4,59.5a13.5,13.5,0,0,1,.9,5.6Z" transform="translate(-41.5 -55.3)" style="fill:#455a64"/><path d="M462.3,158.5c.2,0-.6,9.5-1.8,21.2s-2.2,21.1-2.4,21,.7-9.4,1.8-21.1S462.1,158.5,462.3,158.5Z" transform="translate(-41.5 -55.3)" style="fill:#263238"/><path d="M488.3,127.8c.2.1-1.1,3.6-2.9,7.9l-.3.8-.6.8a.9.9,0,0,1-1,.1l-.7-.5-2.2-1.5a7.7,7.7,0,0,1-2-1.5l2.2,1.2,2.3,1.4c.4.2.9.5,1.1.3a4.8,4.8,0,0,0,.6-1.4A76,76,0,0,1,488.3,127.8Z" transform="translate(-41.5 -55.3)" style="fill:#263238"/><path d="M507.9,133.8a23.3,23.3,0,0,1-3.8,1.5l-9.2,3.3-2,.6h-.2v-.2l-3.2-7.8c-.7-1.9-1.1-3.1-1.1-3.2a16.2,16.2,0,0,1,1.5,3.1c.9,1.9,2,4.6,3.3,7.6h-.4l2-.7,9.3-3.1A25.8,25.8,0,0,1,507.9,133.8Z" transform="translate(-41.5 -55.3)" style="fill:#263238"/><path d="M529.6,147.9c.1.1-3.4,1.1-7.4,2.9s-7,3.7-7.1,3.5a7.4,7.4,0,0,1,1.9-1.4,31.4,31.4,0,0,1,5-2.7,39.1,39.1,0,0,1,5.3-1.9A5.7,5.7,0,0,1,529.6,147.9Z" transform="translate(-41.5 -55.3)" style="fill:#263238"/><path d="M488.3,127.8a.8.8,0,0,0,.1.3v.9c0,.7.1,1.8.1,3.3s0,7-.2,12.1c-.4,10.3-1.7,24.4-3.7,40-1,7.8-2.1,15.1-2.8,21.9a131.9,131.9,0,0,0-1,17.9,83.4,83.4,0,0,0,.9,12.1c.2,1.5.4,2.5.5,3.3s.1.6.2.8v.1a3.7,3.7,0,0,0-.2-.9c-.1-.7-.4-1.8-.6-3.2a94,94,0,0,1-1.2-12.1,151.6,151.6,0,0,1,.9-18.1c.7-6.7,1.8-14.1,2.8-21.9,2-15.5,3.4-29.6,3.9-39.9.2-5.1.3-9.3.3-12.1s.1-2.5.1-3.3v-1.2Z" transform="translate(-41.5 -55.3)" style="fill:#263238"/><path d="M554,249.6c0,.2-3.8.2-8.5-.1s-8.6-.5-8.5-.7,3.8-.1,8.5.1Z" transform="translate(-41.5 -55.3)" style="fill:#263238"/><path d="M539.7,251.4c.1.1,0,.3.1.5s.2.3.4.1.2-.3,0-.5h-.4c-.1,0,.1-.3.5-.3s.5.2.6.5a.8.8,0,0,1-.3.9.8.8,0,0,1-.9.1.9.9,0,0,1-.4-.7A.7.7,0,0,1,539.7,251.4Z" transform="translate(-41.5 -55.3)" style="fill:#263238"/><g style="opacity:0.2"><path d="M520.6,185.1l-5.3-9.5a129.8,129.8,0,0,0,3.5,50c.5-13.5,1.1-26.9,1.6-40.3" transform="translate(-41.5 -55.3)"/></g><path d="M494,167.7h3.7l10.2-.2h.2v.3c-.2,3.7-.6,8-.9,12.6H507l-.6.3-6.8,3.6h-.3l-6.3-5.2h-.1c.3-3.4.5-6.2.7-8.3s.2-1.7.2-2.3.1-.7.2-.7v.8a17,17,0,0,0-.1,2.4c-.2,2-.3,4.8-.5,8.1v-.2l6.4,5.1h-.4l6.8-3.6.7-.3-.2.2c.4-4.6.7-8.8,1-12.5l.3.3-10-.2H494Z" transform="translate(-41.5 -55.3)" style="fill:#263238"/><path d="M464.4,240.2c0,.2-1.2,0-2-1.2s-.6-2.5-.4-2.4.2,1,.9,2S464.5,240.1,464.4,240.2Z" transform="translate(-41.5 -55.3)" style="fill:#263238"/><path d="M466,239.6a4.7,4.7,0,0,1-1.7-2.8c-.4-1.8,0-3.3.2-3.2s0,1.4.4,3.1S466.1,239.5,466,239.6Z" transform="translate(-41.5 -55.3)" style="fill:#263238"/><path d="M511.1,232.9a8.3,8.3,0,0,1-1,4.9c-1.2,2.6-3.1,4-3.2,3.8a28.4,28.4,0,0,0,2.7-4.1C510.7,235.1,510.9,232.8,511.1,232.9Z" transform="translate(-41.5 -55.3)" style="fill:#263238"/><path d="M409.3,165.6s-18.2-13.8-20.7-14.7c-4.3-1.6-5.3-1.2-5.3-1.2l10,10.8s-10.6,3.5-11.3,4-1.2,2.7,1.4,2.7l12.2.2,8.4,6.1Z" transform="translate(-41.5 -55.3)" style="fill:#ffbe9d"/></g></svg>